#N canvas 34 59 549 304 10;
#X obj 123 150 abl_link~ 1 0 4 134;
#X obj 116 85 tgl 15 0 empty empty empty 17 7 0 10 -262144 -1 -1 0
1;
#X msg 116 105 connect \$1;
#X obj 87 25 loadbang;
#X obj 87 47 del 100;
#X obj 266 26 / 127;
#X obj 266 48 * 340;
#X obj 266 70 + 20;
#X obj 266 92 i;
#X msg 266 114 tempo \$1;
#X floatatom 123 172 5 0 0 0 - - -, f 5;
#X obj 192 191 wrap;
#X obj 342 39 r #abl_link_num_peers;
#X floatatom 342 61 5 0 0 0 - - -, f 5;
#X obj 342 80 > 0;
#X obj 342 102 s link-session-present;
#X floatatom 192 213 5 0 0 0 - - -, f 5;
#N canvas 2 143 526 300 boop 1;
#X obj 69 27 inlet;
#X obj 211 122 vline~;
#X obj 313 193 pow~ 2;
#X obj 330 55 vline~;
#X obj 138 39 +~;
#X obj 69 49 t b b;
#X obj 137 119 osc~;
#X obj 137 233 outlet~;
#X obj 137 181 *~;
#X obj 137 203 *~ 0.1;
#X obj 97 119 osc~;
#X obj 57 119 osc~;
#X obj 56 86 *~ 8;
#X obj 57 141 /~ 8;
#X obj 97 86 *~ 16;
#X msg 331 36 1 2 \, 0 20 2;
#X msg 211 80 1 8 \, 0 600 8;
#X obj 57 163 *~;
#X obj 97 163 *~;
#X obj 97 141 /~ 10;
#X obj 138 17 sig~ 67;
#X obj 330 78 pow~ 8;
#X obj 330 99 *~ 100;
#X obj 16 120 osc~;
#X obj 16 164 *~;
#X obj 15 87 *~ 32;
#X obj 16 142 /~ 64;
#X obj 212 161 pow~ 4;
#X floatatom 209 12 5 0 0 0 - - -, f 5;
#X connect 0 0 5 0;
#X connect 1 0 2 0;
#X connect 1 0 27 0;
#X connect 2 0 8 1;
#X connect 3 0 21 0;
#X connect 4 0 6 0;
#X connect 4 0 12 0;
#X connect 4 0 14 0;
#X connect 4 0 25 0;
#X connect 5 0 16 0;
#X connect 5 1 15 0;
#X connect 6 0 8 0;
#X connect 8 0 9 0;
#X connect 9 0 7 0;
#X connect 10 0 19 0;
#X connect 11 0 13 0;
#X connect 12 0 11 0;
#X connect 13 0 17 0;
#X connect 14 0 10 0;
#X connect 15 0 3 0;
#X connect 16 0 1 0;
#X connect 17 0 8 0;
#X connect 18 0 8 0;
#X connect 19 0 18 0;
#X connect 20 0 4 0;
#X connect 21 0 22 0;
#X connect 22 0 4 1;
#X connect 23 0 26 0;
#X connect 24 0 8 0;
#X connect 25 0 23 0;
#X connect 26 0 24 0;
#X connect 27 0 18 1;
#X connect 27 0 17 1;
#X connect 27 0 24 1;
#X connect 28 0 20 0;
#X restore 23 251 pd boop;
#X obj 293 189 hsl 128 15 0 127 0 0 empty empty empty -2 -8 0 10 -262144
-1 -1 12700 1;
#X obj 290 209 / 127;
#X obj 355 138 hsl 128 15 0 127 0 0 empty empty empty -2 -8 0 10 -262144
-1 -1 6900 1;
#X obj 23 150 f;
#X obj 56 152 + 1;
#X obj 23 172 %;
#X obj 23 218 sel 0;
#X floatatom 64 173 5 0 0 0 - - -, f 5;
#X msg 290 231 master-vol \$1;
#X obj 72 273 cross-over-out 2000 2000;
#X msg 293 258 tweet-vol 0.75;
#X obj 20 95 sel 1 2 0;
#X obj 97 224 del 125;
#X obj 101 192 sel 3;
#X floatatom 144 209 5 0 0 0 - - -, f 5;
#X connect 0 0 10 0;
#X connect 0 0 29 0;
#X connect 0 0 31 0;
#X connect 0 1 11 0;
#X connect 1 0 2 0;
#X connect 2 0 0 0;
#X connect 3 0 4 0;
#X connect 5 0 6 0;
#X connect 6 0 7 0;
#X connect 7 0 8 0;
#X connect 8 0 9 0;
#X connect 9 0 0 0;
#X connect 11 0 16 0;
#X connect 12 0 13 0;
#X connect 13 0 14 0;
#X connect 14 0 15 0;
#X connect 17 0 27 0;
#X connect 18 0 19 0;
#X connect 19 0 26 0;
#X connect 20 0 5 0;
#X connect 21 0 22 0;
#X connect 21 0 23 0;
#X connect 22 0 21 1;
#X connect 23 0 24 0;
#X connect 24 0 17 0;
#X connect 25 0 23 1;
#X connect 26 0 27 1;
#X connect 28 0 27 1;
#X connect 29 0 21 0;
#X connect 29 1 21 0;
#X connect 29 2 21 0;
#X connect 30 0 17 0;
#X connect 31 0 30 0;
#X connect 32 0 30 1;
