#N canvas 198 195 1081 656 10;
#X obj 125 205 vline~;
#X obj 100 4 bng 15 250 50 0 empty empty empty 17 7 0 10 -262144 -1
-1;
#X obj 104 332 *~ -1;
#X obj 104 286 -~, f 13;
#X obj 104 360 +~ 1;
#X obj 265 214 vline~;
#X obj 104 256 sig~ 1;
#X obj 280 460 *~;
#X obj 296 434 *~ 0.15;
#X obj 300 411 osc~ 100;
#X obj 305 299 vline~;
#X obj 65 138 t b a a b, f 24;
#X obj 395 303 mtof~;
#N canvas 4 23 162 227 hv.tanh 0;
#X obj 12 12 inlet~;
#X obj 12 38 clip~ -3 3;
#X obj 27 64 *~;
#X obj 12 192 outlet~;
#X obj 27 140 /~;
#X obj 12 166 *~;
#X obj 67 90 *~ 9;
#X obj 27 90 +~ 27;
#X obj 67 116 +~ 27;
#X connect 0 0 1 0;
#X connect 1 0 2 0;
#X connect 1 0 2 1;
#X connect 1 0 5 0;
#X connect 2 0 7 0;
#X connect 2 0 6 0;
#X connect 4 0 5 1;
#X connect 5 0 3 0;
#X connect 6 0 8 0;
#X connect 7 0 4 0;
#X connect 8 0 4 1;
#X restore 219 521 pd hv.tanh;
#X obj 542 419 osc~ 100;
#X obj 542 398 *~ 12;
#X obj 542 440 /~ 124;
#X obj 104 311 pow~ 3;
#X obj 476 415 osc~ 100;
#X obj 476 436 /~ 124;
#X obj 427 470 vline~;
#X obj 427 511 *~;
#X obj 400 397 +~;
#X obj 600 418 osc~ 100;
#X obj 600 397 *~ 16;
#X obj 600 439 /~ 128;
#N canvas 4 23 162 227 hv.tanh 0;
#X obj 12 12 inlet~;
#X obj 12 38 clip~ -3 3;
#X obj 27 64 *~;
#X obj 12 192 outlet~;
#X obj 27 140 /~;
#X obj 12 166 *~;
#X obj 67 90 *~ 9;
#X obj 27 90 +~ 27;
#X obj 67 116 +~ 27;
#X connect 0 0 1 0;
#X connect 1 0 2 0;
#X connect 1 0 2 1;
#X connect 1 0 5 0;
#X connect 2 0 7 0;
#X connect 2 0 6 0;
#X connect 4 0 5 1;
#X connect 5 0 3 0;
#X connect 6 0 8 0;
#X connect 7 0 4 0;
#X connect 8 0 4 1;
#X restore 330 559 pd hv.tanh;
#X obj 590 472 vline~;
#X obj 590 513 *~;
#X obj 476 397 *~ 18;
#X obj 265 240 pow~ 12;
#X obj 606 340 osc~ 100;
#X obj 484 268 osc~ 100;
#X obj 590 493 pow~ 3;
#X obj 251 110 / 127;
#X obj 251 131 sqrt;
#X obj 249 -2 inlet;
#X msg 121 179 0 0 \, 1 \$1 0 \, 0 0 \$1;
#X obj 225 456 *~;
#X obj 185 346 sig~;
#X obj 183 424 *~ 1;
#X obj 365 16 inlet;
#X obj 437 10 inlet;
#X obj 219 583 outlet~;
#X obj 330 580 outlet~;
#X msg 336 226 1;
#X msg 319 144 0.9;
#X obj 508 109 inlet~;
#X msg 519 365 1 3 \, 0 150 3;
#X msg 439 365 1 3 \, 0 400 3;
#X obj 426 490 pow~ 3;
#X obj 480 478 *~ 0.75;
#X obj 538 480 *~ 0.75;
#X obj 396 338 /~ 1.66667;
#X obj 259 379 +~;
#X obj 606 319 *~ 12.5;
#X obj 484 246 *~ 12.3;
#X obj 484 289 /~ 100;
#X obj 606 361 /~ 100;
#X obj 303 351 *~ 1756;
#X obj 220 293 *~ 0.5;
#X obj 220 314 +~ 0.5;
#X obj 220 272 osc~ 1000;
#X obj 305 320 pow~ 16;
#X obj 201 248 +~ 1;
#X obj 255 41 t f b;
#X msg 317 257 \$1 1 \, 0 27 1;
#X obj 219 335 *~ 40;
#X obj 221 355 +~ 45;
#X msg 286 176 0 0 \, 1 0 \$1 \, 0 700 \$2;
#X obj 204 222 *~ 1000;
#X msg 356 199 0.15, f 4;
#X msg 102 113 10 120, f 12;
#X connect 0 0 3 1;
#X connect 1 0 72 0;
#X connect 2 0 4 0;
#X connect 3 0 17 0;
#X connect 4 0 40 0;
#X connect 5 0 30 0;
#X connect 6 0 3 0;
#X connect 7 0 13 0;
#X connect 7 0 26 0;
#X connect 8 0 7 1;
#X connect 9 0 8 0;
#X connect 10 0 63 0;
#X connect 10 0 70 0;
#X connect 11 1 37 0;
#X connect 11 2 69 0;
#X connect 11 3 45 0;
#X connect 12 0 53 0;
#X connect 13 0 43 0;
#X connect 14 0 16 0;
#X connect 15 0 14 0;
#X connect 16 0 51 0;
#X connect 17 0 2 0;
#X connect 18 0 19 0;
#X connect 19 0 51 0;
#X connect 19 0 52 0;
#X connect 20 0 50 0;
#X connect 21 0 13 0;
#X connect 22 0 15 0;
#X connect 22 0 24 0;
#X connect 22 0 29 0;
#X connect 22 0 55 0;
#X connect 22 0 56 0;
#X connect 23 0 25 0;
#X connect 24 0 23 0;
#X connect 25 0 52 0;
#X connect 26 0 44 0;
#X connect 27 0 33 0;
#X connect 28 0 26 0;
#X connect 29 0 18 0;
#X connect 30 0 40 0;
#X connect 31 0 58 0;
#X connect 32 0 57 0;
#X connect 33 0 28 0;
#X connect 34 0 35 0;
#X connect 35 0 72 0;
#X connect 35 0 39 0;
#X connect 36 0 65 0;
#X connect 37 0 0 0;
#X connect 38 0 7 0;
#X connect 39 0 38 1;
#X connect 40 0 38 0;
#X connect 41 0 49 0;
#X connect 41 0 46 0;
#X connect 42 0 48 0;
#X connect 42 0 46 0;
#X connect 45 0 66 0;
#X connect 46 0 66 0;
#X connect 47 0 12 0;
#X connect 48 0 20 0;
#X connect 48 0 27 0;
#X connect 49 0 20 0;
#X connect 49 0 27 0;
#X connect 50 0 21 0;
#X connect 51 0 21 1;
#X connect 51 0 28 1;
#X connect 52 0 28 1;
#X connect 53 0 22 0;
#X connect 54 0 9 0;
#X connect 55 0 31 0;
#X connect 56 0 32 0;
#X connect 57 0 21 1;
#X connect 58 0 28 1;
#X connect 59 0 22 1;
#X connect 59 0 54 1;
#X connect 60 0 61 0;
#X connect 61 0 67 0;
#X connect 62 0 60 0;
#X connect 63 0 59 0;
#X connect 64 0 62 0;
#X connect 65 0 34 0;
#X connect 65 1 71 0;
#X connect 66 0 10 0;
#X connect 67 0 68 0;
#X connect 68 0 54 0;
#X connect 69 0 5 0;
#X connect 70 0 64 0;
#X connect 71 0 62 1;
#X connect 72 0 11 0;
