#N canvas 715 430 725 448 10;
#X obj 45 276 rebeccas;
#X msg 132 81 size \$1;
#X floatatom 152 41 5 0 0 0 - - -;
#X obj 256 39 tgl 15 0 empty empty empty 17 7 0 10 -262144 -1 -1 1
1;
#X floatatom 298 35 5 0 0 0 - - -;
#X obj 261 70 metro360 120;
#X obj 205 165 seqer;
#X msg 184 101 metro \$1;
#X msg 268 128 length \$1;
#X floatatom 284 92 5 0 0 0 - - -;
#X msg 106 250 metro \$1;
#X connect 1 0 0 0;
#X connect 2 0 1 0;
#X connect 3 0 5 0;
#X connect 4 0 5 1;
#X connect 5 0 7 0;
#X connect 6 0 10 0;
#X connect 7 0 6 0;
#X connect 8 0 6 0;
#X connect 9 0 8 0;
#X connect 10 0 0 0;
