#N canvas 628 147 812 588 10;
#N canvas 0 23 1132 451 stuff 0;
#X obj 37 37 inlet;
#X obj 37 79 s \$0-point;
#X obj 104 79 s \$0-in;
#X obj 160 80 s \$0-out;
#X obj 223 82 s \$0-speed;
#X obj 292 82 s \$0-s-in;
#X obj 355 82 s \$0-s-out;
#X obj 426 81 s \$0-rel;
#X obj 484 82 s \$0-a;
#X obj 553 82 s \$0-d;
#X obj 617 82 s \$0-s;
#X obj 687 81 s \$0-r;
#X obj 37 57 route point in out speed s-in s-out rel a d s r loop,
f 138;
#X obj 698 118 s \$0-loop;
#X connect 0 0 12 0;
#X connect 12 0 1 0;
#X connect 12 1 2 0;
#X connect 12 2 3 0;
#X connect 12 3 4 0;
#X connect 12 4 5 0;
#X connect 12 5 6 0;
#X connect 12 6 7 0;
#X connect 12 7 8 0;
#X connect 12 8 9 0;
#X connect 12 9 10 0;
#X connect 12 10 11 0;
#X connect 12 11 13 0;
#X restore 618 42 pd stuff;
#X obj 40 188 sel 0, f 20;
#X obj 40 68 unpack, f 24;
#X obj 40 89 swap, f 24;
#X obj 157 363 tabread4~;
#X obj 187 340 r \$0-to-tabread;
#N canvas 506 259 875 509 pointer 0;
#X obj 181 373 tabread;
#X msg 232 314 set \$2-\$1-length;
#X msg 181 314 0;
#X obj 181 187 pack 0 s;
#X obj 226 152 symbol \$1;
#X obj 277 122 r \$0-point;
#X obj 181 464 s \$0-length-samp;
#X obj 181 394 t f f;
#X obj 208 420 /;
#X obj 235 379 samplerate~;
#X obj 235 400 * 0.001;
#X obj 208 441 s \$0-length-ms;
#X msg 412 278 set \$2-\$1;
#X obj 412 309 s \$0-to-tabread;
#X obj 181 11 inlet;
#X obj 235 347 loadbang;
#X obj 559 91 r \$0-no-note;
#X msg 559 112 -1;
#X obj 526 144 sel -1;
#X obj 526 194 s \$0-duck;
#X obj 181 223 t b a a, f 39;
#X obj 181 60 t a b a a, f 58;
#X connect 0 0 7 0;
#X connect 1 0 0 0;
#X connect 2 0 0 0;
#X connect 3 0 20 0;
#X connect 4 0 3 1;
#X connect 5 0 4 1;
#X connect 7 0 6 0;
#X connect 7 1 8 0;
#X connect 8 0 11 0;
#X connect 9 0 10 0;
#X connect 10 0 8 1;
#X connect 12 0 13 0;
#X connect 14 0 21 0;
#X connect 15 0 9 0;
#X connect 16 0 17 0;
#X connect 17 0 18 1;
#X connect 18 0 19 0;
#X connect 20 0 2 0;
#X connect 20 1 1 0;
#X connect 20 2 12 0;
#X connect 21 0 3 0;
#X connect 21 1 4 0;
#X restore 181 136 pd pointer;
#X obj 197 280 s \$0-re-start;
#X obj 157 220 t b b f, f 14;
#X obj 238 252 s \$0-vel;
#X obj 157 494 hip~ 5;
#X obj 157 535 outlet~;
#X msg 40 209 0;
#N canvas 309 211 1047 639 adsr 0;
#X obj 221 46 r \$0-a;
#X obj 282 88 r \$0-d;
#X obj 343 106 r \$0-s;
#X obj 160 35 r \$0-vel;
#X obj 59 35 r \$0-off;
#X obj 158 326 vline~;
#X obj 158 387 pow~ 2;
#X obj 158 438 outlet~;
#X obj 160 79 / 127;
#X obj 160 100 sqrt;
#X msg 160 183 \$1 \$2 \, \$4 \$3 \$2;
#X obj 59 56 t b;
#X msg 59 77 0;
#X obj 160 143 pack 0.9 10 100 0.8, f 31;
#X obj 59 253 pack 0 1000;
#X obj 104 226 r \$0-r;
#X obj 227 228 r \$0-duck;
#X obj 227 249 t b;
#X msg 227 270 0 10;
#X connect 0 0 13 1;
#X connect 1 0 13 2;
#X connect 2 0 13 3;
#X connect 3 0 8 0;
#X connect 4 0 11 0;
#X connect 5 0 6 0;
#X connect 6 0 7 0;
#X connect 8 0 9 0;
#X connect 9 0 13 0;
#X connect 10 0 5 0;
#X connect 11 0 12 0;
#X connect 12 0 14 0;
#X connect 13 0 10 0;
#X connect 14 0 5 0;
#X connect 15 0 14 1;
#X connect 16 0 17 0;
#X connect 17 0 18 0;
#X connect 18 0 5 0;
#X restore 334 412 pd adsr;
#X obj 40 230 s \$0-off;
#X obj 157 444 *~, f 30;
#X obj 40 17 inlet note-pair;
#X obj 157 404 *~, f 24;
#N canvas 236 43 830 768 phasor 0;
#X obj 34 -4 inlet;
#X obj 165 295 r \$0-re-start;
#X obj 180 321 r \$0-in;
#X obj 72 673 *~, f 28;
#X text 254 672 samplerate;
#X obj 72 710 +~ 1;
#X obj 237 646 - 2;
#X text 265 645 interpolation -2;
#X text 103 710 interpolation + 1;
#X obj 72 731 outlet~;
#X obj 72 372 phasor~ 0.1, f 16;
#X obj 433 147 del;
#X obj 477 92 r \$0-delay;
#X msg 433 91 stop;
#X obj 237 619 r \$0-length-samp;
#X obj 433 274 s \$0-switch-2s;
#X obj 195 563 f;
#X obj 195 515 r \$0-switch-2s;
#X obj 210 540 r \$0-s-in;
#X obj 72 563 *~ 1, f 7;
#X obj 72 626 +~ 0, f 21;
#X obj 342 263 r \$0-off;
#X obj 342 284 t b b;
#X msg 369 336 stop;
#X msg 342 437 0;
#X obj 633 91 r \$0-loop;
#X obj 165 346 f 0;
#X obj 387 369 r \$0-r;
#X obj 549 542 -~ 0.5;
#X obj 549 584 cos~;
#X obj 549 626 clip~ 0 1;
#X obj 549 647 outlet~ click;
#X obj 549 563 *~ 0.5;
#X obj 549 605 *~ 5;
#X obj 625 518 r \$0-length-ms;
#X obj 633 157 f;
#X obj 651 114 loadbang;
#X obj 651 136 f \$2;
#X obj 588 224 spigot 0;
#X obj 433 248 spigot 0;
#X obj 433 168 t b b;
#X obj 342 396 del 1000;
#X obj 633 199 ==;
#X obj 608 277 s \$0-off-now;
#X obj 588 299 s \$0-off;
#X obj 137 185 r \$0-off-now;
#X msg 137 206 0;
#X obj 625 539 / 10;
#X obj 342 417 t b b, f 10;
#X obj 399 440 s \$0-no-note;
#X obj 519 351 r \$0-duck;
#X obj 519 372 del 10;
#X msg 519 409 0;
#X obj 607 46 s \$0-out-in-og;
#X obj 111 427 r \$0-out-in-og;
#X obj 111 484 f 1;
#X obj 288 514 r \$0-out-in-og;
#X obj 304 542 r \$0-in;
#X obj 288 564 f 0;
#X obj 34 20 t b b b b b, f 96;
#X obj 625 255 s \$0-no-note;
#N canvas 800 235 450 300 loop-speed 0;
#X obj 122 8 r \$0-length-ms;
#X obj 137 121 r \$0-speed;
#X obj 122 97 * 1, f 8;
#X obj 122 158 * 1;
#X msg 122 185 1000 \$1;
#X obj 122 207 /;
#X obj 27 164 inlet bang;
#X obj 167 62 r \$0-s-out;
#X obj 107 268 outlet;
#X obj 107 238 f;
#X connect 0 0 2 0;
#X connect 1 0 3 1;
#X connect 2 0 3 0;
#X connect 3 0 4 0;
#X connect 4 0 5 0;
#X connect 5 0 9 1;
#X connect 6 0 9 0;
#X connect 7 0 2 1;
#X connect 9 0 8 0;
#X restore 124 123 pd loop-speed;
#X obj 126 462 r \$0-out;
#X obj 203 477 f;
#X obj 203 429 r \$0-switch-2s;
#X obj 218 454 r \$0-s-out;
#X obj 124 98 r \$0-switch-2s;
#N canvas 801 234 449 301 og-speed 0;
#X obj 122 32 r \$0-length-ms;
#X obj 215 81 r \$0-speed;
#X obj 122 97 * 1, f 8;
#X obj 122 138 * 1, f 16;
#X msg 122 185 1000 \$1;
#X obj 122 207 /;
#X obj 93 7 inlet bang;
#X obj 111 268 outlet;
#X obj 167 62 r \$0-out;
#X obj 179 164 s \$0-delay;
#X obj 108 236 f;
#X obj 215 102 t b a;
#X connect 0 0 2 0;
#X connect 1 0 11 0;
#X connect 2 0 3 0;
#X connect 3 0 9 0;
#X connect 3 0 4 0;
#X connect 4 0 5 0;
#X connect 5 0 10 1;
#X connect 6 0 10 0;
#X connect 8 0 2 1;
#X connect 10 0 7 0;
#X connect 11 0 3 0;
#X connect 11 1 3 1;
#X restore 34 95 pd og-speed;
#X obj 72 647 wrap~;
#X connect 0 0 59 0;
#X connect 1 0 26 0;
#X connect 2 0 26 1;
#X connect 3 0 5 0;
#X connect 5 0 9 0;
#X connect 6 0 3 1;
#X connect 10 0 19 0;
#X connect 10 0 28 0;
#X connect 11 0 40 0;
#X connect 12 0 11 1;
#X connect 13 0 11 0;
#X connect 14 0 6 0;
#X connect 16 0 20 1;
#X connect 17 0 16 0;
#X connect 18 0 16 1;
#X connect 19 0 20 0;
#X connect 20 0 68 0;
#X connect 21 0 22 0;
#X connect 22 0 41 0;
#X connect 22 1 23 0;
#X connect 23 0 41 0;
#X connect 24 0 10 0;
#X connect 25 0 35 0;
#X connect 26 0 10 1;
#X connect 27 0 41 1;
#X connect 28 0 32 0;
#X connect 29 0 33 0;
#X connect 30 0 31 0;
#X connect 32 0 29 0;
#X connect 33 0 30 0;
#X connect 34 0 47 0;
#X connect 35 0 42 0;
#X connect 35 0 39 1;
#X connect 36 0 37 0;
#X connect 37 0 35 0;
#X connect 38 0 43 0;
#X connect 38 0 44 0;
#X connect 38 0 60 0;
#X connect 39 0 15 0;
#X connect 40 0 39 0;
#X connect 40 1 38 0;
#X connect 41 0 48 0;
#X connect 42 0 38 1;
#X connect 45 0 46 0;
#X connect 46 0 10 0;
#X connect 47 0 33 1;
#X connect 48 0 24 0;
#X connect 48 1 49 0;
#X connect 50 0 51 0;
#X connect 51 0 52 0;
#X connect 51 0 49 0;
#X connect 52 0 10 0;
#X connect 54 0 55 0;
#X connect 55 0 19 1;
#X connect 56 0 58 0;
#X connect 57 0 58 1;
#X connect 58 0 20 1;
#X connect 59 0 67 0;
#X connect 59 1 11 0;
#X connect 59 2 13 0;
#X connect 59 2 23 0;
#X connect 59 4 53 0;
#X connect 61 0 10 0;
#X connect 62 0 55 1;
#X connect 63 0 19 1;
#X connect 64 0 63 0;
#X connect 65 0 63 1;
#X connect 66 0 61 0;
#X connect 67 0 10 0;
#X connect 68 0 3 0;
#X restore 157 317 pd phasor - - - - - - - - - - -;
#X obj 40 40 route note;
#X connect 1 0 12 0;
#X connect 1 1 8 0;
#X connect 2 0 3 0;
#X connect 2 1 3 1;
#X connect 3 0 1 0;
#X connect 3 1 6 0;
#X connect 4 0 17 0;
#X connect 5 0 4 0;
#X connect 8 0 18 0;
#X connect 8 1 7 0;
#X connect 8 2 9 0;
#X connect 10 0 11 0;
#X connect 12 0 14 0;
#X connect 13 0 15 1;
#X connect 15 0 10 0;
#X connect 16 0 19 0;
#X connect 17 0 15 0;
#X connect 18 0 4 0;
#X connect 18 1 17 1;
#X connect 19 0 2 0;
#X connect 19 1 0 0;
