#N canvas 832 306 641 456 10;
#X obj 182 214 fmMod, f 13;
#X obj 271 171 sig~ 0.5;
#X obj 204 48 sig~ 200;
#X obj 249 138 vline~;
#X obj 218 349 dac~ 1 2;
#X obj 492 227 sig~ 0.5;
#X obj 470 194 vline~;
#X obj 393 19 bng 15 250 50 0 empty empty empty 17 7 0 10 -262144 -1
-1;
#X obj 220 97 sig~ 1;
#X msg 384 113 0.5 8 \, 0.025 50 8 \, 0 500 410;
#X obj 309 134 lop~ 5;
#X floatatom 321 108 5 0 0 0 - - -, f 5;
#X obj 403 270 fmMod, f 13;
#X obj 171 308 *~ 0.05;
#X obj 267 317 *~ 0.05;
#X obj 47 98 hsl 128 15 0 127 0 0 empty empty empty -2 -8 0 10 -262144
-1 -1 1400 1;
#X obj 44 118 / 127;
#X obj 459 34 metro 333;
#X obj 553 33 tgl 15 0 empty empty empty 17 7 0 10 -262144 -1 -1 0
1;
#X obj 440 153 sig~ 4.33333;
#X msg 319 68 0.9 10 \, 0.2 100 10 \, 0 500 410;
#X connect 0 0 13 0;
#X connect 0 1 14 0;
#X connect 2 0 0 1;
#X connect 2 0 12 1;
#X connect 3 0 0 3;
#X connect 5 0 12 4;
#X connect 6 0 12 3;
#X connect 7 0 20 0;
#X connect 7 0 9 0;
#X connect 8 0 0 2;
#X connect 9 0 6 0;
#X connect 10 0 0 4;
#X connect 11 0 10 0;
#X connect 12 0 0 0;
#X connect 13 0 4 0;
#X connect 14 0 4 1;
#X connect 15 0 16 0;
#X connect 16 0 11 0;
#X connect 17 0 7 0;
#X connect 18 0 17 0;
#X connect 19 0 12 2;
#X connect 20 0 3 0;
