#N canvas 527 305 558 398 10;
#X obj 14 165 +~;
#X obj 14 187 cos~;
#X obj 14 229 outlet~;
#X obj 73 229 tabsend~ \$0-fb;
#X obj 121 93 *~;
#X obj 310 95 table \$0-fb 1;
#X obj 176 60 tabreceive~ \$0-fb;
#X obj 121 114 rzero~ -1;
#X obj 121 136 *~ 0.5;
#X obj 14 63 inlet~ phasor;
#X obj 121 31 inlet~ amount;
#X obj 310 14 inlet on/off;
#X obj 310 73 switch~ 1 1 1;
#X text 320 38 1 = ON;
#X text 320 51 0 = OFF;
#X obj 426 49 \$1;
#X obj 426 26 loadbang;
#X connect 0 0 1 0;
#X connect 1 0 2 0;
#X connect 1 0 3 0;
#X connect 4 0 7 0;
#X connect 6 0 4 1;
#X connect 7 0 8 0;
#X connect 8 0 0 1;
#X connect 9 0 0 0;
#X connect 10 0 4 0;
#X connect 11 0 12 0;
#X connect 15 0 12 0;
#X connect 16 0 15 0;
