#N canvas 277 154 1032 709 10;
#X obj 170 207 +~;
#X obj 187 150 phasor~ 0;
#X obj 170 287 *~;
#X obj 19 33 inlet~;
#X text 19 12 Phase Mod;
#X obj 428 25 inlet~;
#X text 458 4 Index \, Amp of oscil;
#X obj 227 34 inlet~;
#X text 99 8 Base frequency;
#X obj 170 395 outlet~;
#X text 224 3 modulation (rsp carrier) factor;
#X text 101 468 Basic Oscillator that can easily be phase modulated.
;
#X obj 170 241 cos~;
#X obj 106 33 inlet~;
#X obj 187 115 *~;
#X obj 263 395 outlet~;
#X obj 169 317 pan-mono, f 14;
#X obj 671 26 inlet~;
#X text 673 -1 pan~;
#X connect 0 0 12 0;
#X connect 1 0 0 1;
#X connect 2 0 16 0;
#X connect 3 0 0 0;
#X connect 5 0 2 1;
#X connect 7 0 14 0;
#X connect 12 0 2 0;
#X connect 13 0 14 1;
#X connect 14 0 1 0;
#X connect 16 0 9 0;
#X connect 16 1 15 0;
#X connect 17 0 16 1;
