#N canvas 666 352 775 555 10;
#X obj 15 21 rebeccas;
#X obj 435 100 hsl 128 15 0 127 0 0 empty empty empty -2 -8 0 10 -262144
-1 -1 4500 1;
#X obj 447 120 / 127;
#X obj 447 164 i;
#X obj 447 186 + 1;
#X obj 447 142 * 15;
#X connect 1 0 2 0;
#X connect 2 0 5 0;
#X connect 3 0 4 0;
#X connect 4 0 0 0;
#X connect 5 0 3 0;
