#N canvas 226 180 1117 741 10;
#X floatatom 128 22 5 0 0 0 - - -;
#X obj 75 25 tgl 15 0 empty empty empty 17 7 0 10 -262144 -1 -1 1 1
;
#X msg 75 93 metro \$1;
#X floatatom 208 44 5 0 0 0 - - -;
#X obj 262 56 bng 15 250 50 0 empty empty empty 17 7 0 10 -262144 -1
-1;
#X msg 67 185 metro \$1;
#X obj 75 47 metro360 120;
#X obj 60 265 slider 1 1;
#X obj 67 214 s slider1-1-in;
#X obj 577 109 s slider1-1-in;
#X msg 576 53 write 1;
#X msg 364 23 start-sync;
#X obj 75 133 seqer;
#X msg 718 65 length 4;
#X msg 170 153 pause;
#X obj 60 334 slider 1 2;
#X msg 229 205 metro \$1;
#X obj 237 153 seqer;
#X msg 332 173 pause;
#X obj 229 234 s slider1-2-in;
#X obj 95 426 r slider1-2-out;
#X msg 762 146 write 1;
#X obj 763 202 s slider1-2-in;
#X msg 904 158 length 4;
#X msg 260 89 length 4;
#X msg 843 148 size 16;
#X obj 95 584 pack 0 0, f 17;
#X obj 95 635 s notes;
#X floatatom 243 560 5 0 0 0 - - -;
#X obj 149 626 print;
#X obj 95 563 makenote 0 100 1000;
#X obj 241 436 r slider1-1-out;
#X obj 95 521 unpack 0 0;
#X msg 95 447 50 \$1;
#X msg 241 457 55 \$1;
#X msg 657 55 size 16;
#X connect 0 0 6 1;
#X connect 1 0 6 0;
#X connect 2 0 17 0;
#X connect 2 0 12 0;
#X connect 3 0 24 0;
#X connect 4 0 3 0;
#X connect 5 0 8 0;
#X connect 6 0 2 0;
#X connect 10 0 9 0;
#X connect 11 0 17 0;
#X connect 11 0 12 0;
#X connect 12 0 5 0;
#X connect 13 0 9 0;
#X connect 14 0 12 0;
#X connect 16 0 19 0;
#X connect 17 0 16 0;
#X connect 18 0 17 0;
#X connect 20 0 33 0;
#X connect 21 0 22 0;
#X connect 23 0 22 0;
#X connect 24 0 17 0;
#X connect 24 0 12 0;
#X connect 25 0 22 0;
#X connect 26 0 27 0;
#X connect 26 0 29 0;
#X connect 28 0 30 2;
#X connect 30 0 26 0;
#X connect 30 1 26 1;
#X connect 31 0 34 0;
#X connect 32 0 30 0;
#X connect 32 1 30 1;
#X connect 33 0 32 0;
#X connect 34 0 32 0;
#X connect 35 0 9 0;
