#N canvas 226 180 1117 741 10;
#X obj 526 21 hsl 128 15 0 127 0 0 empty empty empty -2 -8 0 10 -262144
-1 -1 0 1;
#X obj 494 54 / 127;
#X obj 494 98 i;
#X obj 494 120 + 1;
#X obj 494 76 * 15;
#X obj 518 178 tgl 15 0 empty empty empty 17 7 0 10 -262144 -1 -1 0
1;
#X obj 522 456 s rstep-1;
#X obj 657 173 s rstep-1;
#X obj 644 39 hsl 128 15 0 127 0 0 empty empty empty -2 -8 0 10 -262144
-1 -1 0 1;
#X obj 656 59 / 127;
#X obj 656 103 i;
#X obj 656 125 + 1;
#X obj 656 81 * 15;
#X msg 656 146 size \$1;
#X obj 506 230 f;
#X obj 536 232 + 1;
#X msg 482 330 step \$1;
#X obj 506 251 %, f 13;
#X obj 506 272 + 1;
#X floatatom 506 293 5 0 0 0 - - -;
#X obj 506 209 metro 250;
#X obj 558 388 s rstep-2;
#X obj 552 346 % 4;
#X msg 559 369 step \$1;
#X floatatom 44 202 5 0 0 0 - - -;
#X msg 97 231 all \$1;
#X floatatom 97 201 5 0 0 0 - - -;
#X obj 75 120 seqer;
#X obj 75 47 metro360;
#X floatatom 128 22 5 0 0 0 - - -;
#X obj 75 25 tgl 15 0 empty empty empty 17 7 0 10 -262144 -1 -1 1 1
;
#X msg 75 92 metro \$1;
#X msg 345 155 length \$1;
#X floatatom 208 44 5 0 0 0 - - -;
#X obj 44 301 slider 1 1;
#X msg 188 97 restart 0;
#X obj 262 56 bng 15 250 50 0 empty empty empty 17 7 0 10 -262144 -1
-1;
#X obj 133 693 dac~ 1 2;
#X msg 44 232 size \$1;
#X floatatom 661 424 5 0 0 0 - - -;
#X msg 714 453 all \$1;
#X floatatom 714 423 5 0 0 0 - - -;
#X msg 661 454 size \$1;
#X obj 656 512 slider 1 2;
#X msg 765 454 length \$1;
#X floatatom 776 420 5 0 0 0 - - -;
#X floatatom 709 343 5 0 0 0 - - -;
#X obj 711 391 * 4;
#X obj 649 372 seqer;
#X msg 647 393 metro \$1;
#N canvas 4 50 913 778 test-synth 0;
#X obj 104 521 vline~;
#X obj 104 542 *~;
#X obj 279 732 *~;
#X obj 276 589 osc~ 220;
#X obj 97 441 / 127;
#X obj 97 462 sqrt;
#X obj 386 500 osc~ 440;
#X obj 423 584 osc~ 880;
#X obj 471 611 osc~ 110;
#X obj 335 536 osc~ 1760;
#X obj 335 557 /~ 12;
#X obj 442 496 osc~ 440.5;
#X obj 281 565 /~ 12;
#X obj 281 544 osc~ 1763;
#X obj 442 517 /~ 4;
#X obj 386 521 /~ 4;
#X obj 276 610 /~ 4;
#X obj 220 591 osc~ 222;
#X obj 220 612 /~ 8;
#X obj 423 605 /~ 8;
#X obj 470 632 /~ 1;
#X obj 369 667 *~ 0.05;
#X obj 123 270 unpack 0 0;
#X obj 285 503 *~ 1;
#X obj 234 505 *~ 1.01;
#X obj 342 501 *~ 6;
#X obj 437 444 *~ 2.01;
#X obj 324 476 *~ 6.1;
#X obj 435 557 *~ 4;
#X obj 488 569 *~ 0.5;
#X obj 263 439 *~ 1;
#X obj 123 291 mtof;
#X obj 104 563 *~;
#X obj 129 154 inlet;
#X obj 279 753 outlet~;
#X obj 382 469 *~ 4;
#X msg 97 483 \$1 10 \, 0 100 10;
#X connect 0 0 1 0;
#X connect 0 0 1 1;
#X connect 1 0 32 0;
#X connect 1 0 32 1;
#X connect 2 0 34 0;
#X connect 3 0 16 0;
#X connect 4 0 5 0;
#X connect 5 0 36 0;
#X connect 6 0 15 0;
#X connect 7 0 19 0;
#X connect 8 0 20 0;
#X connect 9 0 10 0;
#X connect 10 0 21 0;
#X connect 11 0 14 0;
#X connect 12 0 21 0;
#X connect 13 0 12 0;
#X connect 14 0 21 0;
#X connect 15 0 21 0;
#X connect 16 0 21 0;
#X connect 17 0 18 0;
#X connect 18 0 21 0;
#X connect 19 0 21 0;
#X connect 20 0 21 0;
#X connect 21 0 2 1;
#X connect 22 0 31 0;
#X connect 22 1 4 0;
#X connect 23 0 3 0;
#X connect 24 0 17 0;
#X connect 25 0 9 0;
#X connect 26 0 11 0;
#X connect 27 0 13 0;
#X connect 28 0 7 0;
#X connect 29 0 8 0;
#X connect 30 0 24 0;
#X connect 30 0 29 0;
#X connect 30 0 28 0;
#X connect 30 0 26 0;
#X connect 30 0 25 0;
#X connect 30 0 27 0;
#X connect 30 0 23 0;
#X connect 30 0 35 0;
#X connect 31 0 30 0;
#X connect 32 0 2 0;
#X connect 33 0 22 0;
#X connect 35 0 6 0;
#X connect 36 0 0 0;
#X restore 46 375 pd test-synth;
#N canvas 4 50 913 778 test-synth 0;
#X obj 104 521 vline~;
#X obj 104 542 *~;
#X obj 115 651 *~;
#X obj 276 589 osc~ 220;
#X obj 97 441 / 127;
#X obj 97 462 sqrt;
#X obj 386 500 osc~ 440;
#X obj 423 584 osc~ 880;
#X obj 471 611 osc~ 110;
#X obj 335 536 osc~ 1760;
#X obj 335 557 /~ 12;
#X obj 442 496 osc~ 440.5;
#X obj 281 565 /~ 12;
#X obj 281 544 osc~ 1763;
#X obj 442 517 /~ 4;
#X obj 386 521 /~ 4;
#X obj 276 610 /~ 4;
#X obj 220 591 osc~ 222;
#X obj 220 612 /~ 8;
#X obj 423 605 /~ 8;
#X obj 470 632 /~ 1;
#X obj 369 667 *~ 0.05;
#X obj 208 318 unpack 0 0;
#X obj 285 503 *~ 1;
#X obj 234 505 *~ 1.01;
#X obj 342 501 *~ 6;
#X obj 382 469 *~ 2;
#X obj 437 444 *~ 2.01;
#X obj 324 476 *~ 6.1;
#X obj 435 557 *~ 4;
#X obj 488 569 *~ 0.5;
#X obj 263 439 *~ 1;
#X obj 104 563 *~;
#X obj 214 202 inlet;
#X obj 115 672 outlet~;
#X obj 244 414 +~;
#X obj 232 367 mtof~;
#X msg 97 483 \$1 3 \, 0 600 3;
#X obj 280 390 *~;
#X obj 280 365 osc~ 3400;
#X obj 332 312 lop~ 5;
#X floatatom 372 238 5 0 0 0 - - -;
#X obj 498 197 hsl 128 15 0 127 0 0 empty empty empty -2 -8 0 10 -262144
-1 -1 7800 1;
#X obj 495 217 mtof;
#X obj 128 592 *~ 200;
#X obj 517 383;
#X connect 0 0 1 0;
#X connect 0 0 1 1;
#X connect 1 0 32 0;
#X connect 1 0 32 1;
#X connect 1 0 44 0;
#X connect 2 0 34 0;
#X connect 3 0 16 0;
#X connect 4 0 5 0;
#X connect 5 0 37 0;
#X connect 6 0 15 0;
#X connect 7 0 19 0;
#X connect 8 0 20 0;
#X connect 9 0 10 0;
#X connect 10 0 21 0;
#X connect 11 0 14 0;
#X connect 12 0 21 0;
#X connect 13 0 12 0;
#X connect 14 0 21 0;
#X connect 15 0 21 0;
#X connect 16 0 21 0;
#X connect 17 0 18 0;
#X connect 18 0 21 0;
#X connect 19 0 21 0;
#X connect 20 0 21 0;
#X connect 21 0 2 1;
#X connect 22 0 36 0;
#X connect 22 1 4 0;
#X connect 23 0 3 0;
#X connect 24 0 17 0;
#X connect 25 0 9 0;
#X connect 26 0 6 0;
#X connect 27 0 11 0;
#X connect 28 0 13 0;
#X connect 29 0 7 0;
#X connect 30 0 8 0;
#X connect 31 0 24 0;
#X connect 31 0 30 0;
#X connect 31 0 29 0;
#X connect 31 0 27 0;
#X connect 31 0 26 0;
#X connect 31 0 25 0;
#X connect 31 0 28 0;
#X connect 31 0 23 0;
#X connect 32 0 2 0;
#X connect 33 0 22 0;
#X connect 35 0 31 0;
#X connect 36 0 35 1;
#X connect 37 0 0 0;
#X connect 38 0 35 0;
#X connect 39 0 38 0;
#X connect 40 0 39 0;
#X connect 41 0 40 0;
#X connect 42 0 43 0;
#X connect 43 0 41 0;
#X connect 44 0 38 1;
#X restore 648 676 pd test-synth;
#X obj 650 647 list prepend 45;
#X obj 203 591 rev1~;
#X floatatom 218 555 0 0 0 0 - - -;
#X obj 273 591 rev1~;
#X floatatom 288 555 0 0 0 0 - - -;
#X obj 135 474 *~ 2;
#X floatatom 782 581 5 0 0 0 - - -;
#X msg 797 354 restart 0;
#X obj 654 568 t a a;
#X msg 702 590 127 \$1;
#X obj 702 611 -;
#X obj 134 668 *~ 1;
#X obj 169 669 *~ 1;
#X msg 391 626 start;
#X msg 393 652 stop;
#X obj 203 716 writesf~ 2;
#X msg 382 570 open -bytes 3 haha125.wav;
#X obj 192 444 list prepend 45;
#X obj 196 365 t a a;
#X msg 244 387 127 \$1;
#X obj 244 408 -;
#X obj 203 612 *~ 0.1;
#X obj 273 612 *~ 0.1;
#X obj 45 396 *~ 0.145;
#X obj 160 510 hip~ 300;
#X connect 0 0 1 0;
#X connect 1 0 4 0;
#X connect 2 0 3 0;
#X connect 4 0 2 0;
#X connect 5 0 20 0;
#X connect 8 0 9 0;
#X connect 9 0 12 0;
#X connect 10 0 11 0;
#X connect 11 0 13 0;
#X connect 11 0 17 1;
#X connect 12 0 10 0;
#X connect 13 0 7 0;
#X connect 14 0 15 0;
#X connect 14 0 17 0;
#X connect 15 0 14 1;
#X connect 16 0 6 0;
#X connect 17 0 18 0;
#X connect 18 0 19 0;
#X connect 19 0 16 0;
#X connect 19 0 22 0;
#X connect 20 0 14 0;
#X connect 22 0 23 0;
#X connect 23 0 21 0;
#X connect 24 0 38 0;
#X connect 25 0 34 0;
#X connect 26 0 25 0;
#X connect 28 0 31 0;
#X connect 29 0 28 1;
#X connect 30 0 28 0;
#X connect 31 0 27 0;
#X connect 31 0 48 0;
#X connect 32 0 27 0;
#X connect 32 0 34 0;
#X connect 33 0 32 0;
#X connect 34 0 70 0;
#X connect 35 0 27 0;
#X connect 36 0 33 0;
#X connect 38 0 34 0;
#X connect 39 0 42 0;
#X connect 40 0 43 0;
#X connect 41 0 40 0;
#X connect 42 0 43 0;
#X connect 43 0 60 0;
#X connect 44 0 43 0;
#X connect 44 0 48 0;
#X connect 45 0 44 0;
#X connect 46 0 47 0;
#X connect 46 0 45 0;
#X connect 47 0 39 0;
#X connect 48 0 49 0;
#X connect 49 0 43 0;
#X connect 49 0 34 0;
#X connect 50 0 75 0;
#X connect 51 0 57 0;
#X connect 52 0 51 0;
#X connect 53 0 73 0;
#X connect 54 0 53 1;
#X connect 55 0 74 0;
#X connect 56 0 55 1;
#X connect 57 0 63 0;
#X connect 57 0 64 0;
#X connect 57 0 76 0;
#X connect 58 0 52 1;
#X connect 59 0 48 0;
#X connect 60 0 52 0;
#X connect 60 1 61 0;
#X connect 61 0 62 0;
#X connect 62 0 52 1;
#X connect 63 0 37 0;
#X connect 63 0 67 0;
#X connect 64 0 37 1;
#X connect 64 0 67 1;
#X connect 65 0 67 0;
#X connect 66 0 67 0;
#X connect 68 0 67 0;
#X connect 69 0 50 0;
#X connect 70 0 69 0;
#X connect 70 1 71 0;
#X connect 71 0 72 0;
#X connect 72 0 69 1;
#X connect 73 0 63 0;
#X connect 74 0 64 0;
#X connect 76 0 53 0;
#X connect 76 0 55 0;
