#N canvas 226 180 1117 741 10;
#X floatatom 44 202 5 0 0 0 - - -;
#X msg 97 231 all \$1;
#X floatatom 97 201 5 0 0 0 - - -;
#X obj 75 47 metro360;
#X floatatom 128 22 5 0 0 0 - - -;
#X obj 75 25 tgl 15 0 empty empty empty 17 7 0 10 -262144 -1 -1 1 1
;
#X msg 76 133 metro \$1;
#X msg 345 155 length \$1;
#X floatatom 208 44 5 0 0 0 - - -;
#X obj 44 301 slider 1 1;
#X obj 262 56 bng 15 250 50 0 empty empty empty 17 7 0 10 -262144 -1
-1;
#X obj 133 693 dac~ 1 2;
#X msg 44 232 size \$1;
#X floatatom 661 424 5 0 0 0 - - -;
#X msg 714 453 all \$1;
#X floatatom 714 423 5 0 0 0 - - -;
#X msg 661 454 size \$1;
#X obj 656 512 slider 1 2;
#X msg 907 260 length \$1;
#X floatatom 918 226 5 0 0 0 - - -;
#X floatatom 709 343 5 0 0 0 - - -;
#X obj 711 391 * 4;
#X obj 919 343 seqer;
#X msg 647 393 metro \$1;
#N canvas 4 50 913 778 test-synth 0;
#X obj 24 499 vline~;
#X obj 24 520 *~;
#X obj 115 651 *~;
#X obj 276 589 osc~ 220;
#X obj 17 419 / 127;
#X obj 17 440 sqrt;
#X obj 386 500 osc~ 440;
#X obj 423 584 osc~ 880;
#X obj 471 611 osc~ 110;
#X obj 335 536 osc~ 1760;
#X obj 442 496 osc~ 440.5;
#X obj 281 544 osc~ 1763;
#X obj 386 521 /~ 4;
#X obj 220 591 osc~ 222;
#X obj 369 667 *~ 0.05;
#X obj 208 318 unpack 0 0;
#X obj 285 503 *~ 1;
#X obj 234 505 *~ 1.01;
#X obj 342 501 *~ 6;
#X obj 382 469 *~ 2;
#X obj 437 444 *~ 2.01;
#X obj 324 476 *~ 6.1;
#X obj 435 557 *~ 4;
#X obj 488 569 *~ 0.5;
#X obj 263 439 *~ 1;
#X obj 24 541 *~;
#X obj 214 202 inlet;
#X obj 115 672 outlet~;
#X obj 244 414 +~;
#X obj 232 367 mtof~;
#X obj 570 522 osc~ 1760;
#X obj 570 592 osc~ 1760;
#X obj 577 487 *~ 7.05;
#X obj 577 557 *~ 9;
#X obj 570 542 /~ 24;
#X obj 635 588 osc~ 1760;
#X obj 703 590 osc~ 1760;
#X obj 251 708 *~;
#X obj 251 729 outlet~;
#X obj 448 692 *~ 0.055;
#X obj 470 632 /~ 1;
#X obj 174 423 vline~;
#X obj 174 444 *~;
#X obj 43 307 / 127;
#X obj 43 328 sqrt;
#X obj 442 517 /~ 8;
#X obj 423 605 /~ 7;
#X obj 281 565 /~ 13;
#X msg 523 313 \$1 1 \, 0 40 1 \, 0.75 45 217;
#X obj 170 542 *~ 700;
#X floatatom 309 386 5 0 0 0 - - -;
#X obj 174 465 *~;
#X obj 276 610 /~ 5;
#X obj 220 612 /~ 5;
#X obj 335 557 /~ 13;
#X obj 43 349 pack 0 0;
#X floatatom 126 266 5 0 0 0 - - -;
#X obj 636 606 /~ 30;
#X obj 571 610 /~ 30;
#X obj 642 553 *~ 9.1;
#X obj 710 555 *~ 9.2;
#X obj 704 608 /~ 30;
#X obj 576 386 osc~ 1760;
#X obj 641 382 osc~ 1760;
#X obj 709 384 osc~ 1760;
#X obj 583 351 *~ 18;
#X obj 648 347 *~ 18.1;
#X obj 716 349 *~ 18.2;
#X obj 577 404 /~ 56;
#X obj 642 400 /~ 56;
#X obj 710 402 /~ 56;
#X msg 17 461 \$1 6 \, 0.75 300 6;
#X obj 174 486 *~;
#X msg 43 378 \$1 1 \, 0 18 1 \, 0.65 45 90 \, 0 56 \$2;
#X connect 0 0 1 0;
#X connect 0 0 1 1;
#X connect 1 0 25 0;
#X connect 1 0 25 1;
#X connect 2 0 27 0;
#X connect 3 0 52 0;
#X connect 4 0 5 0;
#X connect 5 0 71 0;
#X connect 6 0 12 0;
#X connect 7 0 46 0;
#X connect 8 0 40 0;
#X connect 9 0 54 0;
#X connect 10 0 45 0;
#X connect 11 0 47 0;
#X connect 12 0 14 0;
#X connect 12 0 39 0;
#X connect 13 0 53 0;
#X connect 14 0 2 1;
#X connect 15 0 29 0;
#X connect 15 1 4 0;
#X connect 15 1 43 0;
#X connect 16 0 3 0;
#X connect 17 0 13 0;
#X connect 18 0 9 0;
#X connect 19 0 6 0;
#X connect 20 0 10 0;
#X connect 21 0 11 0;
#X connect 22 0 7 0;
#X connect 23 0 8 0;
#X connect 24 0 17 0;
#X connect 24 0 23 0;
#X connect 24 0 22 0;
#X connect 24 0 20 0;
#X connect 24 0 19 0;
#X connect 24 0 18 0;
#X connect 24 0 21 0;
#X connect 24 0 16 0;
#X connect 24 0 32 0;
#X connect 24 0 33 0;
#X connect 24 0 59 0;
#X connect 24 0 60 0;
#X connect 24 0 65 0;
#X connect 24 0 66 0;
#X connect 24 0 67 0;
#X connect 25 0 2 0;
#X connect 25 0 37 0;
#X connect 26 0 15 0;
#X connect 28 0 24 0;
#X connect 29 0 28 1;
#X connect 30 0 34 0;
#X connect 31 0 58 0;
#X connect 32 0 30 0;
#X connect 33 0 31 0;
#X connect 34 0 14 0;
#X connect 34 0 39 0;
#X connect 35 0 57 0;
#X connect 36 0 61 0;
#X connect 37 0 38 0;
#X connect 39 0 37 1;
#X connect 40 0 14 0;
#X connect 40 0 39 0;
#X connect 41 0 42 0;
#X connect 41 0 42 1;
#X connect 42 0 51 0;
#X connect 42 0 51 1;
#X connect 43 0 44 0;
#X connect 44 0 55 0;
#X connect 45 0 14 0;
#X connect 45 0 39 0;
#X connect 46 0 14 0;
#X connect 47 0 14 0;
#X connect 50 0 49 1;
#X connect 51 0 72 0;
#X connect 51 0 72 1;
#X connect 52 0 14 0;
#X connect 53 0 14 0;
#X connect 53 0 39 0;
#X connect 54 0 14 0;
#X connect 54 0 39 0;
#X connect 55 0 73 0;
#X connect 56 0 55 1;
#X connect 57 0 14 0;
#X connect 58 0 39 0;
#X connect 59 0 35 0;
#X connect 60 0 36 0;
#X connect 61 0 39 0;
#X connect 62 0 68 0;
#X connect 63 0 69 0;
#X connect 64 0 70 0;
#X connect 65 0 62 0;
#X connect 66 0 63 0;
#X connect 67 0 64 0;
#X connect 68 0 14 0;
#X connect 69 0 39 0;
#X connect 70 0 39 0;
#X connect 71 0 0 0;
#X connect 72 0 49 0;
#X connect 73 0 41 0;
#X restore 648 676 pd test-synth;
#X obj 650 647 list prepend 45;
#X obj 203 591 rev1~;
#X floatatom 218 555 0 0 0 0 - - -;
#X obj 273 591 rev1~;
#X floatatom 288 555 0 0 0 0 - - -;
#X obj 135 474 *~ 2;
#X floatatom 782 581 5 0 0 0 - - -;
#X msg 936 289 restart 0;
#X obj 654 568 t a a;
#X msg 702 590 127 \$1;
#X obj 702 611 -;
#X msg 391 626 start;
#X msg 393 652 stop;
#X obj 203 716 writesf~ 2;
#X obj 192 444 list prepend 45;
#X obj 196 365 t a a;
#X msg 244 387 127 \$1;
#X obj 244 408 -;
#X obj 203 612 *~ 0.1;
#X obj 273 612 *~ 0.1;
#X obj 190 527 hip~ 300;
#X obj 163 11 loadbang;
#X msg 163 32 120;
#X obj 376 481 lop~ 5;
#X obj 376 502 *~;
#X obj 134 668 *~, f 5;
#X obj 200 663 *~, f 7;
#X obj 369 417 hsl 128 15 0 127 0 0 empty empty empty -2 -8 0 10 -262144
-1 -1 12700 1;
#X obj 337 450 / 127;
#X obj 528 189 lop~ 5;
#X obj 528 210 *~;
#X obj 521 125 hsl 128 15 0 127 0 0 empty empty empty -2 -8 0 10 -262144
-1 -1 0 1;
#X obj 489 158 / 127;
#X obj 648 697 *~;
#X obj 943 670 lop~ 5;
#X obj 943 691 *~;
#X obj 946 606 hsl 128 15 0 127 0 0 empty empty empty -2 -8 0 10 -262144
-1 -1 12700 1;
#X obj 943 639 / 127;
#X obj 719 705 *~;
#X obj 185 475 *~ 2;
#X msg 382 570 open -bytes 3 pooo00130.wav;
#X connect 0 0 12 0;
#X connect 1 0 9 0;
#X connect 2 0 1 0;
#X connect 3 0 6 0;
#X connect 4 0 3 1;
#X connect 5 0 3 0;
#X connect 6 0 22 0;
#X connect 7 0 9 0;
#X connect 8 0 7 0;
#X connect 9 0 40 0;
#X connect 10 0 8 0;
#X connect 12 0 9 0;
#X connect 13 0 16 0;
#X connect 14 0 17 0;
#X connect 15 0 14 0;
#X connect 16 0 17 0;
#X connect 17 0 33 0;
#X connect 18 0 17 0;
#X connect 18 0 22 0;
#X connect 19 0 18 0;
#X connect 20 0 21 0;
#X connect 20 0 19 0;
#X connect 21 0 13 0;
#X connect 22 0 23 0;
#X connect 23 0 17 0;
#X connect 23 0 9 0;
#X connect 24 0 58 0;
#X connect 24 1 63 0;
#X connect 25 0 24 0;
#X connect 26 0 43 0;
#X connect 27 0 26 1;
#X connect 28 0 44 0;
#X connect 29 0 28 1;
#X connect 30 0 45 0;
#X connect 30 0 50 0;
#X connect 31 0 25 1;
#X connect 32 0 22 0;
#X connect 33 0 25 0;
#X connect 33 1 34 0;
#X connect 34 0 35 0;
#X connect 35 0 25 1;
#X connect 36 0 38 0;
#X connect 37 0 38 0;
#X connect 40 0 39 0;
#X connect 40 1 41 0;
#X connect 41 0 42 0;
#X connect 42 0 39 1;
#X connect 43 0 50 0;
#X connect 44 0 51 0;
#X connect 45 0 26 0;
#X connect 45 0 28 0;
#X connect 46 0 47 0;
#X connect 47 0 4 0;
#X connect 48 0 49 0;
#X connect 48 0 49 1;
#X connect 49 0 51 1;
#X connect 49 0 50 1;
#X connect 50 0 11 0;
#X connect 50 0 38 0;
#X connect 51 0 11 1;
#X connect 51 0 38 1;
#X connect 52 0 53 0;
#X connect 53 0 48 0;
#X connect 54 0 55 0;
#X connect 54 0 55 1;
#X connect 56 0 57 0;
#X connect 57 0 54 0;
#X connect 58 0 30 0;
#X connect 59 0 60 0;
#X connect 59 0 60 1;
#X connect 60 0 58 1;
#X connect 60 0 63 1;
#X connect 61 0 62 0;
#X connect 62 0 59 0;
#X connect 63 0 64 0;
#X connect 64 0 51 0;
#X connect 65 0 38 0;
