#N canvas 194 138 775 555 10;
#X obj 526 21 hsl 128 15 0 127 0 0 empty empty empty -2 -8 0 10 -262144
-1 -1 700 1;
#X obj 494 54 / 127;
#X obj 494 98 i;
#X obj 494 120 + 1;
#X obj 494 76 * 15;
#X obj 518 178 tgl 15 0 empty empty empty 17 7 0 10 -262144 -1 -1 0
1;
#X obj 66 62 rebeccas 1;
#X obj 522 456 s rstep-1;
#X msg 20 37 amt 4;
#X obj 657 173 s rstep-1;
#X msg 64 23 size 4;
#X obj 644 39 hsl 128 15 0 127 0 0 empty empty empty -2 -8 0 10 -262144
-1 -1 11900 1;
#X obj 656 59 / 127;
#X obj 656 103 i;
#X obj 656 125 + 1;
#X obj 656 81 * 15;
#X msg 656 146 size \$1;
#X msg 123 27 size 16;
#X obj 506 230 f;
#X obj 536 232 + 1;
#X msg 482 330 step \$1;
#X obj 506 251 %, f 13;
#X obj 506 272 + 1;
#X floatatom 506 293 5 0 0 0 - - -;
#X obj 506 209 metro 250;
#X obj 70 112 rebeccas 2;
#X msg 216 243 size 4;
#X obj 558 388 s rstep-2;
#X obj 552 346 % 4;
#X msg 559 369 step \$1;
#X connect 0 0 1 0;
#X connect 1 0 4 0;
#X connect 2 0 3 0;
#X connect 4 0 2 0;
#X connect 5 0 24 0;
#X connect 10 0 6 0;
#X connect 11 0 12 0;
#X connect 12 0 15 0;
#X connect 13 0 14 0;
#X connect 14 0 16 0;
#X connect 14 0 21 1;
#X connect 15 0 13 0;
#X connect 16 0 9 0;
#X connect 17 0 6 0;
#X connect 18 0 19 0;
#X connect 18 0 21 0;
#X connect 19 0 18 1;
#X connect 20 0 7 0;
#X connect 21 0 22 0;
#X connect 22 0 23 0;
#X connect 23 0 20 0;
#X connect 23 0 28 0;
#X connect 24 0 18 0;
#X connect 26 0 25 0;
#X connect 28 0 29 0;
#X connect 29 0 27 0;
