#N canvas 386 202 1212 697 10;
#X obj 462 373 *~ 0.5;
#X obj 462 395 cos~;
#X obj 462 351 -~ 0.5;
#X obj 463 324 *~, f 32;
#X obj 463 262 expr~ if ($v1 > $v2 \, 0 \, $v1);
#X obj 683 271 sig~ 1;
#X obj 683 293 /~, f 14;
#X obj 656 204 *~ 1;
#X text 92 59 pulse width top half sine;
#X obj 462 417 outlet~;
#X obj 657 72 inlet~ 0-1 pulse width;
#X obj 464 73 inlet~ freq;
#X obj 463 208 phasor~;
#X connect 0 0 1 0;
#X connect 1 0 9 0;
#X connect 2 0 0 0;
#X connect 3 0 2 0;
#X connect 4 0 3 0;
#X connect 5 0 6 0;
#X connect 6 0 3 1;
#X connect 7 0 4 1;
#X connect 7 0 6 1;
#X connect 10 0 7 0;
#X connect 11 0 12 0;
#X connect 12 0 4 0;
