#N canvas 427 286 683 447 10;
#X floatatom 202 35 5 0 0 0 - - -;
#X obj 204 54 expr 60000 / $f1;
#X obj 220 322 1-drum, f 15;
#X obj 202 76 / 4;
#X floatatom 202 97 5 0 0 0 - - -;
#X obj 103 86 metro;
#X obj 92 53 tgl 15 0 empty empty empty 17 7 0 10 -262144 -1 -1 0 1
;
#X obj 101 132 f;
#X obj 132 133 + 1;
#X obj 101 153 % 16;
#X obj 236 393 dac~ 1 2;
#X obj 229 342 *~ 1;
#X obj 270 341 *~ 1;
#X obj 336 399 writesf~ 2;
#X msg 476 322 start;
#X msg 478 348 stop;
#X obj 298 159 osc~ 1;
#X obj 275 111 expr 1000 / $f1;
#X obj 250 8 bng 15 250 50 0 empty empty empty 17 7 0 10 -262144 -1
-1;
#X floatatom 275 132 5 0 0 0 - - -;
#X obj 43 186 + 1;
#X obj 16 246 sel 0;
#X obj 16 225 % 12;
#X obj 11 186 f 0;
#X msg 20 134 0;
#X obj 299 181 *~ 7;
#X floatatom 364 156 5 0 0 0 - - -;
#X obj 298 200 +~ 32;
#X msg 88 221 127;
#X msg 386 84 0;
#X msg 125 221 100;
#X obj 136 249 spigot 0;
#X obj 172 225 tgl 15 0 empty empty empty 17 7 0 10 -262144 -1 -1 0
1;
#X obj 210 251 spigot 0;
#X obj 246 227 tgl 15 0 empty empty empty 17 7 0 10 -262144 -1 -1 0
1;
#X msg 398 129 45;
#X msg 430 127 0;
#X floatatom 50 228 5 0 0 0 - - -;
#X obj 197 211 spigot 0;
#X obj 233 187 tgl 15 0 empty empty empty 17 7 0 10 -262144 -1 -1 0
1;
#X msg 197 232 112;
#X obj 105 180 sel 0 3 8 11 13;
#X msg 439 158 4;
#X msg 458 111 12;
#N canvas 0 23 450 300 count 0;
#X obj 87 19 inlet;
#X obj 87 44 sel 0;
#X obj 118 75 + 1;
#X obj 87 74 f 0;
#X obj 156 -1 inlet restart;
#X obj 156 20 t b;
#X msg 156 41 0;
#X obj 87 124 sel 16 32 48 64 80, f 31;
#X msg 87 145 0;
#X msg 117 157 1;
#X msg 154 169 2;
#X msg 199 179 3;
#X msg 271 189 4;
#X obj 89 252 outlet;
#X connect 0 0 1 0;
#X connect 1 0 3 0;
#X connect 2 0 3 1;
#X connect 3 0 2 0;
#X connect 3 0 7 0;
#X connect 4 0 5 0;
#X connect 5 0 6 0;
#X connect 6 0 3 1;
#X connect 7 0 8 0;
#X connect 7 1 9 0;
#X connect 7 2 10 0;
#X connect 7 3 11 0;
#X connect 7 4 12 0;
#X connect 8 0 13 0;
#X connect 9 0 13 0;
#X connect 10 0 13 0;
#X connect 11 0 13 0;
#X connect 12 0 13 0;
#X restore 168 139 pd count;
#X obj 202 114 bng 15 250 50 0 empty empty empty 17 7 0 10 -262144
-1 -1;
#N canvas 0 23 450 300 actions 0;
#X obj 37 37 inlet;
#X obj 36 68 sel 0 1 2 3 4, f 50;
#X msg 30 200 1;
#X obj 30 219 outlet;
#X msg 95 193 1;
#X obj 95 214 outlet;
#X msg 158 191 1;
#X obj 158 212 outlet;
#X msg 221 97 0;
#X msg 276 100 1;
#X connect 0 0 1 0;
#X connect 1 0 2 0;
#X connect 1 1 4 0;
#X connect 1 2 6 0;
#X connect 1 3 8 0;
#X connect 1 4 9 0;
#X connect 2 0 3 0;
#X connect 4 0 5 0;
#X connect 6 0 7 0;
#X connect 8 0 3 0;
#X connect 8 0 7 0;
#X connect 8 0 5 0;
#X connect 9 0 3 0;
#X connect 9 0 5 0;
#X restore 212 166 pd actions;
#X msg 343 241 open -bytes 3 125huh-68.wav;
#X obj 249 91 * 4;
#X connect 0 0 1 0;
#X connect 1 0 3 0;
#X connect 1 0 48 0;
#X connect 2 0 11 0;
#X connect 2 1 12 0;
#X connect 3 0 4 0;
#X connect 3 0 5 1;
#X connect 5 0 7 0;
#X connect 5 0 23 0;
#X connect 6 0 5 0;
#X connect 7 0 8 0;
#X connect 7 0 9 0;
#X connect 8 0 7 1;
#X connect 9 0 41 0;
#X connect 9 0 44 0;
#X connect 11 0 10 0;
#X connect 11 0 13 0;
#X connect 12 0 10 1;
#X connect 12 0 13 1;
#X connect 14 0 13 0;
#X connect 15 0 13 0;
#X connect 16 0 25 0;
#X connect 17 0 19 0;
#X connect 18 0 0 0;
#X connect 19 0 16 0;
#X connect 20 0 23 1;
#X connect 21 0 2 2;
#X connect 22 0 21 0;
#X connect 23 0 20 0;
#X connect 23 0 22 0;
#X connect 24 0 23 1;
#X connect 25 0 27 0;
#X connect 26 0 25 1;
#X connect 27 0 2 3;
#X connect 28 0 33 0;
#X connect 29 0 16 1;
#X connect 30 0 31 0;
#X connect 31 0 2 0;
#X connect 32 0 31 1;
#X connect 33 0 2 0;
#X connect 34 0 33 1;
#X connect 35 0 26 0;
#X connect 36 0 26 0;
#X connect 37 0 22 1;
#X connect 38 0 40 0;
#X connect 39 0 38 1;
#X connect 40 0 2 0;
#X connect 41 0 28 0;
#X connect 41 1 30 0;
#X connect 41 2 28 0;
#X connect 41 3 30 0;
#X connect 41 4 38 0;
#X connect 42 0 26 0;
#X connect 43 0 26 0;
#X connect 44 0 46 0;
#X connect 45 0 44 1;
#X connect 46 0 32 0;
#X connect 46 1 34 0;
#X connect 46 2 39 0;
#X connect 47 0 13 0;
#X connect 48 0 17 0;
