#N canvas 427 286 683 447 10;
#X floatatom 202 35 5 0 0 0 - - -;
#X obj 204 54 expr 60000 / $f1;
#X obj 220 322 1-drum, f 15;
#X obj 202 76 / 4;
#X floatatom 202 97 5 0 0 0 - - -;
#X obj 103 69 metro;
#X obj 93 36 tgl 15 0 empty empty empty 17 7 0 10 -262144 -1 -1 0 1
;
#X obj 101 115 f;
#X obj 132 116 + 1;
#X obj 236 393 dac~ 1 2;
#X obj 229 342 *~ 1;
#X obj 270 341 *~ 1;
#X obj 336 399 writesf~ 2;
#X msg 476 322 start;
#X msg 478 348 stop;
#X obj 298 159 osc~ 1;
#X obj 275 111 expr 1000 / $f1;
#X obj 250 8 bng 15 250 50 0 empty empty empty 17 7 0 10 -262144 -1
-1;
#X floatatom 275 132 5 0 0 0 - - -;
#X obj 299 181 *~ 7;
#X floatatom 364 156 5 0 0 0 - - -;
#X obj 298 200 +~ 32;
#X msg 386 84 0;
#X msg 398 129 45;
#X msg 430 127 0;
#X msg 439 158 4;
#X msg 458 111 12;
#N canvas 0 23 450 300 actions 0;
#X obj 37 37 inlet;
#X obj 36 68 sel 0 1 2 3 4, f 50;
#X msg 30 200 1;
#X obj 30 219 outlet;
#X msg 95 193 1;
#X obj 95 214 outlet;
#X msg 158 191 1;
#X obj 158 212 outlet;
#X msg 221 97 0;
#X msg 276 100 1;
#X connect 0 0 1 0;
#X connect 1 0 2 0;
#X connect 1 1 4 0;
#X connect 1 2 6 0;
#X connect 1 3 8 0;
#X connect 1 4 9 0;
#X connect 2 0 3 0;
#X connect 4 0 5 0;
#X connect 6 0 7 0;
#X connect 8 0 3 0;
#X connect 8 0 7 0;
#X connect 8 0 5 0;
#X connect 9 0 3 0;
#X connect 9 0 5 0;
#X restore 564 51 pd actions;
#X obj 249 91 * 1;
#X obj 101 136 % 32;
#N canvas 0 23 450 300 count 0;
#X obj 87 19 inlet;
#X obj 87 44 sel 0;
#X obj 118 75 + 1;
#X obj 87 74 f 0;
#X obj 156 -1 inlet restart;
#X obj 156 20 t b;
#X msg 156 41 0;
#X obj 87 124 sel 16 32 48 64 80, f 31;
#X msg 87 145 0;
#X msg 117 157 1;
#X msg 154 169 2;
#X msg 199 179 3;
#X msg 271 189 4;
#X obj 89 252 outlet;
#X connect 0 0 1 0;
#X connect 1 0 3 0;
#X connect 2 0 3 1;
#X connect 3 0 2 0;
#X connect 3 0 7 0;
#X connect 4 0 5 0;
#X connect 5 0 6 0;
#X connect 6 0 3 1;
#X connect 7 0 8 0;
#X connect 7 1 9 0;
#X connect 7 2 10 0;
#X connect 7 3 11 0;
#X connect 7 4 12 0;
#X connect 8 0 13 0;
#X connect 9 0 13 0;
#X connect 10 0 13 0;
#X connect 11 0 13 0;
#X connect 12 0 13 0;
#X restore 575 26 pd count;
#X obj 46 250 spigot 0;
#X obj 92 232 tgl 15 0 empty empty empty 17 7 0 10 -262144 -1 -1 0
1;
#X msg 46 271 127;
#X obj 127 253 spigot 0;
#X obj 173 235 tgl 15 0 empty empty empty 17 7 0 10 -262144 -1 -1 0
1;
#X msg 127 274 127;
#X obj 196 250 spigot 0;
#X obj 243 231 tgl 15 0 empty empty empty 17 7 0 10 -262144 -1 -1 1
1;
#X msg 196 271 127;
#X obj 277 253 spigot 0;
#X obj 323 235 tgl 15 0 empty empty empty 17 7 0 10 -262144 -1 -1 0
1;
#X msg 277 274 127;
#X floatatom 156 144 5 0 0 0 - - -;
#X obj 72 210 del 20;
#X obj 135 209 del 10;
#X obj 43 179 sel 0 3 6 9 16 20 24 28, f 40;
#X msg 343 241 open -bytes 3 125huh-hmmmm.wav;
#X obj 225 207 del 20;
#X connect 0 0 1 0;
#X connect 1 0 3 0;
#X connect 1 0 28 0;
#X connect 2 0 10 0;
#X connect 2 1 11 0;
#X connect 3 0 4 0;
#X connect 3 0 5 1;
#X connect 5 0 7 0;
#X connect 6 0 5 0;
#X connect 7 0 8 0;
#X connect 7 0 29 0;
#X connect 8 0 7 1;
#X connect 10 0 9 0;
#X connect 10 0 12 0;
#X connect 11 0 9 1;
#X connect 11 0 12 1;
#X connect 13 0 12 0;
#X connect 14 0 12 0;
#X connect 15 0 19 0;
#X connect 16 0 18 0;
#X connect 17 0 0 0;
#X connect 18 0 15 0;
#X connect 19 0 21 0;
#X connect 20 0 19 1;
#X connect 21 0 2 3;
#X connect 22 0 15 1;
#X connect 23 0 20 0;
#X connect 24 0 20 0;
#X connect 25 0 20 0;
#X connect 26 0 20 0;
#X connect 28 0 16 0;
#X connect 29 0 43 0;
#X connect 29 0 46 0;
#X connect 31 0 33 0;
#X connect 32 0 31 1;
#X connect 33 0 2 0;
#X connect 34 0 36 0;
#X connect 35 0 34 1;
#X connect 36 0 2 0;
#X connect 37 0 39 0;
#X connect 38 0 37 1;
#X connect 39 0 2 0;
#X connect 40 0 42 0;
#X connect 41 0 40 1;
#X connect 42 0 2 0;
#X connect 44 0 31 0;
#X connect 45 0 34 0;
#X connect 46 0 31 0;
#X connect 46 1 44 0;
#X connect 46 2 37 0;
#X connect 46 3 45 0;
#X connect 46 4 34 0;
#X connect 46 5 31 0;
#X connect 46 6 37 0;
#X connect 46 7 48 0;
#X connect 47 0 12 0;
#X connect 48 0 37 0;
