#N canvas 290 319 900 440 10;
#X obj 24 36 loadbang;
#X text 173 77 Arg3: File Path to Sample Folder;
#X obj 24 273 soundfiler;
#X obj 24 89 symbol \$3;
#X obj 24 57 t b b b, f 15;
#X obj 24 304 t a b, f 21;
#X obj 403 25 inlet;
#X obj 403 118 openpanel;
#X obj 403 359 pack s s;
#X obj 403 299 t a b;
#X msg 24 207 read -resize \$1/\$3.wav \$2;
#X msg 403 396 read -resize \$1 \$2;
#X text 173 37 Arg1: Indvivdual Sample Number;
#X text 173 57 Arg2: Sample Bank Name;
#X obj 542 25 array define \$2-\$1;
#X obj 448 333 symbol \$2-\$1;
#X obj 55 131 symbol \$2-\$1;
#X obj 24 170 pack s s \$1;
#X obj 542 49 array define \$2-\$1-length;
#X obj 24 361 tabwrite \$2-\$1-length;
#X msg 147 331 0;
#X obj 559 316 textfile;
#X obj 559 258 list trim;
#X msg 577 286 clear;
#X obj 403 139 t a b a b, f 29;
#X obj 420 198 symbol \$3;
#X obj 420 219 pack s \$1;
#X msg 420 256 write \$1/path\$2.txt;
#X obj 403 62 route read read-past;
#X obj 559 237 list prepend add;
#X obj 537 191 symbol;
#X text 565 96 figure out some way to save the last path;
#X connect 0 0 4 0;
#X connect 2 0 5 0;
#X connect 3 0 17 0;
#X connect 4 0 3 0;
#X connect 4 1 16 0;
#X connect 5 0 19 0;
#X connect 5 1 20 0;
#X connect 6 0 28 0;
#X connect 7 0 24 0;
#X connect 8 0 11 0;
#X connect 9 0 8 0;
#X connect 9 1 15 0;
#X connect 10 0 2 0;
#X connect 11 0 2 0;
#X connect 15 0 8 1;
#X connect 16 0 17 1;
#X connect 17 0 10 0;
#X connect 20 0 19 1;
#X connect 22 0 21 0;
#X connect 23 0 21 0;
#X connect 24 0 9 0;
#X connect 24 1 25 0;
#X connect 24 2 30 0;
#X connect 24 3 23 0;
#X connect 25 0 26 0;
#X connect 26 0 27 0;
#X connect 27 0 21 0;
#X connect 28 0 7 0;
#X connect 29 0 22 0;
#X connect 30 0 29 0;
