#N canvas 361 298 654 380 10;
#X obj 24 36 loadbang;
#X obj 492 25 array define \$1-\$2L;
#X obj 492 55 array define \$1-\$2R;
#X text 173 37 Arg1: Sample Bank Name;
#X text 173 57 Arg2: Indvivdual Sample Number;
#X text 173 77 Arg3: File Path to Sample Folder;
#X obj 24 243 soundfiler;
#X obj 24 89 symbol \$3;
#X obj 49 111 symbol \$1-\$2L;
#X obj 75 136 symbol \$1-\$2R;
#X obj 24 170 pack s s s \$2;
#X obj 24 57 t b b b, f 15;
#X msg 24 207 read \$1/\$4.wav \$2 \$3;
#X obj 24 321 tabwrite \$1-lengths;
#X obj 24 264 t a b;
#X obj 51 288 f \$2;
#X obj 403 25 inlet;
#X obj 403 78 openpanel;
#X msg 403 236 read \$1 \$2 \$3;
#X obj 403 199 pack s s s;
#X obj 403 99 t a b b;
#X obj 448 158 symbol \$1-\$2R;
#X obj 432 134 symbol \$1-\$2L;
#X connect 0 0 11 0;
#X connect 6 0 14 0;
#X connect 7 0 10 0;
#X connect 8 0 10 1;
#X connect 9 0 10 2;
#X connect 10 0 12 0;
#X connect 11 0 7 0;
#X connect 11 1 8 0;
#X connect 11 2 9 0;
#X connect 12 0 6 0;
#X connect 14 0 13 0;
#X connect 14 1 15 0;
#X connect 15 0 13 1;
#X connect 16 0 17 0;
#X connect 17 0 20 0;
#X connect 18 0 6 0;
#X connect 19 0 18 0;
#X connect 20 0 19 0;
#X connect 20 1 22 0;
#X connect 20 2 21 0;
#X connect 21 0 19 2;
#X connect 22 0 19 1;
