#N canvas 278 160 896 629 10;
#X obj 66 400 dac~ 1 2;
#X msg 37 25 1;
#X msg 237 1 1;
#X msg 268 2 0;
#X msg 69 27 0;
#X obj 247 518 writesf~ 2;
#X msg 313 447 start;
#X msg 315 473 stop;
#X obj 257 37 metro 2000;
#X obj 152 5 tgl 15 0 empty empty empty 17 7 0 10 -262144 -1 -1 1 1
;
#X msg 247 418 open -bytes 3 foo2.wav;
#X obj 67 71 metro 200;
#X obj 272 184 sel 0;
#X obj 257 108 % 1;
#X floatatom 327 115 5 0 0 0 - - -;
#X floatatom 327 225 5 0 0 0 - - -;
#X obj 255 57 f;
#X obj 282 60 + 1;
#X obj 41 233 sel 0;
#X obj 61 161 % 1;
#X floatatom 101 137 5 0 0 0 - - -;
#X obj 59 110 f;
#X obj 86 113 + 1;
#X obj 615 262 makenote 0 100 100;
#X obj 614 111 unpack 0 0;
#X obj 615 283 pack 0 0;
#X floatatom 718 142 5 0 0 0 - - -;
#X floatatom 189 174 5 0 0 0 - - -;
#X msg 189 194 fb-1 \$1;
#X floatatom 137 241 5 0 0 0 - - -;
#X msg 98 22 500;
#X obj 183 370 hip~ 5;
#X obj 66 371 hip~ 5;
#X msg 333 8 125;
#X obj 340 79 sel 0;
#X obj 340 57 % 1;
#X floatatom 367 42 5 0 0 0 - - -;
#X obj 614 174 mtof;
#X obj 615 199 * 2;
#X obj 615 236 ftom;
#X obj 335 156 * 1;
#X text 250 316 lop filter;
#X obj 137 220 / 8;
#X obj 137 199 / 3;
#X obj 389 142 + 1;
#X obj 614 132 +;
#X floatatom 648 82 5 0 0 0 - - -;
#X msg 152 41 333;
#X msg 366 14 666;
#X obj 168 323 lop~ 16000;
#X obj 69 315 lop~ 16000;
#X obj 62 278 my-FM FM-Presets/FB-1 8;
#X msg 605 48 55 120 \, 55.15 120 \, 58 100 \, 60 100;
#X connect 1 0 11 0;
#X connect 2 0 8 0;
#X connect 3 0 8 0;
#X connect 4 0 11 0;
#X connect 6 0 5 0;
#X connect 7 0 5 0;
#X connect 8 0 16 0;
#X connect 9 0 11 0;
#X connect 9 0 8 0;
#X connect 10 0 5 0;
#X connect 11 0 21 0;
#X connect 13 0 12 0;
#X connect 13 0 15 0;
#X connect 13 0 44 0;
#X connect 14 0 13 1;
#X connect 16 0 17 0;
#X connect 16 0 13 0;
#X connect 16 0 35 0;
#X connect 17 0 16 1;
#X connect 18 0 16 0;
#X connect 19 0 18 0;
#X connect 19 0 43 0;
#X connect 20 0 19 1;
#X connect 21 0 22 0;
#X connect 21 0 19 0;
#X connect 22 0 21 1;
#X connect 23 0 25 0;
#X connect 23 1 25 1;
#X connect 24 0 45 0;
#X connect 24 1 23 1;
#X connect 25 0 51 0;
#X connect 26 0 23 2;
#X connect 27 0 28 0;
#X connect 28 0 51 1;
#X connect 30 0 11 1;
#X connect 31 0 0 1;
#X connect 31 0 5 1;
#X connect 32 0 0 0;
#X connect 32 0 5 0;
#X connect 33 0 8 1;
#X connect 34 0 52 0;
#X connect 35 0 34 0;
#X connect 36 0 35 1;
#X connect 37 0 38 0;
#X connect 38 0 39 0;
#X connect 39 0 23 0;
#X connect 40 0 38 1;
#X connect 42 0 29 0;
#X connect 43 0 42 0;
#X connect 44 0 40 0;
#X connect 45 0 37 0;
#X connect 46 0 45 1;
#X connect 47 0 11 1;
#X connect 48 0 8 1;
#X connect 49 0 31 0;
#X connect 50 0 32 0;
#X connect 51 0 50 0;
#X connect 51 1 49 0;
#X connect 52 0 24 0;
