#N canvas 237 92 1375 770 10;
#X obj 251 236 until;
#X msg 405 247 0;
#X obj 251 258 f;
#X obj 288 260 + 1;
#X obj 251 211 t a b b, f 29;
#X obj 298 325 * 3;
#X obj 370 307 * 3;
#X obj 370 329 + 1;
#X obj 399 308 * 3;
#X obj 399 330 + 2;
#X obj 460 323 + 1;
#X obj 249 315 * 19;
#X obj 249 338 + 4;
#X obj 4 -7 cnv 15 316 60 empty empty empty 20 12 0 14 -128992 -66577
0;
#X obj 25 385 list append;
#X obj 25 447 list trim;
#X obj 25 216 t a a b;
#X obj 25 282 t a b;
#X obj 95 298 t a b;
#X obj 71 254 f 0;
#X msg 190 333 0 2 2;
#X msg 57 331 -1.45966e+07 2 2;
#X obj 448 -8 inlet messages;
#X obj 467 18 r rstep-\$1;
#X obj 448 48 route amt step, f 51;
#X text 719 150 localize all the messages so this object can be used
a bunch;
#X msg 451 237 \; pd-toggles clear;
#N canvas 1305 65 450 300 toggles 0;
#X obj 4 5 tgl 15 0 empty empty empty 17 7 0 10 -262144 -66577 -66577
0 1;
#X obj 4 20 send snd-1-1;
#X obj 4 -5 receive rcv-1-1;
#X obj 23 5 tgl 15 0 empty empty empty 17 7 0 10 -262144 -66577 -66577
0 1;
#X obj 23 20 send snd-1-2;
#X obj 23 -5 receive rcv-1-2;
#X obj 42 5 tgl 15 0 empty empty empty 17 7 0 10 -262144 -66577 -66577
0 1;
#X obj 42 20 send snd-1-3;
#X obj 42 -5 receive rcv-1-3;
#X obj 61 5 tgl 15 0 empty empty empty 17 7 0 10 -262144 -66577 -66577
0 1;
#X obj 61 20 send snd-1-4;
#X obj 61 -5 receive rcv-1-4;
#X obj 80 5 tgl 15 0 empty empty empty 17 7 0 10 -262144 -66577 -66577
0 1;
#X obj 80 20 send snd-1-5;
#X obj 80 -5 receive rcv-1-5;
#X obj 99 5 tgl 15 0 empty empty empty 17 7 0 10 -262144 -66577 -66577
0 1;
#X obj 99 20 send snd-1-6;
#X obj 99 -5 receive rcv-1-6;
#X obj 118 5 tgl 15 0 empty empty empty 17 7 0 10 -228286 -66577 -66577
0 1;
#X obj 118 20 send snd-1-7;
#X obj 118 -5 receive rcv-1-7;
#X obj 137 5 tgl 15 0 empty empty empty 17 7 0 10 -262144 -66577 -66577
0 1;
#X obj 137 20 send snd-1-8;
#X obj 137 -5 receive rcv-1-8;
#X obj 156 5 tgl 15 0 empty empty empty 17 7 0 10 -262144 -66577 -66577
0 1;
#X obj 156 20 send snd-1-9;
#X obj 156 -5 receive rcv-1-9;
#X obj 175 5 tgl 15 0 empty empty empty 17 7 0 10 -262144 -66577 -66577
0 1;
#X obj 175 20 send snd-1-10;
#X obj 175 -5 receive rcv-1-10;
#X obj 194 5 tgl 15 0 empty empty empty 17 7 0 10 -262144 -66577 -66577
0 1;
#X obj 194 20 send snd-1-11;
#X obj 194 -5 receive rcv-1-11;
#X obj 213 5 tgl 15 0 empty empty empty 17 7 0 10 -262144 -66577 -66577
0 1;
#X obj 213 20 send snd-1-12;
#X obj 213 -5 receive rcv-1-12;
#X obj 232 5 tgl 15 0 empty empty empty 17 7 0 10 -262144 -66577 -66577
0 1;
#X obj 232 20 send snd-1-13;
#X obj 232 -5 receive rcv-1-13;
#X obj 251 5 tgl 15 0 empty empty empty 17 7 0 10 -262144 -66577 -66577
0 1;
#X obj 251 20 send snd-1-14;
#X obj 251 -5 receive rcv-1-14;
#X obj 270 5 tgl 15 0 empty empty empty 17 7 0 10 -262144 -66577 -66577
0 1;
#X obj 270 20 send snd-1-15;
#X obj 270 -5 receive rcv-1-15;
#X obj 289 5 tgl 15 0 empty empty empty 17 7 0 10 -262144 -66577 -66577
0 1;
#X obj 289 20 send snd-1-16;
#X obj 289 -5 receive rcv-1-16;
#X connect 0 0 1 0;
#X connect 2 0 0 0;
#X connect 3 0 4 0;
#X connect 5 0 3 0;
#X connect 6 0 7 0;
#X connect 8 0 6 0;
#X connect 9 0 10 0;
#X connect 11 0 9 0;
#X connect 12 0 13 0;
#X connect 14 0 12 0;
#X connect 15 0 16 0;
#X connect 17 0 15 0;
#X connect 18 0 19 0;
#X connect 20 0 18 0;
#X connect 21 0 22 0;
#X connect 23 0 21 0;
#X connect 24 0 25 0;
#X connect 26 0 24 0;
#X connect 27 0 28 0;
#X connect 29 0 27 0;
#X connect 30 0 31 0;
#X connect 32 0 30 0;
#X connect 33 0 34 0;
#X connect 35 0 33 0;
#X connect 36 0 37 0;
#X connect 38 0 36 0;
#X connect 39 0 40 0;
#X connect 41 0 39 0;
#X connect 42 0 43 0;
#X connect 44 0 42 0;
#X connect 45 0 46 0;
#X connect 47 0 45 0;
#X coords 0 -1 1 1 308 25 2 0 0;
#X restore 10 10 pd toggles;
#X msg 249 388 \; pd-toggles obj \$1 5 tgl \; pd-toggles obj \$1 20
send snd-\$6-\$5 \; pd-toggles obj \$1 -5 receive rcv-\$6-\$5 \; pd-toggles
connect \$2 0 \$3 0 \; pd-toggles connect \$4 0 \$2 0 \;;
#X obj 448 90 s \$0-amt;
#X obj 251 183 r \$0-amt;
#X obj 625 71 s \$0-step;
#X obj 25 83 r \$0-step;
#X obj 25 133 f;
#X obj 62 135 + 1;
#X obj 383 73 loadbang;
#X msg 383 95 16;
#X obj 25 155 %, f 12;
#X obj 106 127 r \$0-amt;
#X obj 25 177 + 1;
#X obj 25 407 list append \$1;
#X msg 25 475 \; rcv-\$5-\$1 color \$2 \$3 \$4;
#X obj 251 286 t a a a a a, f 33;
#X obj 249 365 pack 0 0 0 0 0 \$1, f 42;
#X obj 25 105 t b;
#X connect 0 0 2 0;
#X connect 1 0 2 1;
#X connect 2 0 3 0;
#X connect 2 0 42 0;
#X connect 3 0 2 1;
#X connect 4 0 0 0;
#X connect 4 1 1 0;
#X connect 4 2 26 0;
#X connect 5 0 43 1;
#X connect 6 0 7 0;
#X connect 7 0 43 2;
#X connect 8 0 9 0;
#X connect 9 0 43 3;
#X connect 10 0 43 4;
#X connect 11 0 12 0;
#X connect 12 0 43 0;
#X connect 14 0 40 0;
#X connect 15 0 41 0;
#X connect 16 0 17 0;
#X connect 16 1 19 1;
#X connect 16 2 19 0;
#X connect 17 0 14 0;
#X connect 17 1 21 0;
#X connect 18 0 14 0;
#X connect 18 1 20 0;
#X connect 19 0 18 0;
#X connect 20 0 14 1;
#X connect 21 0 14 1;
#X connect 22 0 24 0;
#X connect 23 0 24 0;
#X connect 24 0 29 0;
#X connect 24 1 31 0;
#X connect 30 0 4 0;
#X connect 32 0 44 0;
#X connect 33 0 34 0;
#X connect 33 0 37 0;
#X connect 34 0 33 1;
#X connect 35 0 36 0;
#X connect 36 0 29 0;
#X connect 37 0 39 0;
#X connect 38 0 37 1;
#X connect 39 0 16 0;
#X connect 40 0 15 0;
#X connect 42 0 11 0;
#X connect 42 1 5 0;
#X connect 42 2 6 0;
#X connect 42 3 8 0;
#X connect 42 4 10 0;
#X connect 43 0 28 0;
#X connect 44 0 33 0;
#X coords 0 -1 1 1 308 25 2 10 10;
