#N canvas 397 274 1375 770 10;
#X obj 251 226 until;
#X obj 251 258 f;
#X obj 288 260 + 1;
#X obj 251 445 * 19;
#X obj 251 468 + 4;
#X obj 4 -7 cnv 15 316 60 empty empty empty 20 12 0 14 -128992 -66577
0;
#X obj 25 465 list append;
#X obj 25 306 t a a b;
#X obj 25 362 t a b;
#X obj 95 378 t a b;
#X obj 64 334 f 0;
#X msg 190 413 0 2 2;
#X msg 57 411 -1.45966e+07 2 2;
#X obj 448 -8 inlet messages;
#X obj 467 18 r rstep-\$1;
#X text 719 150 localize all the messages so this object can be used
a bunch;
#X obj 735 526 s \$0-step;
#X obj 25 124 r \$0-step;
#X msg 25 555 \; rcv-\$5-\$1 color \$2 \$3 \$4;
#X obj 914 95 s \$0-set;
#X obj 914 73 - 1;
#N canvas 990 65 659 573 \$0-toggles 0;
#X obj 200 25 send snd-1066;
#X obj 4 5 tgl 15 0 empty empty empty 17 7 0 10 -262144 -1 -1 0 1;
#X obj 4 -4 receive rcv-1066-1;
#X obj 23 5 tgl 15 0 empty empty empty 17 7 0 10 -262144 -1 -1 0 1
;
#X obj 23 -4 receive rcv-1066-2;
#X obj 42 5 tgl 15 0 empty empty empty 17 7 0 10 -262144 -1 -1 0 1
;
#X obj 42 -4 receive rcv-1066-3;
#X obj 61 5 tgl 15 0 empty empty empty 17 7 0 10 -262144 -1 -1 0 1
;
#X obj 61 -4 receive rcv-1066-4;
#X obj 80 5 tgl 15 0 empty empty empty 17 7 0 10 -262144 -1 -1 0 1
;
#X obj 80 -4 receive rcv-1066-5;
#X obj 99 5 tgl 15 0 empty empty empty 17 7 0 10 -262144 -1 -1 0 1
;
#X obj 99 -4 receive rcv-1066-6;
#X obj 118 5 tgl 15 0 empty empty empty 17 7 0 10 -262144 -1 -1 0 1
;
#X obj 118 -4 receive rcv-1066-7;
#X obj 137 5 tgl 15 0 empty empty empty 17 7 0 10 -262144 -1 -1 0 1
;
#X obj 137 -4 receive rcv-1066-8;
#X obj 156 5 tgl 15 0 empty empty empty 17 7 0 10 -262144 -1 -1 0 1
;
#X obj 156 -4 receive rcv-1066-9;
#X obj 175 5 tgl 15 0 empty empty empty 17 7 0 10 -262144 -1 -1 0 1
;
#X obj 175 -4 receive rcv-1066-10;
#X obj 194 5 tgl 15 0 empty empty empty 17 7 0 10 -262144 -1 -1 0 1
;
#X obj 194 -4 receive rcv-1066-11;
#X obj 213 5 tgl 15 0 empty empty empty 17 7 0 10 -262144 -1 -1 0 1
;
#X obj 213 -4 receive rcv-1066-12;
#X connect 1 0 0 0;
#X connect 2 0 1 0;
#X connect 3 0 0 0;
#X connect 4 0 3 0;
#X connect 5 0 0 0;
#X connect 6 0 5 0;
#X connect 7 0 0 0;
#X connect 8 0 7 0;
#X connect 9 0 0 0;
#X connect 10 0 9 0;
#X connect 11 0 0 0;
#X connect 12 0 11 0;
#X connect 13 0 0 0;
#X connect 14 0 13 0;
#X connect 15 0 0 0;
#X connect 16 0 15 0;
#X connect 17 0 0 0;
#X connect 18 0 17 0;
#X connect 19 0 0 0;
#X connect 20 0 19 0;
#X connect 21 0 0 0;
#X connect 22 0 21 0;
#X connect 23 0 0 0;
#X connect 24 0 23 0;
#X coords 0 -1 1 1 308 25 2 0 0;
#X restore 10 10 pd \$0-toggles;
#X obj 385 210 f \$0;
#X obj 25 487 list append \$0;
#X msg 412 257 \; pd-\$1-toggles clear;
#X obj 25 275 f;
#X obj 184 181 t b a b b, f 34;
#X obj 25 200 max 1;
#X obj 25 221 min, f 10;
#X obj 25 175 f;
#X text 511 157 in beats;
#X obj 916 308 r \$0-local-size;
#X obj 916 329 t b a;
#X obj 870 376 /, f 7;
#X obj 870 356 f;
#X obj 475 138 s \$0-length;
#X obj 870 284 r \$0-length;
#X obj 870 397 i;
#X obj 735 276 r \$0-metro;
#X obj 475 95 * 360;
#X obj 475 116 i;
#X obj 735 325 t f f;
#X obj 762 348 sel 0;
#X obj 762 399 s \$0-restart;
#X msg 762 369 0;
#X obj 735 297 i;
#X obj 735 451 i;
#X obj 735 425 /, f 23;
#X obj 735 476 change -1;
#X obj 549 80 s \$0-metro;
#X obj 448 69 t f f;
#X obj 448 173 s \$0-local-size;
#X obj 448 48 route size step metro, f 51;
#X obj 25 145 t f f;
#X obj 385 231 t f f;
#X text 534 466 x value for toggle and receive;
#X text 540 484 number for receive;
#X text 539 503 item number to connect;
#X obj 251 495 pack 0 0 0 0 \$0, f 42;
#X obj 251 386 t a a a a, f 33;
#X obj 312 429 + 1;
#X obj 366 424 * 2;
#X obj 366 445 + 1;
#X msg 318 224 0;
#X obj 421 421 * 2;
#X obj 425 438 + 2;
#X obj 123 299 r snd-\$0;
#X floatatom 123 320 5 0 0 0 - - -;
#X obj 184 130 r \$0-local-size;
#X floatatom 110 128 5 0 0 0 - - -;
#X obj 110 148 pack 0 \$0;
#X msg 300 141 12;
#X floatatom 336 458 5 0 0 0 - - -;
#X msg 111 230 \; rcv-\$2-\$1 bang;
#X msg 251 518 \; pd-\$5-toggles obj \$1 5 tgl \; pd-\$5-toggles obj
\$1 -4 receive rcv-\$5-\$2 \; pd-\$5-toggles connect \$4 0 \$3 0 \;
pd-\$5-toggles connect \$3 0 0 0 \;;
#X msg 385 308 \; pd-\$1-toggles obj 200 25 send snd-\$1 \;;
#X connect 0 0 1 0;
#X connect 1 0 2 0;
#X connect 1 0 59 0;
#X connect 2 0 1 1;
#X connect 3 0 4 0;
#X connect 4 0 58 0;
#X connect 6 0 23 0;
#X connect 7 0 8 0;
#X connect 7 1 10 1;
#X connect 7 2 10 0;
#X connect 8 0 6 0;
#X connect 8 1 12 0;
#X connect 9 0 6 0;
#X connect 9 1 11 0;
#X connect 10 0 9 0;
#X connect 11 0 6 1;
#X connect 12 0 6 1;
#X connect 13 0 52 0;
#X connect 14 0 52 0;
#X connect 17 0 53 0;
#X connect 20 0 19 0;
#X connect 22 0 54 0;
#X connect 23 0 18 0;
#X connect 25 0 7 0;
#X connect 26 0 25 0;
#X connect 26 1 0 0;
#X connect 26 2 63 0;
#X connect 26 3 22 0;
#X connect 27 0 28 0;
#X connect 28 0 25 0;
#X connect 29 0 27 0;
#X connect 31 0 32 0;
#X connect 32 0 34 0;
#X connect 32 1 33 1;
#X connect 33 0 37 0;
#X connect 34 0 33 0;
#X connect 36 0 34 0;
#X connect 37 0 47 1;
#X connect 38 0 45 0;
#X connect 39 0 40 0;
#X connect 40 0 35 0;
#X connect 41 0 47 0;
#X connect 41 1 42 0;
#X connect 42 0 44 0;
#X connect 44 0 43 0;
#X connect 45 0 41 0;
#X connect 46 0 48 0;
#X connect 47 0 46 0;
#X connect 48 0 16 0;
#X connect 50 0 51 0;
#X connect 50 1 39 0;
#X connect 52 0 50 0;
#X connect 52 1 49 0;
#X connect 53 0 29 0;
#X connect 54 0 75 0;
#X connect 54 1 24 0;
#X connect 58 0 74 0;
#X connect 59 0 3 0;
#X connect 59 1 60 0;
#X connect 59 2 61 0;
#X connect 59 3 64 0;
#X connect 60 0 58 1;
#X connect 60 0 72 0;
#X connect 61 0 62 0;
#X connect 62 0 58 2;
#X connect 63 0 1 1;
#X connect 64 0 65 0;
#X connect 65 0 58 3;
#X connect 66 0 67 0;
#X connect 68 0 26 0;
#X connect 69 0 70 0;
#X connect 70 0 73 0;
#X connect 71 0 26 0;
#X coords 0 -1 1 1 308 25 2 10 10;
