#N canvas 65 108 1375 770 10;
#X obj 251 226 until;
#X msg 318 224 0;
#X obj 251 258 f;
#X obj 288 260 + 1;
#X obj 300 325 * 3;
#X obj 372 307 * 3;
#X obj 372 329 + 1;
#X obj 401 308 * 3;
#X obj 401 330 + 2;
#X obj 462 323 + 1;
#X obj 251 315 * 19;
#X obj 251 338 + 4;
#X obj 4 -7 cnv 15 316 60 empty empty empty 20 12 0 14 -128992 -66577
0;
#X obj 25 465 list append;
#X obj 25 306 t a a b;
#X obj 25 362 t a b;
#X obj 95 378 t a b;
#X obj 64 334 f 0;
#X msg 190 413 0 2 2;
#X msg 57 411 -1.45966e+07 2 2;
#X obj 448 -8 inlet messages;
#X obj 467 18 r rstep-\$1;
#X text 719 150 localize all the messages so this object can be used
a bunch;
#X obj 549 75 s \$0-step;
#X obj 25 124 r \$0-step;
#X msg 25 555 \; rcv-\$5-\$1 color \$2 \$3 \$4;
#X obj 251 286 t a a a a a, f 33;
#X obj 448 170 s \$0-size;
#X obj 184 130 r \$0-size;
#X obj 448 48 route size step set, f 51;
#X obj 650 104 s \$0-set;
#X obj 650 82 - 1;
#X obj 60 519 print huh;
#N canvas 990 65 450 300 \$0-toggles 0;
#X obj 4 5 tgl 15 0 empty empty empty 17 7 0 10 -262144 -66577 -66577
0 1;
#X obj 4 20 send snd-1004-1;
#X obj 4 -5 receive rcv-1004-1;
#X obj 23 5 tgl 15 0 empty empty empty 17 7 0 10 -262144 -66577 -66577
0 1;
#X obj 23 20 send snd-1004-2;
#X obj 23 -5 receive rcv-1004-2;
#X obj 42 5 tgl 15 0 empty empty empty 17 7 0 10 -262144 -66577 -66577
0 1;
#X obj 42 20 send snd-1004-3;
#X obj 42 -5 receive rcv-1004-3;
#X obj 61 5 tgl 15 0 empty empty empty 17 7 0 10 -262144 -66577 -66577
0 1;
#X obj 61 20 send snd-1004-4;
#X obj 61 -5 receive rcv-1004-4;
#X obj 80 5 tgl 15 0 empty empty empty 17 7 0 10 -262144 -66577 -66577
0 1;
#X obj 80 20 send snd-1004-5;
#X obj 80 -5 receive rcv-1004-5;
#X obj 99 5 tgl 15 0 empty empty empty 17 7 0 10 -262144 -66577 -66577
1 1;
#X obj 99 20 send snd-1004-6;
#X obj 99 -5 receive rcv-1004-6;
#X obj 118 5 tgl 15 0 empty empty empty 17 7 0 10 -262144 -66577 -66577
0 1;
#X obj 118 20 send snd-1004-7;
#X obj 118 -5 receive rcv-1004-7;
#X obj 137 5 tgl 15 0 empty empty empty 17 7 0 10 -262144 -66577 -66577
0 1;
#X obj 137 20 send snd-1004-8;
#X obj 137 -5 receive rcv-1004-8;
#X obj 156 5 tgl 15 0 empty empty empty 17 7 0 10 -262144 -66577 -66577
1 1;
#X obj 156 20 send snd-1004-9;
#X obj 156 -5 receive rcv-1004-9;
#X obj 175 5 tgl 15 0 empty empty empty 17 7 0 10 -262144 -66577 -66577
0 1;
#X obj 175 20 send snd-1004-10;
#X obj 175 -5 receive rcv-1004-10;
#X obj 194 5 tgl 15 0 empty empty empty 17 7 0 10 -262144 -66577 -66577
0 1;
#X obj 194 20 send snd-1004-11;
#X obj 194 -5 receive rcv-1004-11;
#X obj 213 5 tgl 15 0 empty empty empty 17 7 0 10 -262144 -66577 -66577
0 1;
#X obj 213 20 send snd-1004-12;
#X obj 213 -5 receive rcv-1004-12;
#X obj 232 5 tgl 15 0 empty empty empty 17 7 0 10 -262144 -66577 -66577
0 1;
#X obj 232 20 send snd-1004-13;
#X obj 232 -5 receive rcv-1004-13;
#X obj 251 5 tgl 15 0 empty empty empty 17 7 0 10 -262144 -66577 -66577
0 1;
#X obj 251 20 send snd-1004-14;
#X obj 251 -5 receive rcv-1004-14;
#X obj 270 5 tgl 15 0 empty empty empty 17 7 0 10 -262144 -66577 -66577
0 1;
#X obj 270 20 send snd-1004-15;
#X obj 270 -5 receive rcv-1004-15;
#X obj 289 5 tgl 15 0 empty empty empty 17 7 0 10 -262144 -66577 -66577
0 1;
#X obj 289 20 send snd-1004-16;
#X obj 289 -5 receive rcv-1004-16;
#X connect 0 0 1 0;
#X connect 2 0 0 0;
#X connect 3 0 4 0;
#X connect 5 0 3 0;
#X connect 6 0 7 0;
#X connect 8 0 6 0;
#X connect 9 0 10 0;
#X connect 11 0 9 0;
#X connect 12 0 13 0;
#X connect 14 0 12 0;
#X connect 15 0 16 0;
#X connect 17 0 15 0;
#X connect 18 0 19 0;
#X connect 20 0 18 0;
#X connect 21 0 22 0;
#X connect 23 0 21 0;
#X connect 24 0 25 0;
#X connect 26 0 24 0;
#X connect 27 0 28 0;
#X connect 29 0 27 0;
#X connect 30 0 31 0;
#X connect 32 0 30 0;
#X connect 33 0 34 0;
#X connect 35 0 33 0;
#X connect 36 0 37 0;
#X connect 38 0 36 0;
#X connect 39 0 40 0;
#X connect 41 0 39 0;
#X connect 42 0 43 0;
#X connect 44 0 42 0;
#X connect 45 0 46 0;
#X connect 47 0 45 0;
#X coords 0 -1 1 1 308 25 2 0 0;
#X restore 10 10 pd \$0-toggles;
#X obj 251 365 pack 0 0 0 0 0 \$0, f 42;
#X msg 251 388 \; pd-\$6-toggles obj \$1 5 tgl \; pd-\$6-toggles obj
\$1 20 send snd-\$6-\$5 \; pd-\$6-toggles obj \$1 -5 receive rcv-\$6-\$5
\; pd-\$6-toggles connect \$2 0 \$3 0 \; pd-\$6-toggles connect \$4
0 \$2 0 \;;
#X obj 385 210 f \$0;
#X obj 25 487 list append \$0;
#X msg 385 233 \; pd-\$1-toggles clear;
#X obj 448 89 change -1;
#X obj 25 275 f;
#X obj 184 181 t b a b b, f 34;
#X obj 25 200 max 1;
#X obj 25 221 min, f 10;
#X obj 448 110 t f f;
#X obj 25 175 f;
#X obj 475 141 s \$0-cap;
#X obj 92 104 r \$0-cap;
#X obj 92 125 t b a;
#X connect 0 0 2 0;
#X connect 1 0 2 1;
#X connect 2 0 3 0;
#X connect 2 0 26 0;
#X connect 3 0 2 1;
#X connect 4 0 34 1;
#X connect 5 0 6 0;
#X connect 6 0 34 2;
#X connect 7 0 8 0;
#X connect 8 0 34 3;
#X connect 9 0 34 4;
#X connect 10 0 11 0;
#X connect 11 0 34 0;
#X connect 13 0 37 0;
#X connect 14 0 15 0;
#X connect 14 1 17 1;
#X connect 14 2 17 0;
#X connect 15 0 13 0;
#X connect 15 1 19 0;
#X connect 16 0 13 0;
#X connect 16 1 18 0;
#X connect 17 0 16 0;
#X connect 18 0 13 1;
#X connect 19 0 13 1;
#X connect 20 0 29 0;
#X connect 21 0 29 0;
#X connect 24 0 45 0;
#X connect 26 0 10 0;
#X connect 26 1 4 0;
#X connect 26 2 5 0;
#X connect 26 3 7 0;
#X connect 26 4 9 0;
#X connect 28 0 41 0;
#X connect 29 0 39 0;
#X connect 29 1 23 0;
#X connect 29 2 31 0;
#X connect 31 0 30 0;
#X connect 34 0 35 0;
#X connect 36 0 38 0;
#X connect 37 0 25 0;
#X connect 39 0 44 0;
#X connect 40 0 14 0;
#X connect 41 0 40 0;
#X connect 41 1 0 0;
#X connect 41 2 1 0;
#X connect 41 3 36 0;
#X connect 42 0 43 0;
#X connect 43 0 40 0;
#X connect 44 0 27 0;
#X connect 44 1 46 0;
#X connect 45 0 42 0;
#X connect 47 0 48 0;
#X connect 48 0 45 0;
#X connect 48 1 43 1;
#X coords 0 -1 1 1 308 25 2 10 10;
