#N canvas 1 117 679 574 10;
#X obj 543 28 inlet;
#N canvas 0 23 463 325 arguments 0;
#X obj 46 13 inlet;
#X obj 46 176 s \$0-in;
#X obj 88 152 s \$0-chunk;
#X obj 131 128 s \$0-sus-in;
#X obj 174 108 s \$0-sus-out;
#X obj 203 82 s \$0-speed;
#X obj 242 59 s \$0-time;
#X obj 352 106 s \$0-loop;
#X obj 46 33 route in chunk sus-in sus-out speed time loop release
;
#X obj 320 246 s \$0-rel;
#X obj 313 182 max 5;
#X connect 0 0 8 0;
#X connect 8 0 1 0;
#X connect 8 1 2 0;
#X connect 8 2 3 0;
#X connect 8 3 4 0;
#X connect 8 4 5 0;
#X connect 8 5 6 0;
#X connect 8 6 7 0;
#X connect 8 7 10 0;
#X connect 10 0 9 0;
#X restore 543 54 pd arguments;
#X obj 114 9 inlet midi note;
#X text 481 155 Arg. 1 sample bank name;
#X obj 114 509 hip~ 5;
#X obj 114 533 outlet~;
#N canvas 0 23 470 353 note 0;
#X obj 73 15 inlet;
#X obj 73 134 unpack 0 0, f 24;
#X obj 214 291 s midi-\$0;
#X obj 73 155 swap, f 24;
#X obj 214 210 t a a;
#X obj 240 261 s \$0-samp;
#X obj 214 184 change -1;
#X obj 73 227 outlet;
#X obj 243 240 tabread \$1-lengths;
#X connect 0 0 1 0;
#X connect 1 0 3 0;
#X connect 1 1 3 1;
#X connect 3 0 7 0;
#X connect 3 1 6 0;
#X connect 4 0 2 0;
#X connect 4 1 8 0;
#X connect 6 0 4 0;
#X connect 8 0 5 0;
#X restore 114 327 pd note;
#N canvas 348 174 450 300 pointer 0;
#X obj 203 14 r midi-\$0;
#X obj 203 94 pack 0 s;
#X obj 203 35 t a b;
#X obj 305 232 outlet;
#X msg 203 155 set \$2-\$1;
#X obj 248 68 symbol \$1;
#X connect 0 0 2 0;
#X connect 1 0 4 0;
#X connect 2 0 1 0;
#X connect 2 1 5 0;
#X connect 4 0 3 0;
#X connect 5 0 1 1;
#X restore 208 375 pd pointer;
#X text 481 179 Arg. 2 One-shot/or loop;
#X obj 114 410 tabread4~;
#X obj 114 451 *~, f 33;
#X obj 114 30 t a a, f 19;
#X obj 225 52 sel 0, f 13;
#N canvas 0 23 470 353 note 0;
#X obj 73 15 inlet;
#X obj 73 134 unpack 0 0, f 24;
#X obj 214 291 s midi-\$0;
#X obj 73 155 swap, f 24;
#X obj 214 210 t a a;
#X obj 240 261 s \$0-samp;
#X obj 214 184 change -1;
#X obj 73 227 outlet;
#X obj 241 240 tabread \$1-lengths;
#X connect 0 0 1 0;
#X connect 1 0 3 0;
#X connect 1 1 3 1;
#X connect 3 0 7 0;
#X connect 3 1 6 0;
#X connect 4 0 2 0;
#X connect 4 1 8 0;
#X connect 6 0 4 0;
#X connect 8 0 5 0;
#X restore 327 325 pd note;
#X obj 327 408 tabread4~, f 10;
#X obj 327 469 *~, f 33;
#X obj 114 264 t a a, f 36;
#X obj 114 302 spigot 1;
#X obj 327 306 spigot 0;
#N canvas 86 80 1121 765 guts-1 0;
#X obj 178 684 *~, f 57;
#X obj 178 707 +~ 1;
#X obj 517 659 - 2;
#X obj 837 35 r \$0-samp;
#X obj 424 554 r \$0-in;
#X obj 178 578 vline~;
#X msg 448 108 stop;
#X obj 448 133 del, f 7;
#X obj 409 585 f 0;
#X obj 837 115 * 1, f 7;
#X obj 777 662 vline~;
#X obj 777 683 pow~ 2;
#X obj 777 502 f;
#X obj 509 547 r \$0-sus-in;
#X obj 494 583 f 0;
#X obj 982 37 r \$0-samp;
#X obj 982 115 * 1, f 6;
#X obj 888 147 r \$0-time;
#X obj 837 202 * 1, f 9;
#X obj 837 147 / 44.1;
#X msg 777 632 1 10 \, 0 10 \$1;
#X obj 777 606 - 20;
#X obj 777 704 outlet~ to amp;
#X obj 178 735 outlet~ to tabread;
#X obj 517 635 r \$0-samp;
#X obj 178 655 wrap~;
#X msg 178 549 0 0 \, 1 \$1 0;
#X obj 178 634 +~, f 39;
#X obj 178 495 f;
#X obj 287 518 r \$0-chunk;
#X obj 178 600 *~, f 16;
#X obj 272 542 f 1;
#X obj 432 470 r \$0-sus-out;
#X obj 417 499 f 1;
#X obj 341 412 t b b b, f 26;
#X obj 343 487 f;
#X obj 997 64 r \$0-sus-out;
#X obj 997 85 t b a;
#X obj 852 80 t b a;
#X obj 1033 145 r \$0-time;
#X obj 982 200 * 1, f 9;
#X obj 982 145 / 44.1;
#X obj 888 168 t b a;
#X obj 1033 166 t b a;
#X obj 180 417 t b b b, f 19;
#X obj 193 451 r \$0-attack;
#X obj 358 442 r \$0-sustain;
#X obj 487 108 r \$0-attack;
#X obj 797 572 f;
#X obj 287 101 s \$0-line-a;
#X obj 406 299 s \$0-line-s;
#X obj 341 253 t b b b b, f 33;
#X msg 536 297 stop;
#X obj 536 362 del, f 7;
#X obj 575 337 r \$0-sustain;
#X obj 464 192 r \$0-loop;
#X obj 341 223 spigot \$3, f 21;
#X obj 33 33 sel 0, f 25;
#X obj 180 55 t b b b b b f, f 90;
#X obj 33 6 inlet;
#X msg 676 588 0 10;
#X obj 33 186 t b b b, f 22;
#X obj 258 10 inlet;
#X obj 258 31 s \$0-kill1;
#X obj 676 514 r \$0-kill1;
#X obj 33 301 s \$0-off1;
#X obj 710 541 r \$0-off1;
#X obj 852 59 r \$0-chunk;
#X obj 812 549 r \$0-sustain;
#X obj 797 527 r \$0-line-s;
#X obj 982 220 s \$0-sustain;
#X obj 448 157 s \$0-retrigger1;
#X obj 537 389 s \$0-retrigger1;
#X obj 341 193 r \$0-retrigger1;
#X obj 836 221 s \$0-attack;
#X obj 792 479 r \$0-attack;
#X obj 777 456 r \$0-line-a;
#X connect 0 0 1 0;
#X connect 1 0 23 0;
#X connect 2 0 0 1;
#X connect 3 0 9 0;
#X connect 4 0 8 1;
#X connect 5 0 30 0;
#X connect 6 0 7 0;
#X connect 7 0 71 0;
#X connect 8 0 27 1;
#X connect 9 0 19 0;
#X connect 10 0 11 0;
#X connect 11 0 22 0;
#X connect 12 0 21 0;
#X connect 13 0 14 1;
#X connect 14 0 27 1;
#X connect 15 0 16 0;
#X connect 16 0 41 0;
#X connect 17 0 42 0;
#X connect 18 0 74 0;
#X connect 19 0 18 0;
#X connect 20 0 10 0;
#X connect 21 0 20 0;
#X connect 24 0 2 0;
#X connect 25 0 0 0;
#X connect 26 0 5 0;
#X connect 27 0 25 0;
#X connect 28 0 26 0;
#X connect 29 0 31 1;
#X connect 30 0 27 0;
#X connect 31 0 30 1;
#X connect 32 0 33 1;
#X connect 33 0 30 1;
#X connect 34 0 35 0;
#X connect 34 1 33 0;
#X connect 34 2 14 0;
#X connect 35 0 26 0;
#X connect 36 0 37 0;
#X connect 37 0 16 0;
#X connect 37 1 16 1;
#X connect 38 0 9 0;
#X connect 38 1 9 1;
#X connect 39 0 43 0;
#X connect 40 0 70 0;
#X connect 41 0 40 0;
#X connect 42 0 18 0;
#X connect 42 1 18 1;
#X connect 43 0 40 0;
#X connect 43 1 40 1;
#X connect 44 0 28 0;
#X connect 44 1 31 0;
#X connect 44 2 8 0;
#X connect 45 0 28 1;
#X connect 46 0 35 1;
#X connect 47 0 7 1;
#X connect 48 0 21 0;
#X connect 51 0 34 0;
#X connect 51 1 50 0;
#X connect 51 2 53 0;
#X connect 51 3 52 0;
#X connect 52 0 53 0;
#X connect 53 0 72 0;
#X connect 54 0 53 1;
#X connect 55 0 56 1;
#X connect 56 0 51 0;
#X connect 57 0 61 0;
#X connect 57 1 58 0;
#X connect 58 0 44 0;
#X connect 58 1 49 0;
#X connect 58 2 7 0;
#X connect 58 3 6 0;
#X connect 58 4 52 0;
#X connect 59 0 57 0;
#X connect 60 0 10 0;
#X connect 61 0 65 0;
#X connect 61 1 52 0;
#X connect 61 2 6 0;
#X connect 62 0 63 0;
#X connect 64 0 60 0;
#X connect 66 0 60 0;
#X connect 67 0 38 0;
#X connect 68 0 48 1;
#X connect 69 0 48 0;
#X connect 73 0 56 0;
#X connect 75 0 12 1;
#X connect 76 0 12 0;
#X restore 114 355 pd guts-1;
#X f 33;
#N canvas 293 113 1121 765 guts-2 0;
#X obj 178 684 *~, f 57;
#X obj 178 707 +~ 1;
#X obj 517 659 - 2;
#X obj 837 35 r \$0-samp;
#X obj 424 554 r \$0-in;
#X obj 178 578 vline~;
#X msg 448 108 stop;
#X obj 448 133 del, f 7;
#X obj 409 585 f 0;
#X obj 837 115 * 1, f 7;
#X obj 777 662 vline~;
#X obj 777 683 pow~ 2;
#X obj 777 502 f;
#X obj 509 547 r \$0-sus-in;
#X obj 494 583 f 0;
#X obj 982 37 r \$0-samp;
#X obj 982 115 * 1, f 6;
#X obj 888 147 r \$0-time;
#X obj 837 202 * 1, f 9;
#X obj 837 147 / 44.1;
#X msg 777 632 1 10 \, 0 10 \$1;
#X obj 777 606 - 20;
#X obj 777 704 outlet~ to amp;
#X obj 178 735 outlet~ to tabread;
#X obj 517 635 r \$0-samp;
#X obj 178 655 wrap~;
#X msg 178 549 0 0 \, 1 \$1 0;
#X obj 178 634 +~, f 39;
#X obj 178 495 f;
#X obj 287 518 r \$0-chunk;
#X obj 178 600 *~, f 16;
#X obj 272 542 f 1;
#X obj 432 470 r \$0-sus-out;
#X obj 417 499 f 1;
#X obj 341 412 t b b b, f 26;
#X obj 343 487 f;
#X obj 997 64 r \$0-sus-out;
#X obj 997 85 t b a;
#X obj 852 80 t b a;
#X obj 1033 145 r \$0-time;
#X obj 982 200 * 1, f 9;
#X obj 982 145 / 44.1;
#X obj 888 168 t b a;
#X obj 1033 166 t b a;
#X obj 180 417 t b b b, f 19;
#X obj 193 451 r \$0-attack;
#X obj 358 442 r \$0-sustain;
#X obj 487 108 r \$0-attack;
#X obj 797 572 f;
#X obj 287 101 s \$0-line-a;
#X obj 406 299 s \$0-line-s;
#X obj 341 253 t b b b b, f 33;
#X msg 536 297 stop;
#X obj 536 362 del, f 7;
#X obj 575 337 r \$0-sustain;
#X obj 464 192 r \$0-loop;
#X obj 341 223 spigot \$3, f 21;
#X obj 33 33 sel 0, f 25;
#X obj 180 55 t b b b b b f, f 90;
#X obj 33 6 inlet;
#X msg 676 588 0 10;
#X obj 33 186 t b b b, f 22;
#X obj 258 10 inlet;
#X obj 258 31 s \$0-kill1;
#X obj 33 301 s \$0-off1;
#X obj 852 59 r \$0-chunk;
#X obj 812 549 r \$0-sustain;
#X obj 797 527 r \$0-line-s;
#X obj 982 220 s \$0-sustain;
#X obj 448 157 s \$0-retrigger1;
#X obj 537 389 s \$0-retrigger1;
#X obj 341 193 r \$0-retrigger1;
#X obj 836 221 s \$0-attack;
#X obj 792 479 r \$0-attack;
#X obj 777 456 r \$0-line-a;
#X obj 623 196 t b b b, f 22;
#X obj 623 141 r \$0-kill;
#X obj 33 131 r \$0-kill1;
#X connect 0 0 1 0;
#X connect 1 0 23 0;
#X connect 2 0 0 1;
#X connect 3 0 9 0;
#X connect 4 0 8 1;
#X connect 5 0 30 0;
#X connect 6 0 7 0;
#X connect 7 0 69 0;
#X connect 8 0 27 1;
#X connect 9 0 19 0;
#X connect 10 0 11 0;
#X connect 11 0 22 0;
#X connect 12 0 21 0;
#X connect 13 0 14 1;
#X connect 14 0 27 1;
#X connect 15 0 16 0;
#X connect 16 0 41 0;
#X connect 17 0 42 0;
#X connect 18 0 72 0;
#X connect 19 0 18 0;
#X connect 20 0 10 0;
#X connect 21 0 20 0;
#X connect 24 0 2 0;
#X connect 25 0 0 0;
#X connect 26 0 5 0;
#X connect 27 0 25 0;
#X connect 28 0 26 0;
#X connect 29 0 31 1;
#X connect 30 0 27 0;
#X connect 31 0 30 1;
#X connect 32 0 33 1;
#X connect 33 0 30 1;
#X connect 34 0 35 0;
#X connect 34 1 33 0;
#X connect 34 2 14 0;
#X connect 35 0 26 0;
#X connect 36 0 37 0;
#X connect 37 0 16 0;
#X connect 37 1 16 1;
#X connect 38 0 9 0;
#X connect 38 1 9 1;
#X connect 39 0 43 0;
#X connect 40 0 68 0;
#X connect 41 0 40 0;
#X connect 42 0 18 0;
#X connect 42 1 18 1;
#X connect 43 0 40 0;
#X connect 43 1 40 1;
#X connect 44 0 28 0;
#X connect 44 1 31 0;
#X connect 44 2 8 0;
#X connect 45 0 28 1;
#X connect 46 0 35 1;
#X connect 47 0 7 1;
#X connect 48 0 21 0;
#X connect 51 0 34 0;
#X connect 51 1 50 0;
#X connect 51 2 53 0;
#X connect 51 3 52 0;
#X connect 52 0 53 0;
#X connect 53 0 70 0;
#X connect 54 0 53 1;
#X connect 55 0 56 1;
#X connect 56 0 51 0;
#X connect 57 1 58 0;
#X connect 58 0 44 0;
#X connect 58 1 49 0;
#X connect 58 2 7 0;
#X connect 58 3 6 0;
#X connect 58 4 52 0;
#X connect 59 0 57 0;
#X connect 60 0 10 0;
#X connect 61 0 64 0;
#X connect 61 1 52 0;
#X connect 61 2 6 0;
#X connect 62 0 63 0;
#X connect 65 0 38 0;
#X connect 66 0 48 1;
#X connect 67 0 48 0;
#X connect 71 0 56 0;
#X connect 73 0 12 1;
#X connect 74 0 12 0;
#X connect 75 0 60 0;
#X connect 75 1 6 0;
#X connect 75 2 52 0;
#X connect 76 0 75 0;
#X connect 77 0 61 0;
#X restore 327 353 pd guts-2;
#X f 33;
#X obj 300 179 t b b, f 11;
#X obj 225 181 t b b;
#X obj 225 228 f;
#X obj 372 285 ==;
#X msg 301 198 0;
#X msg 225 202 1;
#X obj 300 74 t b;
#X obj 300 95 f;
#X obj 329 95 + 1;
#X obj 300 116 % 2;
#X obj 300 137 sel 0 1;
#X connect 0 0 1 0;
#X connect 2 0 11 0;
#X connect 4 0 5 0;
#X connect 6 0 19 0;
#X connect 7 0 9 0;
#X connect 7 0 14 0;
#X connect 9 0 10 0;
#X connect 10 0 4 0;
#X connect 11 0 16 0;
#X connect 11 1 12 0;
#X connect 12 1 27 0;
#X connect 13 0 20 0;
#X connect 14 0 15 0;
#X connect 15 0 4 0;
#X connect 16 0 17 0;
#X connect 16 1 18 0;
#X connect 17 0 6 0;
#X connect 18 0 13 0;
#X connect 19 0 9 0;
#X connect 19 1 10 1;
#X connect 20 0 14 0;
#X connect 20 1 15 1;
#X connect 21 0 25 0;
#X connect 21 1 19 1;
#X connect 22 0 26 0;
#X connect 22 1 20 1;
#X connect 23 0 24 0;
#X connect 23 0 17 1;
#X connect 24 0 18 1;
#X connect 25 0 23 0;
#X connect 26 0 23 0;
#X connect 27 0 28 0;
#X connect 28 0 29 0;
#X connect 28 0 30 0;
#X connect 29 0 28 1;
#X connect 30 0 31 0;
#X connect 31 0 22 0;
#X connect 31 1 21 0;
