#N canvas 139 128 752 542 10;
#X obj 533 8 inlet;
#N canvas 0 23 450 300 arguments 0;
#X obj 46 13 inlet;
#X obj 46 126 s \$0-in;
#X obj 81 99 s \$0-chunk;
#X obj 116 67 s \$0-ad;
#X obj 46 33 route in chunk ad s r, f 40;
#X obj 176 68 s \$0-s;
#X obj 236 67 s \$0-r;
#X connect 0 0 4 0;
#X connect 4 0 1 0;
#X connect 4 1 2 0;
#X connect 4 2 3 0;
#X connect 4 3 5 0;
#X connect 4 4 6 0;
#X restore 533 34 pd arguments;
#X obj 9 4 inlet midi note;
#X text 268 25 Arg. 1 sample bank name;
#X obj 269 298 tabread4~;
#X obj 373 299 tabread4~;
#X obj 254 359 *~;
#X obj 358 360 *~;
#X obj 254 440 hip~ 5;
#X obj 358 441 hip~ 5;
#X obj 358 462 outlet~;
#X obj 254 464 outlet~;
#N canvas 0 23 450 300 note 0;
#X obj 73 20 inlet;
#X obj 73 54 unpack 0 0, f 24;
#X obj 214 187 s midi-\$0;
#X obj 73 75 swap, f 24;
#X obj 214 106 t a a;
#X obj 241 157 s \$0-samp;
#X obj 241 136 tabread \$1-lengths;
#X obj 73 166 s \$0-vel;
#X obj 73 133 f;
#X obj 88 108 r \$0-retrigger;
#X connect 0 0 1 0;
#X connect 1 0 3 0;
#X connect 1 1 3 1;
#X connect 3 0 8 0;
#X connect 3 1 4 0;
#X connect 4 0 2 0;
#X connect 4 1 6 0;
#X connect 6 0 5 0;
#X connect 8 0 7 0;
#X connect 9 0 8 1;
#X restore 9 32 pd note;
#X text 268 45 Arg. 2 curve of envelope;
#X text 268 65 Arg. 3 One-shot/or loop;
#N canvas 0 23 450 300 amp-envelope 0;
#X obj 37 263 outlet~;
#X obj 68 148 r \$0-ad;
#X obj 99 170 r \$0-s;
#X obj 130 190 r \$0-r;
#X obj 37 91 r \$0-vel;
#X obj 37 218 my-env \$2 \$3, f 16;
#X connect 1 0 5 1;
#X connect 2 0 5 2;
#X connect 3 0 5 3;
#X connect 4 0 5 0;
#X connect 5 0 0 0;
#X restore 165 295 pd amp-envelope;
#N canvas 0 23 632 707 drive-the-sample 0;
#X obj 138 456 *~, f 23;
#X obj 138 487 +~ 1;
#X obj 273 431 - 2;
#X obj 246 12 r \$0-samp;
#X obj 246 63 *;
#X obj 261 39 r \$0-chunk;
#X obj 246 84 t a a;
#X obj 153 309 r \$0-in;
#X obj 138 332 f;
#X obj 138 515 outlet~;
#X obj 138 418 vline~;
#X msg 138 392 \$1 0 \, 1 \$2 0;
#X obj 225 143 / 44.1;
#X obj 138 357 pack 0 0;
#X obj 111 28 r \$0-vel;
#X obj 111 49 sel 0;
#X obj 138 72 t b b b b;
#X msg 189 98 stop;
#X obj 172 166 del;
#X obj 172 217 s \$0-retrigger;
#X obj 85 105 t b b;
#X obj 172 193 spigot \$3;
#X connect 0 0 1 0;
#X connect 1 0 9 0;
#X connect 2 0 0 1;
#X connect 3 0 4 0;
#X connect 4 0 6 0;
#X connect 5 0 4 1;
#X connect 6 0 12 0;
#X connect 6 1 2 0;
#X connect 7 0 8 1;
#X connect 8 0 13 0;
#X connect 10 0 0 0;
#X connect 11 0 10 0;
#X connect 12 0 13 1;
#X connect 12 0 18 1;
#X connect 13 0 11 0;
#X connect 14 0 15 0;
#X connect 15 0 20 0;
#X connect 15 1 16 0;
#X connect 16 0 8 0;
#X connect 16 2 18 0;
#X connect 16 3 17 0;
#X connect 17 0 18 0;
#X connect 18 0 21 0;
#X connect 20 1 17 0;
#X connect 21 0 19 0;
#X restore 269 134 pd drive-the-sample;
#N canvas 0 23 450 300 pointer 0;
#X obj 203 14 r midi-\$0;
#X msg 132 176 set \$2-\$1L;
#X obj 203 94 pack 0 s;
#X obj 248 68 symbol \$1;
#X obj 203 35 t a b;
#X obj 203 115 t a a;
#X msg 230 180 set \$2-\$1R;
#X obj 305 232 outlet;
#X connect 0 0 4 0;
#X connect 1 0 7 0;
#X connect 2 0 5 0;
#X connect 3 0 2 1;
#X connect 4 0 2 0;
#X connect 4 1 3 0;
#X connect 5 0 1 0;
#X connect 5 1 6 0;
#X connect 6 0 7 0;
#X restore 373 220 pd pointer;
#X connect 0 0 1 0;
#X connect 2 0 12 0;
#X connect 4 0 6 1;
#X connect 5 0 7 1;
#X connect 6 0 8 0;
#X connect 7 0 9 0;
#X connect 8 0 11 0;
#X connect 9 0 10 0;
#X connect 15 0 6 0;
#X connect 15 0 7 0;
#X connect 16 0 4 0;
#X connect 16 0 5 0;
#X connect 17 0 5 0;
#X connect 17 0 4 0;
