#N canvas 225 161 751 583 10;
#X obj 166 525 dac~ 1 2;
#X obj 166 472 *~;
#X obj 184 377 hsl 128 15 0 127 0 0 empty empty empty -2 -8 0 10 -262144
-1 -1 3600 1;
#X obj 181 400 / 127;
#X obj 181 421 pow 2;
#X obj 181 442 lop~ 5;
#X msg 354 168 in \$1;
#X floatatom 353 141 5 0 0 0 - - -;
#X floatatom 409 136 5 0 0 0 - - -;
#X floatatom 479 147 5 0 0 0 - - -;
#X floatatom 527 148 5 0 0 0 - - -;
#X floatatom 482 37 5 0 0 0 - - -;
#X msg 450 104 speed \$1;
#X obj 585 164 tgl 15 0 empty empty empty 17 7 0 10 -262144 -1 -1 1
1;
#X msg 586 189 loop \$1;
#X obj 247 115 tgl 15 0 empty empty empty 17 7 0 10 -262144 -1 -1 0
1;
#X floatatom 301 120 5 0 0 0 - - -;
#X obj 184 88 tgl 15 0 empty empty empty 17 7 0 10 -262144 -1 -1 0
1;
#X obj 172 118 metro 500;
#X obj 406 321 t a a;
#X obj 249 142 metro 666;
#X floatatom 224 95 5 0 0 0 - - -;
#X obj 457 418 clone 12 loader1 samp Samples;
#X msg 510 390 vis 1 1;
#X msg 172 144 1;
#X floatatom 636 33 5 0 0 0 - - -;
#X msg 45 230 1 100;
#X obj 168 194 poly 4 1, f 10;
#X obj 168 235 pack 0 0 0;
#X msg 101 229 1 0;
#X obj 561 320 s dsp-started;
#X obj 583 298 bng 15 250 50 0 empty empty empty 17 7 0 10 -262144
-1 -1;
#X msg 480 178 s-in \$1;
#X msg 529 241 s-out \$1;
#X msg 604 99 r \$1;
#X msg 28 296 2 100;
#X msg 408 166 out \$1;
#X msg 78 295 2 0;
#X msg 620 126 s \$1;
#X floatatom 644 89 5 0 0 0 - - -;
#X obj 168 215 - 1;
#X obj 247 283 list prepend all;
#X obj 247 304 list trim;
#X msg 168 260 \$1 note \$2 \$3;
#X msg 478 325 2 read bang;
#X obj 168 343 clone -x 4 basic-sample samp 0;
#X msg 456 363 1 read bang;
#X msg 564 365 3 read bang;
#X msg 56 184 3 100;
#X msg 56 210 3 0;
#X connect 1 0 0 0;
#X connect 1 0 0 1;
#X connect 2 0 3 0;
#X connect 3 0 4 0;
#X connect 4 0 5 0;
#X connect 5 0 1 1;
#X connect 6 0 19 0;
#X connect 7 0 6 0;
#X connect 8 0 36 0;
#X connect 9 0 32 0;
#X connect 10 0 33 0;
#X connect 11 0 12 0;
#X connect 12 0 19 0;
#X connect 13 0 14 0;
#X connect 14 0 19 0;
#X connect 15 0 20 0;
#X connect 16 0 20 1;
#X connect 17 0 18 0;
#X connect 18 0 24 0;
#X connect 19 0 41 0;
#X connect 21 0 18 1;
#X connect 23 0 22 0;
#X connect 25 0 34 0;
#X connect 26 0 27 0;
#X connect 27 0 40 0;
#X connect 27 1 28 1;
#X connect 27 2 28 2;
#X connect 28 0 43 0;
#X connect 29 0 27 0;
#X connect 31 0 30 0;
#X connect 32 0 19 0;
#X connect 33 0 19 0;
#X connect 34 0 19 0;
#X connect 35 0 27 0;
#X connect 36 0 19 0;
#X connect 37 0 27 0;
#X connect 38 0 19 0;
#X connect 39 0 38 0;
#X connect 40 0 28 0;
#X connect 41 0 42 0;
#X connect 42 0 45 0;
#X connect 43 0 45 0;
#X connect 44 0 22 0;
#X connect 45 0 1 0;
#X connect 46 0 22 0;
#X connect 47 0 22 0;
#X connect 48 0 27 0;
#X connect 49 0 27 0;
