#N canvas 689 167 785 621 10;
#X text 342 36 number with velocity triggers a sample from the paired
bank.;
#X obj 25 21 inlet;
#X obj 25 43 unpack;
#X obj 25 64 swap, f 6;
#N canvas 348 174 450 300 pointer 0;
#X obj 203 94 pack 0 s;
#X obj 203 35 t a b;
#X obj 305 232 outlet;
#X msg 203 155 set \$2-\$1;
#X obj 248 68 symbol \$1;
#X obj 203 14 inlet;
#X connect 0 0 3 0;
#X connect 1 0 0 0;
#X connect 1 1 4 0;
#X connect 3 0 2 0;
#X connect 4 0 0 1;
#X connect 5 0 1 0;
#X restore 58 88 pd pointer;
#X obj 58 109 s \$0-to-tabread;
#X obj 46 451 tabread4~;
#X obj 262 385 tabread4~, f 10;
#X obj 25 173 sel 0, f 16;
#X obj 118 196 t f b;
#X obj 145 222 f;
#X obj 174 222 + 1;
#X obj 145 243 % 2;
#X obj 145 264 sel 0 1, f 34;
#X connect 1 0 2 0;
#X connect 2 0 3 0;
#X connect 2 1 3 1;
#X connect 3 0 8 0;
#X connect 3 1 4 0;
#X connect 4 0 5 0;
#X connect 8 1 9 0;
#X connect 9 1 10 0;
#X connect 10 0 11 0;
#X connect 10 0 12 0;
#X connect 11 0 10 1;
#X connect 12 0 13 0;
