#N canvas 163 343 754 398 10;
#X obj 22 10 inlet 360-ticks;
#X obj 159 9 inlet control-messages;
#X obj 197 224 text define -k \$0-lol;
#A set;
#X obj 159 30 route start stop pause read write, f 61;
#N canvas 477 452 450 300 read-and-play 1;
#X obj 22 20 inlet;
#X obj 124 87 text get \$0-lol;
#X obj 74 191 >=;
#X obj 22 41 t f b;
#X connect 0 0 3 0;
#X restore 22 198 pd read-and-play;
#N canvas 677 341 450 300 local-clocker 0;
#X obj 88 226 + 1;
#X obj 54 11 inlet ticks;
#X obj 204 10 inlet reset;
#X obj 204 31 t b;
#X obj 54 261 outlet;
#X obj 54 226 i;
#X msg 204 52 0;
#X obj 54 63 t b;
#X connect 0 0 5 1;
#X connect 1 0 7 0;
#X connect 2 0 3 0;
#X connect 3 0 6 0;
#X connect 5 0 0 0;
#X connect 5 0 4 0;
#X connect 6 0 5 1;
#X connect 7 0 5 0;
#X restore 22 108 pd local-clocker;
#X obj 197 197 r \$0-text;
#X msg 522 81 write \$2/\$1.txt;
#X msg 449 102 read \$2/\$1.txt;
#X obj 522 57 pack 0 \$2;
#X obj 449 82 pack 0 \$2;
#X obj 449 123 s \$0-text;
#X connect 0 0 5 0;
#X connect 1 0 3 0;
#X connect 3 4 10 0;
#X connect 3 5 9 0;
#X connect 5 0 4 0;
#X connect 6 0 2 0;
#X connect 7 0 11 0;
#X connect 8 0 11 0;
#X connect 9 0 7 0;
#X connect 10 0 8 0;
