#N canvas 9 50 938 904 10;
#X obj 69 21 inlet;
#X obj 69 736 outlet;
#X obj 198 277 t f f;
#X obj 198 319 <;
#X obj 198 341 sel 1;
#X obj 198 396 f;
#X obj 230 396 + 1;
#X obj 69 442 f;
#X obj 103 442 + 1;
#X obj 84 418 r \$0-reset;
#X obj 69 464 +, f 16;
#X obj 213 368 r \$0-reset;
#X obj 96 709 s \$0-reset;
#X msg 96 686 0;
#X obj 69 616 t f f;
#X obj 69 566 i;
#X obj 96 662 sel 1;
#X obj 153 122 s \$0-length;
#X obj 129 614 r \$0-length;
#X obj 96 640 >= 360;
#X obj 153 80 * 360;
#X obj 153 101 i;
#X obj 265 113 s \$0-reset;
#X obj 69 43 route metro length restart start-sync pause stop, f 85
;
#X obj 324 311 t f f;
#X obj 324 353 <;
#X obj 324 375 sel 1;
#X obj 324 289 spigot 0;
#X msg 351 429 0;
#X obj 351 450 s \$0-reset;
#X msg 344 91 1;
#X obj 69 215 spigot 0;
#X obj 114 189 r \$0-play;
#X msg 238 94 1;
#X obj 238 138 s \$0-play;
#X msg 318 430 1;
#X obj 318 474 s \$0-play;
#X obj 491 67 t b;
#X msg 491 88 0;
#X obj 491 109 s \$0-play;
#X obj 438 178 s \$0-play;
#X obj 438 130 + 1;
#X obj 438 151 % 2;
#X obj 407 98 t b;
#X msg 416 325 0;
#X obj 69 149 t f f, f 21;
#X obj 69 246 t b f, f 22;
#X obj 407 130 f 1;
#X obj 324 396 t b b b b;
#X msg 500 288 1;
#X obj 238 73 t b f b, f 10;
#X connect 0 0 23 0;
#X connect 2 0 3 1;
#X connect 2 1 3 0;
#X connect 3 0 4 0;
#X connect 4 0 5 0;
#X connect 5 0 6 0;
#X connect 5 0 10 1;
#X connect 6 0 5 1;
#X connect 7 0 8 0;
#X connect 7 0 10 0;
#X connect 8 0 7 1;
#X connect 9 0 7 1;
#X connect 10 0 15 0;
#X connect 11 0 5 1;
#X connect 13 0 12 0;
#X connect 14 0 1 0;
#X connect 14 1 19 0;
#X connect 15 0 14 0;
#X connect 16 0 13 0;
#X connect 18 0 19 1;
#X connect 19 0 16 0;
#X connect 20 0 21 0;
#X connect 21 0 17 0;
#X connect 23 0 45 0;
#X connect 23 1 20 0;
#X connect 23 2 50 0;
#X connect 23 3 30 0;
#X connect 23 4 43 0;
#X connect 23 5 37 0;
#X connect 24 0 25 1;
#X connect 24 1 25 0;
#X connect 25 0 26 0;
#X connect 26 0 48 0;
#X connect 27 0 24 0;
#X connect 28 0 29 0;
#X connect 30 0 27 1;
#X connect 31 0 46 0;
#X connect 32 0 31 1;
#X connect 33 0 34 0;
#X connect 35 0 36 0;
#X connect 37 0 38 0;
#X connect 38 0 39 0;
#X connect 41 0 42 0;
#X connect 41 0 47 1;
#X connect 42 0 40 0;
#X connect 43 0 47 0;
#X connect 44 0 27 1;
#X connect 45 0 31 0;
#X connect 45 1 27 0;
#X connect 46 0 7 0;
#X connect 46 1 2 0;
#X connect 47 0 41 0;
#X connect 48 0 35 0;
#X connect 48 1 28 0;
#X connect 48 2 44 0;
#X connect 48 3 49 0;
#X connect 49 0 47 1;
#X connect 50 0 33 0;
#X connect 50 1 22 0;
#X connect 50 2 49 0;
