#N canvas 9 50 638 648 10;
#X obj 69 21 inlet;
#X obj 69 596 outlet;
#X obj 220 185 t f f;
#X obj 220 227 <;
#X obj 220 249 sel 1;
#X obj 220 304 f;
#X obj 252 304 + 1;
#X obj 69 156 t b f, f 22;
#X obj 69 352 f;
#X obj 103 352 + 1;
#X obj 87 328 r \$0-reset;
#X obj 69 374 +, f 16;
#X obj 238 276 r \$0-reset;
#X obj 101 538 s \$0-reset;
#X msg 101 518 0;
#X obj 69 436 t f f;
#X obj 69 396 i;
#X obj 101 491 sel 1;
#X obj 69 43 route metro length restart start-sync;
#X obj 123 107 s \$0-length;
#X obj 140 443 r \$0-length;
#X obj 101 469 >= 360;
#X obj 123 65 * 360;
#X obj 123 86 i;
#X obj 238 103 s \$0-reset;
#X connect 0 0 18 0;
#X connect 2 0 3 1;
#X connect 2 1 3 0;
#X connect 3 0 4 0;
#X connect 4 0 5 0;
#X connect 5 0 6 0;
#X connect 5 0 11 1;
#X connect 6 0 5 1;
#X connect 7 0 8 0;
#X connect 7 1 2 0;
#X connect 8 0 9 0;
#X connect 8 0 11 0;
#X connect 9 0 8 1;
#X connect 10 0 8 1;
#X connect 11 0 16 0;
#X connect 12 0 5 1;
#X connect 14 0 13 0;
#X connect 15 0 1 0;
#X connect 15 1 21 0;
#X connect 16 0 15 0;
#X connect 17 0 14 0;
#X connect 18 0 7 0;
#X connect 18 1 22 0;
#X connect 18 2 24 0;
#X connect 20 0 21 1;
#X connect 21 0 17 0;
#X connect 22 0 23 0;
#X connect 23 0 19 0;
