#N canvas 514 226 999 697 10;
#X obj 100 132 cnv 8 650 8 empty empty empty 20 12 0 14 -261234 -66577
0;
#X obj 781 55 loadbang;
#X obj 710 410 loadbang;
#X obj 710 454 s \$0-local-size;
#X obj 336 541 tabread slider\$1-\$2;
#X obj 710 432 array size slider\$1-\$2;
#X msg 781 131 \; slider\$1-\$2 xticks 0 1 4;
#X obj 781 108 pack 0 \$2;
#X obj 781 76 f \$1;
#X text 776 258 arg1-project number;
#X text 774 280 arg2-slider number;
#X obj 517 337 r \$0-local-size;
#X obj 517 358 t b a;
#X obj 471 405 /, f 7;
#X obj 471 385 f;
#X obj 471 313 r \$0-length;
#X obj 471 426 i;
#X obj 336 305 r \$0-metro;
#X obj 336 354 t f f;
#X obj 363 377 sel 0;
#X obj 363 428 s \$0-restart;
#X msg 363 398 0;
#X obj 336 326 i;
#X obj 336 480 i;
#X obj 336 454 /, f 23;
#X obj 336 562 - 25;
#X obj 336 583 clip 0 127;
#X obj 336 604 sel 0;
#X obj 336 505 change -1;
#X obj 363 634 s slider\$1-\$2-out;
#N canvas 5 50 450 278 (subpatch) 0;
#X array slider\$1-\$2 12 float 3;
#A 0 83.6 140.6 140.599 64.5999 15.2001 0.000289917 140.599 -15.1994
-34.1991 -34.1991 -26.5992 -11.3995;
#X coords 0 152 12 0 650 40 2 0 0;
#X restore 100 100 graph;
#N canvas 4 50 1337 748 control-messages 0;
#X obj 166 268 moses 0;
#X obj 166 289 t b;
#X msg 166 310 0;
#X obj 205 303 + 25;
#X obj 20 241 t f f;
#X obj 52 266 s \$0-local-size;
#X text 322 288 in beats;
#X obj 20 292 array size slider\$1-\$2;
#X obj 166 363 pack 0 \$1 \$2;
#X msg 166 384 \; slider\$2-\$3 const \$1;
#X obj 282 269 s \$0-length;
#X obj 194 228 s \$0-metro;
#X obj 282 226 * 360;
#X obj 282 247 i;
#X obj 20 173 r slider\$1-\$2-in;
#X msg 544 333 \; slider\$2-\$3 write slide-presets/\$1.txt;
#X obj 544 307 pack 0 \$1 \$2;
#X obj 20 200 route size all metro length start stop write read, f
117;
#X obj 631 245 pack 0 \$1 \$2;
#X msg 631 271 \; slider\$2-\$3 read slide-presets/\$1.txt;
#X connect 0 0 1 0;
#X connect 0 1 3 0;
#X connect 1 0 2 0;
#X connect 2 0 8 0;
#X connect 3 0 8 0;
#X connect 4 0 7 0;
#X connect 4 1 5 0;
#X connect 8 0 9 0;
#X connect 12 0 13 0;
#X connect 13 0 10 0;
#X connect 14 0 17 0;
#X connect 16 0 15 0;
#X connect 17 0 4 0;
#X connect 17 1 0 0;
#X connect 17 2 11 0;
#X connect 17 3 12 0;
#X connect 17 6 16 0;
#X connect 17 7 18 0;
#X connect 18 0 19 0;
#X restore 50 220 pd control-messages;
#X connect 1 0 8 0;
#X connect 2 0 5 0;
#X connect 4 0 25 0;
#X connect 5 0 3 0;
#X connect 7 0 6 0;
#X connect 8 0 7 0;
#X connect 11 0 12 0;
#X connect 12 0 14 0;
#X connect 12 1 13 1;
#X connect 13 0 16 0;
#X connect 14 0 13 0;
#X connect 15 0 14 0;
#X connect 16 0 24 1;
#X connect 17 0 22 0;
#X connect 18 0 24 0;
#X connect 18 1 19 0;
#X connect 19 0 21 0;
#X connect 21 0 20 0;
#X connect 22 0 18 0;
#X connect 23 0 28 0;
#X connect 24 0 23 0;
#X connect 25 0 26 0;
#X connect 26 0 27 0;
#X connect 27 1 29 0;
#X connect 28 0 4 0;
#X coords 0 -1 1 1 650 40 2 100 100;
