#N canvas 609 228 620 479 10;
#X obj 20 199 inlet messages;
#X obj 20 402 array size array\$0;
#X obj 100 132 cnv 8 350 8 empty empty empty 20 12 0 14 -261234 -66577
0;
#N canvas 0 23 450 278 (subpatch) 0;
#X array array\$0 16 float 3;
#A 0 89 11.3999 15.2 26.6001 3.7998 15.2 19 89 89 89 89 89 89 89 89
89;
#X coords 0 152 16 0 350 40 2 0 0;
#X restore 100 100 graph;
#X obj 10 5 loadbang;
#X obj 10 28 f \$0;
#X msg 10 57 \; array\$1 xticks 0 1 4;
#X obj 129 337 pack 0 \$0;
#X msg 129 358 \; array\$2 const \$1;
#X obj 129 242 moses 0;
#X obj 129 263 t b;
#X msg 129 284 0;
#X obj 168 277 + 25;
#X obj 20 220 route size all get, f 55;
#X obj 20 241 t f f;
#X obj 47 269 s \$0-local-size;
#X connect 0 0 13 0;
#X connect 4 0 5 0;
#X connect 5 0 6 0;
#X connect 7 0 8 0;
#X connect 9 0 10 0;
#X connect 9 1 12 0;
#X connect 10 0 11 0;
#X connect 11 0 7 0;
#X connect 12 0 7 0;
#X connect 13 0 14 0;
#X connect 13 1 9 0;
#X connect 14 0 1 0;
#X connect 14 1 15 0;
#X coords 0 -1 1 1 350 40 2 100 100;
