#N canvas 612 219 999 697 10;
#X obj 20 179 inlet messages;
#X obj 100 132 cnv 8 350 8 empty empty empty 20 12 0 14 -261234 -66577
0;
#N canvas 5 50 450 278 (subpatch) 0;
#X array slider\$1-\$2 20 float 3;
#A 0 53.2001 0 0 0 68.3999 0 0 0 49.3998 0 0 0 64.5997 0 0 0 155.801
0 0 0;
#X coords 0 152 20 0 350 40 2 0 0;
#X restore 100 100 graph;
#X obj 781 55 loadbang;
#X obj 166 268 moses 0;
#X obj 166 289 t b;
#X msg 166 310 0;
#X obj 205 303 + 25;
#X obj 20 241 t f f;
#X obj 52 266 s \$0-local-size;
#X obj 710 410 loadbang;
#X obj 710 454 s \$0-local-size;
#X text 316 285 in beats;
#X obj 435 620 outlet;
#X obj 408 523 tabread slider\$1-\$2;
#X obj 710 432 array size slider\$1-\$2;
#X obj 20 292 array size slider\$1-\$2;
#X msg 781 131 \; slider\$1-\$2 xticks 0 1 4;
#X obj 781 108 pack 0 \$2;
#X obj 781 76 f \$1;
#X obj 166 363 pack 0 \$1 \$2;
#X msg 166 384 \; slider\$2-\$3 const \$1;
#X text 546 127 arg1-project number;
#X text 544 149 arg2-slider number;
#X obj 589 319 r \$0-local-size;
#X obj 589 340 t b a;
#X obj 543 387 /, f 7;
#X obj 543 367 f;
#X obj 20 200 route size all metro length start stop, f 86;
#X obj 276 266 s \$0-length;
#X obj 543 295 r \$0-length;
#X obj 543 408 i;
#X obj 191 228 s \$0-metro;
#X obj 408 287 r \$0-metro;
#X obj 276 223 * 360;
#X obj 276 244 i;
#X obj 408 336 t f f;
#X obj 435 359 sel 0;
#X obj 435 410 s \$0-restart;
#X msg 435 380 0;
#X obj 408 308 i;
#X obj 408 462 i;
#X obj 408 436 /, f 23;
#X obj 408 544 - 25;
#X obj 408 565 clip 0 127;
#X obj 408 586 sel 0;
#X obj 408 487 change -1;
#X floatatom 478 498 5 0 0 0 - - -;
#X connect 0 0 28 0;
#X connect 3 0 19 0;
#X connect 4 0 5 0;
#X connect 4 1 7 0;
#X connect 5 0 6 0;
#X connect 6 0 20 0;
#X connect 7 0 20 0;
#X connect 8 0 16 0;
#X connect 8 1 9 0;
#X connect 10 0 15 0;
#X connect 14 0 43 0;
#X connect 15 0 11 0;
#X connect 18 0 17 0;
#X connect 19 0 18 0;
#X connect 20 0 21 0;
#X connect 24 0 25 0;
#X connect 25 0 27 0;
#X connect 25 1 26 1;
#X connect 26 0 31 0;
#X connect 27 0 26 0;
#X connect 28 0 8 0;
#X connect 28 1 4 0;
#X connect 28 2 32 0;
#X connect 28 3 34 0;
#X connect 30 0 27 0;
#X connect 31 0 42 1;
#X connect 33 0 40 0;
#X connect 34 0 35 0;
#X connect 35 0 29 0;
#X connect 36 0 42 0;
#X connect 36 1 37 0;
#X connect 37 0 39 0;
#X connect 39 0 38 0;
#X connect 40 0 36 0;
#X connect 41 0 46 0;
#X connect 42 0 41 0;
#X connect 43 0 44 0;
#X connect 44 0 45 0;
#X connect 45 1 13 0;
#X connect 46 0 14 0;
#X connect 46 0 47 0;
#X coords 0 -1 1 1 350 40 2 100 100;
