#N canvas 611 222 999 697 10;
#X obj 20 179 inlet messages;
#X obj 100 132 cnv 8 350 8 empty empty empty 20 12 0 14 -261234 -66577
0;
#N canvas 5 50 450 278 (subpatch) 0;
#X array slider\$1 4 float 3;
#A 0 87.4 87.4006 15.2 15.2001;
#X coords 0 152 4 0 350 40 2 0 0;
#X restore 100 100 graph;
#X obj 10 5 loadbang;
#X obj 166 268 moses 0;
#X obj 166 289 t b;
#X msg 166 310 0;
#X obj 205 303 + 25;
#X obj 20 241 t f f;
#X obj 52 266 s \$0-local-size;
#X obj 354 308 r \$0-local-size;
#X obj 466 362 loadbang;
#X obj 466 406 s \$0-local-size;
#X obj 20 200 route size all seqer bar_length, f 69;
#X obj 260 243 s \$0-barLength;
#X obj 166 363 pack 0 \$1;
#X obj 10 28 f \$1;
#X obj 20 292 array size slider\$1;
#X msg 166 384 \; slider\$2 const \$1;
#X obj 466 384 array size slider\$1;
#X msg 10 51 \; slider\$1 xticks 0 1 4;
#X connect 0 0 13 0;
#X connect 3 0 16 0;
#X connect 4 0 5 0;
#X connect 4 1 7 0;
#X connect 5 0 6 0;
#X connect 6 0 15 0;
#X connect 7 0 15 0;
#X connect 8 0 17 0;
#X connect 8 1 9 0;
#X connect 11 0 19 0;
#X connect 13 0 8 0;
#X connect 13 1 4 0;
#X connect 13 2 14 0;
#X connect 15 0 18 0;
#X connect 16 0 20 0;
#X connect 19 0 12 0;
#X coords 0 -1 1 1 350 40 2 100 100;
