#N canvas 28 121 1339 727 10;
#X obj 305 497 dac~ 1 2;
#X obj 302 87 t b b, f 18;
#X obj 285 -10 metro 1000;
#X obj 279 -34 tgl 15 0 empty empty empty 17 7 0 10 -262144 -1 -1 0
1;
#X floatatom 523 134 5 0 0 0 - - -;
#X obj 524 520 tabwrite~ yo;
#X obj 673 428 *~ 1;
#X obj 571 336 vline~;
#X obj 686 65 metro 1000;
#X obj 680 41 tgl 15 0 empty empty empty 17 7 0 10 -262144 -1 -1 0
1;
#X floatatom 739 38 5 0 0 0 - - -;
#X msg 571 309 1 1 \, 0 1 1;
#X obj 776 497 *~ 0.1;
#X obj 776 518 *~;
#X obj 301 458 *~ 1;
#X obj 778 354 makenote 100 100;
#X obj 779 385 mtof;
#X floatatom 883 311 5 0 0 0 - - -;
#X floatatom 843 293 5 0 0 0 - - -;
#X obj 778 422 phasor~;
#X obj 778 443 +~;
#X obj 778 464 cos~;
#X obj 917 398 phasor~;
#X obj 917 419 +~;
#X obj 917 440 cos~;
#X obj 917 482 *~;
#X msg 1047 432 clear \, 0 600 0;
#X msg 740 206 clear \, 0 600 0;
#X msg 986 362 clear \, 1 24 0 \, 0.1 50 0 \, 1 50 0 \, 0.1 50 0 \,
1 50 0;
#X obj 682 236 my-adsr 4;
#X obj 824 66 metro 1000;
#X obj 818 42 tgl 15 0 empty empty empty 17 7 0 10 -262144 -1 -1 0
1;
#X floatatom 877 39 5 0 0 0 - - -;
#X msg 824 87 55;
#X msg 710 182 clear \, 1 8 0 \, 0.01 50 0 \, 1 50 0 \, 0.1 50 0 \,
1 50 0;
#X msg 951 302 clear \, 1 24 0 \, 0 45 1;
#X obj 917 461 *~ 1;
#X obj 884 365 *~ 1.66667;
#X msg 686 86 40;
#X obj 989 462 my-adsr 4;
#X obj 747 121 f;
#X obj 784 121 +;
#X connect 1 0 5 0;
#X connect 1 1 11 0;
#X connect 2 0 1 0;
#X connect 3 0 2 0;
#X connect 4 0 2 1;
#X connect 6 0 13 1;
#X connect 6 0 5 0;
#X connect 8 0 38 0;
#X connect 9 0 8 0;
#X connect 9 0 30 0;
#X connect 10 0 8 1;
#X connect 11 0 7 0;
#X connect 12 0 13 0;
#X connect 13 0 14 0;
#X connect 14 0 0 0;
#X connect 14 0 0 1;
#X connect 15 0 16 0;
#X connect 15 1 29 0;
#X connect 15 1 39 0;
#X connect 16 0 19 0;
#X connect 16 0 37 0;
#X connect 17 0 15 2;
#X connect 18 0 15 1;
#X connect 19 0 20 0;
#X connect 20 0 21 0;
#X connect 21 0 12 0;
#X connect 22 0 23 0;
#X connect 23 0 24 0;
#X connect 24 0 36 0;
#X connect 25 0 20 1;
#X connect 26 0 39 2;
#X connect 27 0 29 2;
#X connect 28 0 39 1;
#X connect 29 0 6 0;
#X connect 30 0 33 0;
#X connect 31 0 30 0;
#X connect 32 0 30 1;
#X connect 33 0 15 0;
#X connect 34 0 29 1;
#X connect 35 0 39 1;
#X connect 36 0 25 0;
#X connect 37 0 22 0;
#X connect 38 0 15 0;
#X connect 39 0 25 1;
#X connect 40 0 41 0;
#X connect 41 0 40 1;
