#N canvas 97 226 598 383 10;
#X obj 63 21 inlet note;
#X obj 63 154 clone additive-voice 4 \$1;
#X obj 63 62 poly 4 1, f 11;
#X obj 63 83 - 1;
#X obj 63 104 pack 0 0 0, f 11;
#N canvas 616 285 782 474 presets 0;
#X text 44 63 2 peak vol;
#X text 47 40 1.Displace synthNum-add-pnum-displace;
#X msg 395 168 \;;
#X obj 400 116 pack 0 \$1;
#X restore 338 74 pd presets;
#X connect 0 0 2 0;
#X connect 2 0 3 0;
#X connect 2 1 4 1;
#X connect 2 2 4 2;
#X connect 3 0 4 0;
#X connect 4 0 1 0;
