#N canvas 90 236 653 421 10;
#X obj 41 196 osc~, f 20;
#X obj 41 150 +~, f 28;
#X text 219 151 freq-lfo;
#X obj 41 90 *~;
#X text 74 90 relative change;
#X obj 41 247 *~, f 43;
#N canvas 0 23 450 300 pan 0;
#X obj 33 9 inlet~;
#X obj 33 145 *~;
#X obj 116 146 *~;
#X obj 33 196 outlet~;
#X obj 116 196 outlet~;
#X obj 125 8 inlet;
#X obj 125 29 * 1.5708;
#X obj 125 50 t a a, f 10;
#X obj 125 71 cos;
#X obj 182 70 sin;
#X connect 0 0 1 0;
#X connect 0 0 2 0;
#X connect 1 0 3 0;
#X connect 2 0 4 0;
#X connect 5 0 6 0;
#X connect 6 0 7 0;
#X connect 7 0 8 0;
#X connect 7 1 9 0;
#X connect 8 0 1 1;
#X connect 9 0 2 1;
#X restore 41 308 pd pan - - - - - - - -;
#N canvas 386 371 750 472 envelope 0;
#X obj 128 360 outlet~;
#X obj 128 278 my-env 2 1, f 58;
#X obj 128 135 inlet velocity;
#X msg 473 241 clear \, 0 \$1 0;
#X obj 128 329 /~;
#X obj 235 97 pack 0 0 0, f 17;
#X msg 235 123 clear \, 1 \$1 0 \, \$3 \$2 0;
#X obj 128 242 f, f 5;
#X obj 128 208 del, f 16;
#X msg 167 182 stop;
#X obj 128 158 t b a b;
#X msg 407 127 clear \, \$1 100 0 \, 0.01 1000 \, 0.8 1000;
#X obj 334 76 t a a;
#X obj 235 14 r \$3-add-\$1-a;
#X obj 284 32 r \$3-add-\$1-d;
#X obj 334 55 r \$3-add-\$1-s;
#X obj 473 210 r \$3-add-\$1-r;
#X obj 221 172 r \$3-add-\$1-del;
#X obj 143 303 r \$3-add-\$1-peak;
#X connect 1 0 4 0;
#X connect 2 0 10 0;
#X connect 3 0 1 3;
#X connect 4 0 0 0;
#X connect 5 0 6 0;
#X connect 6 0 1 1;
#X connect 7 0 1 0;
#X connect 8 0 7 0;
#X connect 9 0 8 0;
#X connect 10 0 8 0;
#X connect 10 1 7 1;
#X connect 10 2 9 0;
#X connect 11 0 1 2;
#X connect 12 0 5 2;
#X connect 12 1 11 0;
#X connect 13 0 5 0;
#X connect 14 0 5 1;
#X connect 15 0 12 0;
#X connect 16 0 3 0;
#X connect 17 0 8 1;
#X connect 18 0 4 1;
#X restore 296 208 pd envelope;
#X obj 206 77 osc~, f 20;
#X obj 206 108 *~;
#X obj 41 24 sig~;
#X text 471 88 \$1 partial number;
#X text 473 110 \$2 voice number;
#X text 476 129 \$3 synth number;
#X obj 41 3 r \$2-add-\$3-midi;
#X obj 158 172 r \$3-add-\$1-osc-phase;
#X obj 56 52 r \$3-add-\$1-displace;
#X obj 206 13 r \$3-add-\$1-fLFO-freq;
#X obj 323 39 r \$3-add-\$1-fLFO-phase;
#X obj 239 100 r \$3-add-\$1-fLFO-depth;
#X obj 296 180 r \$2-add-\$3-vel;
#X obj 170 276 r \$3-add-\$1-pan;
#X obj 170 357 throw~ add-busR-\$2;
#X obj 41 358 throw~ add-busL-\$2;
#X connect 0 0 5 0;
#X connect 1 0 0 0;
#X connect 3 0 1 0;
#X connect 5 0 6 0;
#X connect 6 0 23 0;
#X connect 6 1 22 0;
#X connect 7 0 5 1;
#X connect 8 0 9 0;
#X connect 9 0 1 1;
#X connect 10 0 3 0;
#X connect 14 0 10 0;
#X connect 15 0 0 1;
#X connect 16 0 3 1;
#X connect 17 0 8 0;
#X connect 18 0 8 1;
#X connect 19 0 9 1;
#X connect 20 0 7 0;
#X connect 21 0 6 1;
