#N canvas 314 222 598 383 10;
#X obj 63 21 inlet note;
#X obj 63 154 clone additive-voice 4 \$1;
#X obj 63 62 poly 4 1, f 11;
#X obj 63 83 - 1;
#X obj 63 104 pack 0 0 0, f 11;
#N canvas 170 184 272 285 presets 0;
#N canvas -80 145 1030 614 envelop-presets 0;
#X msg 214 438 \; \$3-add-\$2-a \$1;
#X msg 374 393 \; \$3-add-\$2-d \$1;
#X msg 543 423 \; \$3-add-\$2-s \$1;
#X msg 706 418 \; \$3-add-\$2-r \$1;
#X msg 58 426 \; \$3-add-\$2-del \$1;
#X obj 58 390 pack 0 0 \$1, f 16;
#X obj 58 295 count 12;
#X obj 58 248 r \$1-load-presets;
#X obj 214 410 pack 0 0 \$1, f 16;
#X obj 214 275 count 12;
#X obj 214 228 r \$1-load-presets;
#X obj 214 299 + 1;
#X obj 214 381 -;
#X obj 376 362 pack 0 0 \$1;
#X obj 376 294 count 12;
#X obj 376 315 t b;
#X obj 376 267 r \$1-load-presets;
#X msg 376 336 300;
#X obj 543 393 pack 0 0 \$1;
#X obj 543 265 count 12;
#X obj 543 238 r \$1-load-presets;
#X obj 706 387 pack 0 0 \$1, f 16;
#X obj 706 262 count 12, f 12;
#X obj 724 237 bng 15 250 50 0 empty empty empty 17 7 0 10 -262144
-1 -1;
#X obj 706 215 r \$1-load-presets;
#X obj 706 286 + 1;
#X obj 706 358 -;
#X msg 706 337 1000 \$1;
#X obj 706 309 * 80;
#X obj 235 254 bng 15 250 50 0 empty empty empty 17 7 0 10 -262144
-1 -1;
#X obj 637 288 bng 15 250 50 0 empty empty empty 17 7 0 10 -262144
-1 -1;
#X msg 543 286 0.75;
#X obj 58 316 * 100;
#X obj 214 322 * 10;
#X msg 214 360 120 \$1;
#X connect 5 0 4 0;
#X connect 6 0 32 0;
#X connect 6 1 5 1;
#X connect 7 0 6 0;
#X connect 8 0 0 0;
#X connect 9 0 11 0;
#X connect 9 1 8 1;
#X connect 10 0 9 0;
#X connect 11 0 33 0;
#X connect 12 0 8 0;
#X connect 13 0 1 0;
#X connect 14 0 15 0;
#X connect 14 1 13 1;
#X connect 15 0 17 0;
#X connect 16 0 14 0;
#X connect 17 0 13 0;
#X connect 18 0 2 0;
#X connect 19 0 31 0;
#X connect 19 1 18 1;
#X connect 20 0 19 0;
#X connect 21 0 3 0;
#X connect 22 0 25 0;
#X connect 22 1 21 1;
#X connect 23 0 22 0;
#X connect 24 0 22 0;
#X connect 25 0 28 0;
#X connect 26 0 21 0;
#X connect 27 0 26 0;
#X connect 28 0 27 0;
#X connect 29 0 9 0;
#X connect 30 0 19 0;
#X connect 31 0 18 0;
#X connect 32 0 5 0;
#X connect 33 0 34 0;
#X connect 34 0 12 0;
#X restore 82 112 pd envelop-presets;
#N canvas 444 231 922 534 frequency-LFO 0;
#X obj 37 279 pack 0 0 \$1;
#X obj 36 158 count 12;
#X obj 36 111 r \$1-load-presets;
#X obj 37 189 + 1;
#X obj 37 252 -;
#X msg 37 304 \; \$3-add-\$2-f-depth \$1;
#X obj 186 250 pack 0 0 \$1, f 16;
#X obj 186 155 count 12;
#X obj 186 108 r \$1-load-presets;
#X obj 348 242 pack 0 0 \$1;
#X obj 348 174 count 12;
#X obj 348 195 t b;
#X obj 348 147 r \$1-load-presets;
#X obj 515 243 pack 0 0 \$1;
#X obj 515 175 count 12;
#X obj 515 196 t b;
#X obj 515 148 r \$1-load-presets;
#X obj 678 267 pack 0 0 \$1, f 16;
#X obj 678 142 count 12, f 12;
#X obj 696 117 bng 15 250 50 0 empty empty empty 17 7 0 10 -262144
-1 -1;
#X obj 678 95 r \$1-load-presets;
#X obj 678 166 + 1;
#X obj 678 238 -;
#X msg 678 217 1000 \$1;
#X obj 678 189 * 80;
#X obj 207 134 bng 15 250 50 0 empty empty empty 17 7 0 10 -262144
-1 -1;
#X msg 186 278 \; \$3-add-\$2-fa \$1;
#X msg 346 273 \; \$3-add-\$2-fd \$1;
#X msg 515 273 \; \$3-add-\$2-fs \$1;
#X msg 678 298 \; \$3-add-\$2-fr \$1;
#X msg 515 217 0;
#X obj 212 473 pack 0 0 \$1, f 16;
#X obj 212 378 count 12;
#X obj 212 331 r \$1-load-presets;
#X obj 212 399 t b;
#X msg 213 420 0;
#X msg 212 509 \; \$3-add-\$2-fdel \$1;
#X msg 37 231 1200 \$1;
#X obj 37 210 * 100;
#X msg 348 216 25;
#X obj 186 187 t b;
#X msg 186 208 3;
#X connect 0 0 5 0;
#X connect 1 0 3 0;
#X connect 1 1 0 1;
#X connect 2 0 1 0;
#X connect 3 0 38 0;
#X connect 4 0 0 0;
#X connect 6 0 26 0;
#X connect 7 0 40 0;
#X connect 7 1 6 1;
#X connect 8 0 7 0;
#X connect 9 0 27 0;
#X connect 10 0 11 0;
#X connect 10 1 9 1;
#X connect 11 0 39 0;
#X connect 12 0 10 0;
#X connect 13 0 28 0;
#X connect 14 0 15 0;
#X connect 14 1 13 1;
#X connect 15 0 30 0;
#X connect 16 0 14 0;
#X connect 17 0 29 0;
#X connect 18 0 21 0;
#X connect 18 1 17 1;
#X connect 19 0 18 0;
#X connect 20 0 18 0;
#X connect 21 0 24 0;
#X connect 22 0 17 0;
#X connect 23 0 22 0;
#X connect 24 0 23 0;
#X connect 25 0 7 0;
#X connect 30 0 13 0;
#X connect 31 0 36 0;
#X connect 32 0 34 0;
#X connect 32 1 31 1;
#X connect 33 0 32 0;
#X connect 34 0 35 0;
#X connect 35 0 31 0;
#X connect 37 0 4 0;
#X connect 38 0 37 0;
#X connect 39 0 9 0;
#X connect 40 0 41 0;
#X connect 41 0 6 0;
#X restore 84 164 pd frequency-LFO;
#N canvas 126 180 865 484 oscillator 0;
#X msg 244 367 \; \$3-add-\$2-displace \$1;
#X obj 244 332 pack 0 0 \$1;
#X obj 418 228 pack 0 0 \$1;
#X msg 418 263 \; \$3-add-\$2-osc-phase \$1;
#X obj 588 205 pack 0 0 \$1;
#X msg 588 240 \; \$3-add-\$2-pan \$1;
#X msg 80 292 \; \$3-add-\$2-peak \$1;
#X obj 241 138 count 12;
#X obj 418 137 count 12;
#X obj 241 91 r \$1-load-presets;
#X obj 588 134 count 12;
#X obj 588 155 t b;
#X obj 418 84 r \$1-load-presets;
#X obj 588 82 r \$1-load-presets;
#X obj 80 248 pack 0 0 \$1, f 16;
#X obj 80 133 count 12;
#X obj 80 86 r \$1-load-presets;
#X obj 244 258 + 1;
#X obj 80 157 + 1;
#X msg 587 176 0.5;
#X obj 194 188 sel 0 1;
#X msg 184 223 0.5;
#X msg 210 225 1;
#X obj 418 158 / 12;
#X obj 309 138 bng 15 250 50 0 empty empty empty 17 7 0 10 -262144
-1 -1;
#X obj 245 300 - 2;
#X obj 244 278 * 4;
#X connect 1 0 0 0;
#X connect 2 0 3 0;
#X connect 4 0 5 0;
#X connect 7 0 20 0;
#X connect 7 1 1 1;
#X connect 8 0 23 0;
#X connect 8 1 2 1;
#X connect 9 0 7 0;
#X connect 10 0 11 0;
#X connect 10 1 4 1;
#X connect 11 0 19 0;
#X connect 12 0 8 0;
#X connect 13 0 10 0;
#X connect 14 0 6 0;
#X connect 15 0 18 0;
#X connect 15 1 14 1;
#X connect 16 0 15 0;
#X connect 17 0 26 0;
#X connect 18 0 14 0;
#X connect 19 0 4 0;
#X connect 20 0 21 0;
#X connect 20 1 22 0;
#X connect 20 2 17 0;
#X connect 21 0 1 0;
#X connect 22 0 1 0;
#X connect 23 0 2 0;
#X connect 24 0 7 0;
#X connect 25 0 1 0;
#X connect 26 0 25 0;
#X restore 98 72 pd oscillator;
#X restore 274 116 pd presets;
#X obj 233 50 s \$1-load-presets;
#X obj 232 28 bng 15 250 50 0 empty empty empty 17 7 0 10 -262144 -1
-1;
#X obj 261 258 s \$1-add-filter;
#X obj 41 339 catch~ add-big-busL-\$1;
#X obj 199 338 catch~ add-big-busR-\$1;
#X obj 41 360 outlet~;
#X obj 199 359 outlet~;
#X msg 260 219 1;
#X obj 401 185 s~ \$1-add-transpose;
#X floatatom 376 95 5 0 0 0 - - -;
#X obj 378 115 lop~ 5;
#X connect 0 0 2 0;
#X connect 2 0 3 0;
#X connect 2 1 4 1;
#X connect 2 2 4 2;
#X connect 3 0 4 0;
#X connect 4 0 1 0;
#X connect 7 0 6 0;
#X connect 9 0 11 0;
#X connect 10 0 12 0;
#X connect 13 0 8 0;
#X connect 15 0 16 0;
#X connect 16 0 14 0;
