#N canvas 593 250 653 555 10;
#X obj 41 210 +~, f 28;
#X obj 41 180 *~;
#X text 74 180 relative change;
#X obj 41 387 *~, f 58;
#N canvas 0 23 450 300 pan 0;
#X obj 33 9 inlet~;
#X obj 33 145 *~;
#X obj 116 146 *~;
#X obj 33 196 outlet~;
#X obj 116 196 outlet~;
#X obj 125 8 inlet;
#X obj 125 29 * 1.5708;
#X obj 125 50 t a a, f 10;
#X obj 125 71 cos;
#X obj 182 70 sin;
#X connect 0 0 1 0;
#X connect 0 0 2 0;
#X connect 1 0 3 0;
#X connect 2 0 4 0;
#X connect 5 0 6 0;
#X connect 6 0 7 0;
#X connect 7 0 8 0;
#X connect 7 1 9 0;
#X connect 8 0 1 1;
#X connect 9 0 2 1;
#X restore 41 498 pd pan - - - - - - - -;
#X text 471 148 \$1 partial number;
#X text 473 170 \$2 voice number;
#X text 476 189 \$3 synth number;
#X obj 41 3 r \$2-add-\$3-midi;
#X obj 56 150 r \$3-add-\$1-displace;
#X obj 170 466 r \$3-add-\$1-pan;
#X obj 170 527 throw~ add-busR-\$2;
#X obj 41 528 throw~ add-busL-\$2;
#N canvas 0 23 450 300 filter 0;
#X obj 79 37 r \$3-add-filter;
#X obj 79 109 lop~ 10;
#X obj 79 130 outlet~;
#X connect 0 0 1 0;
#X connect 1 0 2 0;
#X restore 56 421 pd filter;
#X obj 41 448 /~;
#X obj 41 86 +~;
#X obj 56 63 r~ \$3-add-transpose;
#X obj 41 24 sig~;
#X obj 41 117 mtof~;
#X obj 384 70 r \$2-add-\$3-vel;
#N canvas 339 132 1101 684 amp-envelope 0;
#X obj 151 143 inlet velocity;
#X obj 644 482 outlet;
#X obj 657 152 r \$3-add-\$1-a;
#X obj 151 164 sel 0, f 59;
#X obj 657 173 t b a;
#X obj 633 201 *, f 9;
#X obj 502 440 pack 0 0 0 0, f 41;
#X obj 738 219 t b a;
#X obj 714 247 *, f 9;
#X obj 738 198 r \$3-add-\$1-d;
#X obj 819 265 t b a;
#X obj 795 293 *, f 9;
#X obj 819 244 r \$3-add-\$1-s;
#X obj 502 372 / 127;
#X obj 502 393 sqrt;
#X obj 502 414 sqrt;
#X obj 151 577 /~;
#X obj 166 554 r \$3-add-\$1-peak;
#X obj 151 511 vline~;
#X obj 151 532 pow~ 4;
#X obj 151 605 outlet~;
#X obj 220 291 t b a;
#X obj 196 319 *, f 9;
#X obj 220 270 r \$3-add-\$1-r;
#X obj 151 345 pack 0 0;
#X msg 151 185 0;
#X msg 502 461 \$1 \$2 \, \$4 \$3 \$2;
#X obj 795 314 / 100;
#X obj 634 130 r \$3-add-att;
#X obj 714 175 r \$3-add-dec;
#X obj 795 221 r \$3-add-sus;
#X obj 196 248 r \$3-add-rel;
#X obj 502 197 t b a b, f 9;
#X msg 553 220 stop;
#X obj 502 328 f;
#X obj 502 349 t a b, f 10;
#X obj 502 298 del, f 8;
#X obj 548 264 r \$3-add-\$1-del;
#X connect 0 0 3 0;
#X connect 2 0 4 0;
#X connect 3 0 25 0;
#X connect 3 1 32 0;
#X connect 4 0 5 0;
#X connect 4 1 5 1;
#X connect 5 0 6 1;
#X connect 6 0 26 0;
#X connect 7 0 8 0;
#X connect 7 1 8 1;
#X connect 8 0 6 2;
#X connect 9 0 7 0;
#X connect 10 0 11 0;
#X connect 10 1 11 1;
#X connect 11 0 27 0;
#X connect 12 0 10 0;
#X connect 13 0 14 0;
#X connect 14 0 15 0;
#X connect 15 0 6 0;
#X connect 16 0 20 0;
#X connect 17 0 16 1;
#X connect 18 0 19 0;
#X connect 19 0 16 0;
#X connect 21 0 22 0;
#X connect 21 1 22 1;
#X connect 22 0 24 1;
#X connect 23 0 21 0;
#X connect 24 0 18 0;
#X connect 25 0 24 0;
#X connect 26 0 18 0;
#X connect 27 0 6 3;
#X connect 28 0 5 0;
#X connect 29 0 8 0;
#X connect 30 0 11 0;
#X connect 31 0 22 0;
#X connect 32 0 36 0;
#X connect 32 1 34 1;
#X connect 32 2 33 0;
#X connect 33 0 36 0;
#X connect 34 0 35 0;
#X connect 35 0 13 0;
#X connect 35 1 1 0;
#X connect 36 0 34 0;
#X connect 37 0 36 1;
#X restore 386 329 pd amp-envelope;
#N canvas 0 23 450 300 clickless-phase 0;
#X obj 37 95 snapshot~;
#X obj 37 34 inlet~;
#X obj 143 35 inlet bang;
#X obj 37 239 vline~;
#X msg 37 214 \$1 3;
#X obj 124 86 r \$3-add-\$1-osc-phase;
#X obj 38 279 outlet~;
#X obj 37 161 -;
#X connect 0 0 7 0;
#X connect 1 0 0 0;
#X connect 2 0 0 0;
#X connect 3 0 6 0;
#X connect 4 0 3 0;
#X connect 5 0 7 1;
#X connect 7 0 4 0;
#X restore 56 266 pd clickless-phase;
#X obj 41 238 phasor~;
#X obj 41 349 cos~;
#X obj 41 319 wrap~;
#X obj 41 289 -~;
#X obj 472 352 t b b;
#N canvas 199 270 750 472 freq-LFO 0;
#X obj 138 420 outlet~;
#X obj 138 205 phasor~;
#X obj 138 316 cos~;
#X obj 138 286 wrap~;
#X obj 138 256 -~;
#X obj 138 113 r \$3-add-\$1-fLFO-rate;
#X obj 138 134 lop~ 5;
#X obj 330 114 inlet bang;
#X obj 138 377 *~, f 11;
#X obj 201 312 r \$3-add-\$1-fLFO-depth;
#X obj 201 348 lop~ 5;
#N canvas 0 23 450 300 clickless-phase 0;
#X obj 37 95 snapshot~;
#X obj 37 34 inlet~;
#X obj 143 35 inlet bang;
#X obj 37 239 vline~;
#X msg 37 214 \$1 3;
#X obj 38 279 outlet~;
#X obj 37 161 -;
#X obj 124 86 r \$3-add-\$1-fLFO-phase;
#X connect 0 0 6 0;
#X connect 1 0 0 0;
#X connect 2 0 0 0;
#X connect 3 0 5 0;
#X connect 4 0 3 0;
#X connect 6 0 4 0;
#X connect 7 0 6 1;
#X restore 153 233 pd clickless-phase - - - - - -;
#X connect 1 0 11 0;
#X connect 1 0 4 0;
#X connect 2 0 8 0;
#X connect 3 0 2 0;
#X connect 4 0 3 0;
#X connect 5 0 6 0;
#X connect 6 0 1 0;
#X connect 7 0 11 1;
#X connect 8 0 0 0;
#X connect 9 0 10 0;
#X connect 10 0 8 1;
#X connect 11 0 4 1;
#X restore 206 130 pd freq-LFO;
#X connect 0 0 22 0;
#X connect 1 0 0 0;
#X connect 3 0 14 0;
#X connect 4 0 12 0;
#X connect 4 1 11 0;
#X connect 8 0 17 0;
#X connect 9 0 1 1;
#X connect 10 0 4 1;
#X connect 13 0 14 1;
#X connect 14 0 4 0;
#X connect 15 0 18 0;
#X connect 16 0 15 1;
#X connect 17 0 15 0;
#X connect 18 0 1 0;
#X connect 19 0 20 0;
#X connect 20 0 3 1;
#X connect 20 1 26 0;
#X connect 21 0 25 1;
#X connect 22 0 21 0;
#X connect 22 0 25 0;
#X connect 23 0 3 0;
#X connect 24 0 23 0;
#X connect 25 0 24 0;
#X connect 26 0 21 1;
#X connect 26 1 27 0;
#X connect 27 0 0 1;
