#N canvas 593 250 653 555 10;
#X obj 41 210 +~, f 28;
#X text 219 211 freq-lfo;
#X obj 41 180 *~;
#X text 74 180 relative change;
#X obj 41 387 *~, f 58;
#N canvas 0 23 450 300 pan 0;
#X obj 33 9 inlet~;
#X obj 33 145 *~;
#X obj 116 146 *~;
#X obj 33 196 outlet~;
#X obj 116 196 outlet~;
#X obj 125 8 inlet;
#X obj 125 29 * 1.5708;
#X obj 125 50 t a a, f 10;
#X obj 125 71 cos;
#X obj 182 70 sin;
#X connect 0 0 1 0;
#X connect 0 0 2 0;
#X connect 1 0 3 0;
#X connect 2 0 4 0;
#X connect 5 0 6 0;
#X connect 6 0 7 0;
#X connect 7 0 8 0;
#X connect 7 1 9 0;
#X connect 8 0 1 1;
#X connect 9 0 2 1;
#X restore 41 498 pd pan - - - - - - - -;
#X obj 206 188 *~;
#X text 471 148 \$1 partial number;
#X text 473 170 \$2 voice number;
#X text 476 189 \$3 synth number;
#X obj 41 3 r \$2-add-\$3-midi;
#X obj 56 150 r \$3-add-\$1-displace;
#X obj 170 466 r \$3-add-\$1-pan;
#X obj 170 527 throw~ add-busR-\$2;
#X obj 41 528 throw~ add-busL-\$2;
#N canvas 0 23 450 300 filter 0;
#X obj 79 37 r \$3-add-filter;
#X obj 79 109 lop~ 10;
#X obj 79 130 outlet~;
#X connect 0 0 1 0;
#X connect 1 0 2 0;
#X restore 56 421 pd filter;
#X obj 41 448 /~;
#X obj 41 86 +~;
#X obj 56 63 r~ \$3-add-transpose;
#X obj 41 24 sig~;
#X obj 41 117 mtof~;
#N canvas 277 382 750 472 freq-envelope 0;
#X obj 111 410 outlet~;
#X obj 92 62 inlet velocity;
#X obj 242 108 r \$3-add-\$1-fdel;
#X obj 119 279 r \$3-add-\$1-fr;
#X obj 405 199 r \$3-add-\$1-fs;
#X obj 346 177 r \$3-add-\$1-fd;
#X obj 310 150 r \$3-add-\$1-fa;
#X obj 92 83 sel 0, f 13;
#X obj 111 362 vline~;
#X obj 111 383 pow~ 4;
#X obj 94 302 pack 0 0;
#X msg 92 104 0;
#X obj 167 159 del, f 13;
#X msg 206 134 stop;
#X obj 167 180 f, f 6;
#X obj 167 107 t b f b;
#X obj 167 201 / 127;
#X obj 167 222 sqrt;
#X obj 167 243 sqrt;
#X obj 270 233 pack 0 0 0 0, f 24;
#X msg 270 254 \$1 \$2 \, \$4 \$3 \$2;
#X connect 1 0 7 0;
#X connect 2 0 12 1;
#X connect 3 0 10 1;
#X connect 4 0 19 3;
#X connect 5 0 19 2;
#X connect 6 0 19 1;
#X connect 7 0 11 0;
#X connect 7 1 15 0;
#X connect 8 0 9 0;
#X connect 9 0 0 0;
#X connect 10 0 8 0;
#X connect 11 0 10 0;
#X connect 12 0 14 0;
#X connect 13 0 12 0;
#X connect 14 0 16 0;
#X connect 15 0 12 0;
#X connect 15 1 14 1;
#X connect 15 2 13 0;
#X connect 16 0 17 0;
#X connect 17 0 18 0;
#X connect 18 0 19 0;
#X connect 19 0 20 0;
#X connect 20 0 8 0;
#X restore 206 130 pd freq-envelope;
#X obj 206 70 r \$2-add-\$3-vel;
#X obj 206 91 t a a;
#N canvas 277 382 750 472 amp-envelope 0;
#X obj 128 360 outlet~;
#X obj 128 278 my-env 2 1, f 58;
#X obj 128 135 inlet velocity;
#X msg 439 188 clear \, 0 \$1 0;
#X obj 128 329 /~;
#X obj 235 97 pack 0 0 0, f 17;
#X msg 235 123 clear \, 1 \$1 0 \, \$3 \$2 0;
#X obj 334 76 t a a;
#X obj 235 14 r \$3-add-\$1-a;
#X obj 284 32 r \$3-add-\$1-d;
#X obj 334 55 r \$3-add-\$1-s;
#X obj 439 157 r \$3-add-\$1-r;
#X obj 473 223 r \$3-add-\$1-del;
#X obj 143 303 r \$3-add-\$1-peak;
#X obj 475 347 outlet;
#X msg 407 127 clear \, \$1 100 0 \, 0 1000 0 \, \$1 1000 0;
#X connect 1 0 4 0;
#X connect 1 1 14 0;
#X connect 2 0 1 0;
#X connect 3 0 1 3;
#X connect 4 0 0 0;
#X connect 5 0 6 0;
#X connect 6 0 1 1;
#X connect 7 0 5 2;
#X connect 7 1 15 0;
#X connect 8 0 5 0;
#X connect 9 0 5 1;
#X connect 10 0 7 0;
#X connect 11 0 3 0;
#X connect 12 0 1 4;
#X connect 13 0 4 1;
#X connect 15 0 1 2;
#X restore 386 328 pd amp-envelope;
#N canvas 0 23 450 300 clickless-phase 0;
#X obj 37 95 snapshot~;
#X obj 37 34 inlet~;
#X obj 143 35 inlet bang;
#X obj 37 239 vline~;
#X msg 37 214 \$1 3;
#X obj 124 86 r \$3-add-\$1-osc-phase;
#X obj 38 279 outlet~;
#X obj 37 161 -;
#X connect 0 0 7 0;
#X connect 1 0 0 0;
#X connect 2 0 0 0;
#X connect 3 0 6 0;
#X connect 4 0 3 0;
#X connect 5 0 7 1;
#X connect 7 0 4 0;
#X restore 56 266 pd clickless-phase;
#X obj 41 238 phasor~;
#X obj 41 349 cos~;
#X obj 41 319 wrap~;
#X obj 41 289 -~;
#X obj 221 161 r \$3-add-\$1-f-depth;
#X connect 0 0 26 0;
#X connect 2 0 0 0;
#X connect 4 0 16 0;
#X connect 5 0 14 0;
#X connect 5 1 13 0;
#X connect 6 0 0 1;
#X connect 10 0 19 0;
#X connect 11 0 2 1;
#X connect 12 0 5 1;
#X connect 15 0 16 1;
#X connect 16 0 5 0;
#X connect 17 0 20 0;
#X connect 18 0 17 1;
#X connect 19 0 17 0;
#X connect 20 0 2 0;
#X connect 21 0 6 0;
#X connect 22 0 23 0;
#X connect 23 0 21 0;
#X connect 23 1 24 0;
#X connect 24 0 4 1;
#X connect 24 1 25 1;
#X connect 25 0 29 1;
#X connect 26 0 25 0;
#X connect 26 0 29 0;
#X connect 27 0 4 0;
#X connect 28 0 27 0;
#X connect 29 0 28 0;
#X connect 30 0 6 1;
