#N canvas 588 198 586 388 10;
#X obj 28 22 inlet midinote;
#X obj 28 63 unpack, f 18;
#X obj 235 148 clone additive-partial 12 \$1 \$2;
#X text 320 21 \$1 voice number;
#X text 323 40 \$2 synth number;
#X obj 28 113 s \$1-add-\$2-midi;
#X obj 133 88 s \$1-add-\$2-vel;
#X obj 41 339 throw~ add-big-busL-\$2;
#X obj 41 298 catch~ add-busL-\$1;
#X obj 199 300 catch~ add-busR-\$1;
#X obj 199 339 throw~ add-big-busR-\$2;
#X connect 0 0 1 0;
#X connect 1 0 5 0;
#X connect 1 1 6 0;
#X connect 8 0 7 0;
#X connect 9 0 10 0;
