#N canvas 591 129 649 584 10;
#X obj 180 170 *~, f 21;
#X obj 176 458 dac~ 1 2;
#X obj 184 414 *~ 1;
#X obj 183 368 *~ 0.1;
#X obj 183 389 *~, f 21;
#X obj 183 328 +~;
#X obj 183 349 cos~;
#X obj 17 121 osc~ 678;
#X obj 184 307 phasor~ 444;
#X obj 180 128 osc~ 789;
#X floatatom 26 36 5 0 0 0 - - -;
#X obj 119 55 mtof~;
#X msg 292 317 100;
#X obj 306 357 my-env 2, f 17;
#X msg 338 235 clear \, 1 8 0 \, 0.1 300 0;
#X msg 400 316 clear \, 0 1000 0;
#X msg 269 299 0;
#X obj 16 162 *~;
#X obj 247 33 *~ 0.5;
#X obj 247 54 +~ 0.5;
#X obj 180 149 *~ 0.1;
#X obj 247 12 osc~ 2;
#X obj 16 141 *~ 0.5;
#X obj 180 103 *~ 12;
#X obj 84 21 *~ 0.5;
#X obj 84 42 +~ 0.5;
#X obj 85 -1 osc~ 2.5;
#X obj 20 90 *~ 4;
#X obj 150 247 *~ 2;
#X msg 358 288 clear \, 0.5 75 0 \, 0 300 0 \, 0.5 250 0;
#X msg 324 55 clear \, 1 8 0 \, 0 300 0;
#X obj 294 92 my-env 4, f 17;
#X msg 334 65 clear \, 1 8 0 \, 0 300 0;
#X msg 344 75 clear \, 1 8 0 \, 0 300 0;
#X connect 0 0 5 1;
#X connect 2 0 1 0;
#X connect 2 0 1 1;
#X connect 3 0 4 0;
#X connect 4 0 2 0;
#X connect 5 0 6 0;
#X connect 6 0 3 0;
#X connect 7 0 22 0;
#X connect 8 0 5 0;
#X connect 9 0 20 0;
#X connect 10 0 11 0;
#X connect 11 0 23 0;
#X connect 11 0 27 0;
#X connect 11 0 28 0;
#X connect 12 0 31 0;
#X connect 12 0 13 0;
#X connect 13 0 4 1;
#X connect 14 0 13 1;
#X connect 15 0 13 3;
#X connect 16 0 13 0;
#X connect 17 0 5 1;
#X connect 18 0 19 0;
#X connect 20 0 0 0;
#X connect 21 0 18 0;
#X connect 22 0 17 0;
#X connect 23 0 9 0;
#X connect 24 0 25 0;
#X connect 25 0 17 1;
#X connect 26 0 24 0;
#X connect 27 0 7 0;
#X connect 28 0 8 0;
#X connect 29 0 13 2;
#X connect 30 0 31 1;
#X connect 31 0 0 1;
