#N canvas 278 154 1031 709 10;
#X obj 62 300 *~, f 49;
#X obj 63 405 outlet~;
#X text 101 468 Basic Oscillator that can easily be phase modulated.
;
#X obj 77 138 *~, f 16;
#X obj 677 395 outlet~;
#X obj 62 327 pan-mono, f 106;
#X obj 19 33 inlet~ Phase-Mod;
#X obj 126 34 inlet~ Base Frequency;
#X obj 263 34 inlet~ Modulation;
#X obj 451 36 inlet~ pan;
#X obj 523 36 inlet~ feeback;
#X obj 379 35 inlet~ amp;
#X obj 77 169 phasor~;
#X obj 62 192 +~;
#X obj 62 228 feedback \$1 \$2, f 112;
#X connect 0 0 5 0;
#X connect 3 0 12 0;
#X connect 5 0 1 0;
#X connect 5 1 4 0;
#X connect 6 0 13 0;
#X connect 7 0 3 1;
#X connect 8 0 3 0;
#X connect 9 0 5 1;
#X connect 10 0 14 1;
#X connect 11 0 0 1;
#X connect 12 0 13 1;
#X connect 13 0 14 0;
#X connect 14 0 0 0;
