#N canvas 115 75 1015 655 10;
#X obj 17 -28 inlet;
#X obj 746 -45 inlet;
#X obj 17 -6 unpack 0 0;
#X obj 262 554 outlet~;
#X obj 635 543 outlet~;
#X obj 17 27 mtof~;
#X obj 401 186 sig~ 0.5;
#X obj 262 511 hip~ 5;
#X obj 635 505 hip~ 5;
#X obj 730 314 random 100;
#X obj 730 338 / 100;
#X obj 730 359 lop~ 5;
#X obj 17 71 s~ \$0-midi;
#X obj 505 380 r~ \$0-midi;
#X obj 292 175 r~ \$0-midi;
#X obj 83 115 r~ \$0-midi;
#X obj 144 129 sig~ 0.5;
#X obj 74 28 s \$0-vel;
#X obj 338 -35 r \$0-vel;
#X msg 359 -11 clear \, 1 3 0 \, 0.15 200 0 \, 1 300 0;
#X obj 338 41 ../my-env 4;
#X obj 153 -19 r \$0-vel;
#X msg 239 53 clear \, 0 500 0;
#X obj 258 262 *~ 0.175;
#X obj 432 216 sig~ 0.05;
#X obj 580 341 sig~ 1;
#X obj 258 242 ../fmMod 0, f 29;
#X obj 402 -48 r \$1-loadbang;
#X obj 218 -32 r \$1-loadbang;
#X obj 730 276 r \$1-loadbang;
#N canvas 0 23 635 407 envelope 0;
#X obj 65 105 r \$0-vel;
#X msg 151 177 clear \, 0 500 0;
#X msg 86 129 clear \, 1 8 0 \, 0 500 0;
#X obj 129 92 r \$1-loadbang;
#X obj 66 229 outlet~;
#X obj 67 180 ../my-env 2 1;
#X msg 123 155 clear \, 0 500 0 \, 0.5 300 0 \, 0 200 0 \, 0.1 100
0 \, 0.67 100 0;
#X connect 0 0 5 0;
#X connect 1 0 5 3;
#X connect 2 0 5 1;
#X connect 3 0 2 0;
#X connect 3 0 6 0;
#X connect 3 0 1 0;
#X connect 5 0 4 0;
#X connect 6 0 5 2;
#X restore 655 313 pd envelope;
#X obj 154 56 ../my-env 2;
#X msg 174 5 clear \, 1 8 0 \, 0.67 500 0;
#X msg 211 31 clear \, 0.67 500 0;
#X msg 93 -1 100;
#X obj 241 101 r \$1-loadbang;
#X obj 888 297 r \$1-loadbang;
#X obj 448 126 r \$1-loadbang;
#X msg 448 147 0;
#X obj 175 159 sig~ 0.15;
#X obj 432 409 ../fmMod, f 63;
#X msg 241 122 0;
#X msg 395 15 clear \, 0 500 0 \, 0.5 300 0 \, 0 200 0 \, 0.1 100 0
\, 0.67 100 0;
#X obj 61 186 ../fmMod, f 18;
#X obj 262 490 *~ 0.25;
#X obj 635 484 *~ 0.25;
#X msg 888 318 1;
#X obj 791 -2 route fb-1;
#X obj 791 22 s \$0-fb-1;
#X obj 819 257 r \$0-fb-1;
#X obj 819 278 lop~ 5;
#X obj 262 463 *~;
#X obj 636 462 *~;
#X obj 424 489 /~ 12543.9;
#X obj 424 510 /~ 4;
#X obj 424 552 cos~;
#X obj 424 531 -~ 0.09;
#X obj 424 467 r~ \$0-midi;
#X obj 433 344 *~ 0.136;
#X obj 432 430 *~ 0.1;
#X msg 430 42 clear \, 0 1000 0;
#X obj 61 206 *~ 0.21;
#X obj 54 307 r \$0-vel;
#X msg 140 379 clear \, 0 500 0;
#X obj 119 294 r \$1-loadbang;
#X obj 55 382 ../my-env 2;
#X msg 75 331 clear \, 1 8 0 \, 0.67 500 0;
#X msg 112 357 clear \, 0.67 500 0;
#X connect 0 0 2 0;
#X connect 1 0 47 0;
#X connect 2 0 5 0;
#X connect 2 1 17 0;
#X connect 5 0 12 0;
#X connect 6 0 26 4;
#X connect 7 0 3 0;
#X connect 8 0 4 0;
#X connect 9 0 10 0;
#X connect 10 0 11 0;
#X connect 11 0 40 4;
#X connect 13 0 40 1;
#X connect 14 0 26 1;
#X connect 15 0 43 1;
#X connect 16 0 43 4;
#X connect 18 0 20 0;
#X connect 19 0 20 1;
#X connect 20 0 26 3;
#X connect 20 0 43 3;
#X connect 21 0 31 0;
#X connect 22 0 31 3;
#X connect 24 0 26 5;
#X connect 25 0 40 2;
#X connect 26 0 23 0;
#X connect 26 1 51 0;
#X connect 26 1 52 0;
#X connect 27 0 19 0;
#X connect 27 0 42 0;
#X connect 27 0 60 0;
#X connect 28 0 32 0;
#X connect 28 0 33 0;
#X connect 28 0 22 0;
#X connect 29 0 9 0;
#X connect 30 0 40 3;
#X connect 31 0 26 2;
#X connect 32 0 31 1;
#X connect 33 0 31 2;
#X connect 34 0 17 0;
#X connect 35 0 41 0;
#X connect 36 0 46 0;
#X connect 37 0 38 0;
#X connect 38 0 26 6;
#X connect 39 0 43 5;
#X connect 40 0 59 0;
#X connect 41 0 43 6;
#X connect 42 0 20 2;
#X connect 43 0 61 0;
#X connect 44 0 7 0;
#X connect 45 0 8 0;
#X connect 46 0 40 6;
#X connect 47 0 48 0;
#X connect 49 0 50 0;
#X connect 50 0 40 5;
#X connect 51 0 44 0;
#X connect 52 0 45 0;
#X connect 53 0 54 0;
#X connect 54 0 56 0;
#X connect 55 0 51 1;
#X connect 55 0 52 1;
#X connect 56 0 55 0;
#X connect 57 0 53 0;
#X connect 58 0 40 0;
#X connect 60 0 20 3;
#X connect 61 0 26 0;
#X connect 62 0 65 0;
#X connect 63 0 65 3;
#X connect 64 0 66 0;
#X connect 64 0 67 0;
#X connect 64 0 63 0;
#X connect 65 0 43 2;
#X connect 66 0 65 1;
#X connect 67 0 65 2;
